Banana-Outline-Light.ufo
<glyph name="exclam" format="2">
  <advance width="186"/>
  <unicode hex="0021"/>
  <outline>
    <contour>
      <point x="104" y="102" type="curve" smooth="yes"/>
      <point x="131.806" y="102"/>
      <point x="143" y="72.1266"/>
      <point x="143" y="46" type="curve" smooth="yes"/>
      <point x="143" y="20.9391"/>
      <point x="131.845" y="-10"/>
      <point x="104" y="-10" type="curve" smooth="yes"/>
      <point x="77.2203" y="-10"/>
      <point x="65" y="20.8286"/>
      <point x="65" y="46" type="curve" smooth="yes"/>
      <point x="65" y="72.2374"/>
      <point x="77.26" y="102"/>
    </contour>
    <contour>
      <point x="104" y="92" type="curve" smooth="yes"/>
      <point x="86.74" y="92"/>
      <point x="75" y="71.7626"/>
      <point x="75" y="46" type="curve" smooth="yes"/>
      <point x="75" y="21.1714"/>
      <point x="86.7797" y="0"/>
      <point x="104" y="0" type="curve" smooth="yes"/>
      <point x="122.155" y="0"/>
      <point x="133" y="21.0609"/>
      <point x="133" y="46" type="curve" smooth="yes"/>
      <point x="133" y="71.8734"/>
      <point x="122.194" y="92"/>
    </contour>
    <contour>
      <point x="56.0173" y="214.415" type="curve" smooth="yes"/>
      <point x="56.2473" y="217.176"/>
      <point x="58.6548" y="219.213"/>
      <point x="61.4152" y="218.983" type="curve" smooth="yes"/>
      <point x="64.1756" y="218.753"/>
      <point x="66.2127" y="216.345"/>
      <point x="65.9827" y="213.585" type="curve" smooth="yes"/>
      <point x="64.2395" y="192.666"/>
      <point x="81.6661" y="175.24"/>
      <point x="102.616" y="176.985" type="curve" smooth="yes"/>
      <point x="124.909" y="178.7"/>
      <point x="140" y="201.338"/>
      <point x="140" y="228" type="curve" smooth="yes"/>
      <point x="140" y="402.643"/>
      <point x="56" y="467.177"/>
      <point x="56" y="644" type="curve" smooth="yes"/>
      <point x="56" y="673.338"/>
      <point x="72.909" y="702.7"/>
      <point x="102.585" y="704.983" type="curve" smooth="yes"/>
      <point x="129.666" y="707.24"/>
      <point x="152.24" y="684.666"/>
      <point x="149.983" y="657.585" type="curve" smooth="yes"/>
      <point x="149.753" y="654.824"/>
      <point x="147.345" y="652.787"/>
      <point x="144.585" y="653.017" type="curve" smooth="yes"/>
      <point x="141.824" y="653.247"/>
      <point x="139.787" y="655.655"/>
      <point x="140.017" y="658.415" type="curve" smooth="yes"/>
      <point x="141.761" y="679.334"/>
      <point x="124.334" y="696.761"/>
      <point x="103.383" y="695.015" type="curve" smooth="yes"/>
      <point x="81.0911" y="693.3"/>
      <point x="66" y="670.662"/>
      <point x="66" y="644" type="curve" smooth="yes"/>
      <point x="66" y="469.357"/>
      <point x="150" y="404.823"/>
      <point x="150" y="228" type="curve" smooth="yes"/>
      <point x="150" y="198.662"/>
      <point x="133.091" y="169.3"/>
      <point x="103.415" y="167.017" type="curve" smooth="yes"/>
      <point x="76.3339" y="164.76"/>
      <point x="53.7605" y="187.334"/>
    </contour>
  </outline>
</glyph>
<glyph name="dollar" format="2">
  <advance width="572"/>
  <unicode hex="0024"/>
  <outline>
    <component base="S"/>
    <contour>
      <point x="295.755" y="-70.0181" type="line" smooth="yes"/>
      <point x="295.745" y="-72.7881"/>
      <point x="293.507" y="-75.01"/>
      <point x="290.737" y="-75" type="curve" smooth="yes"/>
      <point x="287.967" y="-74.99"/>
      <point x="285.745" y="-72.7519"/>
      <point x="285.755" y="-69.9819" type="curve" smooth="yes"/>
      <point x="288.822" y="777.342" type="line" smooth="yes"/>
      <point x="288.832" y="780.112"/>
      <point x="291.07" y="782.334"/>
      <point x="293.84" y="782.324" type="curve" smooth="yes"/>
      <point x="296.61" y="782.314"/>
      <point x="298.832" y="780.076"/>
      <point x="298.822" y="777.306" type="curve" smooth="yes"/>
    </contour>
  </outline>
</glyph>
<glyph name="percent" format="2">
  <advance width="661"/>
  <unicode hex="0025"/>
  <outline>
    <contour>
      <point x="495.465" y="-3.75854" type="curve" smooth="yes"/>
      <point x="431.878" y="16.7533"/>
      <point x="381.04" y="72.3431"/>
      <point x="380" y="140.932" type="curve" smooth="yes"/>
      <point x="378.981" y="216.322"/>
      <point x="424.012" y="287.058"/>
      <point x="497.149" y="285.998" type="curve" smooth="yes"/>
      <point x="567.933" y="283.885"/>
      <point x="612.98" y="214.476"/>
      <point x="614" y="141" type="curve" smooth="yes"/>
      <point x="614" y="66.642"/>
      <point x="568.981" y="-4"/>
      <point x="496.95" y="-4" type="curve" smooth="yes"/>
      <point x="393.221" y="-2.9522"/>
      <point x="279.578" y="120.44"/>
      <point x="250.864" y="-0.158323" type="curve"/>
      <point x="241.137" y="2.16168" type="line"/>
      <point x="408.137" y="701.162" type="line" smooth="yes"/>
      <point x="409.419" y="706.53"/>
      <point x="419.141" y="704.213"/>
      <point x="417.864" y="698.844" type="curve" smooth="yes"/>
      <point x="387.603" y="571.535"/>
      <point x="256.41" y="695"/>
      <point x="162" y="695" type="curve" smooth="yes"/>
      <point x="97.9815" y="695"/>
      <point x="55" y="631.642"/>
      <point x="55" y="560" type="curve" smooth="yes"/>
      <point x="55" y="489.465"/>
      <point x="97.9193" y="426.943"/>
      <point x="162.145" y="425.998" type="curve" smooth="yes"/>
      <point x="226.946" y="424.12"/>
      <point x="269" y="488.206"/>
      <point x="269" y="560" type="curve" smooth="yes"/>
      <point x="269" y="621.391"/>
      <point x="220.857" y="676.734"/>
      <point x="160.535" y="695.219" type="curve" smooth="yes"/>
      <point x="157.887" y="696.031"/>
      <point x="156.408" y="698.817"/>
      <point x="157.219" y="701.465" type="curve" smooth="yes"/>
      <point x="158.031" y="704.113"/>
      <point x="160.817" y="705.592"/>
      <point x="163.465" y="704.78" type="curve" smooth="yes"/>
      <point x="227.143" y="685.266"/>
      <point x="279" y="626.609"/>
      <point x="279" y="560" type="curve" smooth="yes"/>
      <point x="279" y="485.794"/>
      <point x="235.054" y="413.88"/>
      <point x="161.926" y="416" type="curve" smooth="yes"/>
      <point x="90.0807" y="417.057"/>
      <point x="45" y="486.535"/>
      <point x="45" y="560" type="curve" smooth="yes"/>
      <point x="45" y="634.358"/>
      <point x="90.0185" y="705"/>
      <point x="162" y="705" type="curve" smooth="yes"/>
      <point x="265.706" y="705"/>
      <point x="380.406" y="584.5"/>
      <point x="408.136" y="701.156" type="curve"/>
      <point x="417.863" y="698.838" type="line"/>
      <point x="250.863" y="-0.161897" type="line" smooth="yes"/>
      <point x="249.581" y="-5.52997"/>
      <point x="239.858" y="-3.21097"/>
      <point x="241.136" y="2.15809" type="curve" smooth="yes"/>
      <point x="272.414" y="133.525"/>
      <point x="402.667" y="6.95354"/>
      <point x="497.027" y="6" type="curve" smooth="yes"/>
      <point x="562.204" y="6"/>
      <point x="604" y="70.9635"/>
      <point x="604" y="140.965" type="curve" smooth="yes"/>
      <point x="603.042" y="209.959"/>
      <point x="561.229" y="274.08"/>
      <point x="496.89" y="276" type="curve" smooth="yes"/>
      <point x="430.785" y="276.958"/>
      <point x="389.04" y="212.064"/>
      <point x="390" y="141.071" type="curve" smooth="yes"/>
      <point x="390.961" y="77.6574"/>
      <point x="438.125" y="25.2454"/>
      <point x="498.536" y="5.75801" type="curve" smooth="yes"/>
      <point x="501.172" y="4.90761"/>
      <point x="502.609" y="2.10071"/>
      <point x="501.759" y="-0.535491" type="curve" smooth="yes"/>
      <point x="500.909" y="-3.17169"/>
      <point x="498.102" y="-4.60939"/>
    </contour>
  </outline>
</glyph>
<glyph name="ampersand" format="2">
  <advance width="689"/>
  <unicode hex="0026"/>
  <outline>
    <contour>
      <point x="642.748" y="3.30956" type="line" smooth="yes"/>
      <point x="644.581" y="1.23326"/>
      <point x="644.386" y="-1.91434"/>
      <point x="642.31" y="-3.74784" type="curve" smooth="yes"/>
      <point x="640.233" y="-5.58134"/>
      <point x="637.086" y="-5.38584"/>
      <point x="635.252" y="-3.30954" type="curve" smooth="yes"/>
      <point x="182.306" y="509.629" type="line"/>
      <point x="110.387" y="581.548"/>
      <point x="170.308" y="704.593"/>
      <point x="269.564" y="712.981" type="curve" smooth="yes"/>
      <point x="352.711" y="720.256"/>
      <point x="421.248" y="650.611"/>
      <point x="413.981" y="567.561" type="curve" smooth="yes"/>
      <point x="398.642" y="394.741"/>
      <point x="149.233" y="416.485"/>
      <point x="78.3948" y="286.615" type="curve" smooth="yes"/>
      <point x="-7.3614" y="127.771"/>
      <point x="164.314" y="-59.698"/>
      <point x="351.156" y="14.6475" type="curve" smooth="yes"/>
      <point x="474.078" y="63.4261"/>
      <point x="516.173" y="204.843"/>
      <point x="516.173" y="343.447" type="curve" smooth="yes"/>
      <point x="516.173" y="346.217"/>
      <point x="518.403" y="348.447"/>
      <point x="521.173" y="348.447" type="curve" smooth="yes"/>
      <point x="523.943" y="348.447"/>
      <point x="526.173" y="346.217"/>
      <point x="526.173" y="343.447" type="curve" smooth="yes"/>
      <point x="526.173" y="204.051"/>
      <point x="483.922" y="56.5739"/>
      <point x="354.847" y="5.35341" type="curve" smooth="yes"/>
      <point x="159.686" y="-72.302"/>
      <point x="-20.6383" y="124.229"/>
      <point x="69.6055" y="291.385" type="curve" smooth="yes"/>
      <point x="142.823" y="425.616"/>
      <point x="389.353" y="403.196"/>
      <point x="404.019" y="568.436" type="curve" smooth="yes"/>
      <point x="410.753" y="645.389"/>
      <point x="347.289" y="709.744"/>
      <point x="270.429" y="703.018" type="curve" smooth="yes"/>
      <point x="179.034" y="695.295"/>
      <point x="123.716" y="582.172"/>
      <point x="189.644" y="516.427" type="curve"/>
    </contour>
    <contour>
      <point x="432.325" y="315.227" type="curve" smooth="yes"/>
      <point x="420.067" y="347.543"/>
      <point x="444.634" y="381.349"/>
      <point x="479.454" y="377.979" type="curve" smooth="yes"/>
      <point x="517.038" y="374.758"/>
      <point x="527.492" y="324.921"/>
      <point x="563.408" y="321.983" type="curve" smooth="yes"/>
      <point x="589.835" y="319.822"/>
      <point x="609.969" y="346.677"/>
      <point x="600.346" y="371.172" type="curve" smooth="yes"/>
      <point x="599.333" y="373.75"/>
      <point x="600.594" y="376.641"/>
      <point x="603.172" y="377.654" type="curve" smooth="yes"/>
      <point x="605.75" y="378.667"/>
      <point x="608.641" y="377.406"/>
      <point x="609.654" y="374.828" type="curve" smooth="yes"/>
      <point x="622.031" y="343.323"/>
      <point x="596.263" y="309.263"/>
      <point x="562.592" y="312.017" type="curve" smooth="yes"/>
      <point x="522.045" y="315.333"/>
      <point x="510.82" y="365.254"/>
      <point x="478.518" y="368.023" type="curve" smooth="yes"/>
      <point x="451.366" y="370.651"/>
      <point x="431.933" y="344.457"/>
      <point x="441.675" y="318.773" type="curve" smooth="yes"/>
      <point x="442.657" y="316.183"/>
      <point x="441.363" y="313.307"/>
      <point x="438.773" y="312.325" type="curve" smooth="yes"/>
      <point x="436.183" y="311.343"/>
      <point x="433.308" y="312.637"/>
    </contour>
  </outline>
</glyph>
<glyph name="quotesingle" format="2">
  <advance width="229"/>
  <unicode hex="0027"/>
  <outline>
    <contour>
      <point x="86.1099" y="689.438" type="curve" smooth="yes"/>
      <point x="86.1099" y="714.751"/>
      <point x="97.1162" y="735.223"/>
      <point x="114.628" y="735.223" type="curve" smooth="yes"/>
      <point x="132.139" y="735.223"/>
      <point x="143.146" y="714.751"/>
      <point x="143.146" y="689.438" type="curve" smooth="yes"/>
      <point x="143.146" y="664.126"/>
      <point x="132.139" y="643.653"/>
      <point x="114.628" y="643.653" type="curve" smooth="yes"/>
      <point x="97.1163" y="643.653"/>
      <point x="86.1099" y="664.126"/>
    </contour>
    <contour>
      <point x="76.1099" y="689.438" type="curve" smooth="yes"/>
      <point x="76.1099" y="663.966"/>
      <point x="87.4489" y="633.653"/>
      <point x="114.628" y="633.653" type="curve" smooth="yes"/>
      <point x="141.807" y="633.653"/>
      <point x="153.146" y="663.966"/>
      <point x="153.146" y="689.438" type="curve" smooth="yes"/>
      <point x="153.146" y="714.911"/>
      <point x="141.807" y="745.223"/>
      <point x="114.628" y="745.223" type="curve" smooth="yes"/>
      <point x="87.449" y="745.223"/>
      <point x="76.1099" y="714.911"/>
    </contour>
    <contour>
      <point x="153.146" y="689.438" type="curve" smooth="yes"/>
      <point x="153.146" y="692.208"/>
      <point x="150.916" y="694.438"/>
      <point x="148.146" y="694.438" type="curve" smooth="yes"/>
      <point x="145.376" y="694.438"/>
      <point x="143.146" y="692.208"/>
      <point x="143.146" y="689.438" type="curve" smooth="yes"/>
      <point x="143.146" y="612.216"/>
      <point x="120.077" y="535.995"/>
      <point x="76.9596" y="471.819" type="curve" smooth="yes"/>
      <point x="75.4148" y="469.52"/>
      <point x="76.0222" y="466.426"/>
      <point x="78.3214" y="464.881" type="curve" smooth="yes"/>
      <point x="80.6206" y="463.336"/>
      <point x="83.7153" y="463.943"/>
      <point x="85.2601" y="466.243" type="curve" smooth="yes"/>
      <point x="129.493" y="532.077"/>
      <point x="153.146" y="610.242"/>
    </contour>
  </outline>
</glyph>
<glyph name="parenright" format="2">
  <advance width="142"/>
  <unicode hex="0029"/>
  <outline>
    <contour>
      <point x="56.6191" y="-0.9142" type="curve" smooth="yes"/>
      <point x="55.5586" y="-3.4732"/>
      <point x="52.6448" y="-4.6796"/>
      <point x="50.0858" y="-3.6191" type="curve" smooth="yes"/>
      <point x="47.5268" y="-2.5586"/>
      <point x="46.3204" y="0.3552"/>
      <point x="47.3809" y="2.9142" type="curve" smooth="yes"/>
      <point x="93.133" y="113.316"/>
      <point x="117" y="231.666"/>
      <point x="117" y="351" type="curve" smooth="yes"/>
      <point x="117" y="470.328"/>
      <point x="93.1352" y="587.679"/>
      <point x="47.3809" y="698.086" type="curve" smooth="yes"/>
      <point x="46.3204" y="700.645"/>
      <point x="47.5268" y="703.559"/>
      <point x="50.0858" y="704.619" type="curve" smooth="yes"/>
      <point x="52.6448" y="705.68"/>
      <point x="55.5586" y="704.473"/>
      <point x="56.6191" y="701.914" type="curve" smooth="yes"/>
      <point x="102.865" y="590.321"/>
      <point x="127" y="471.672"/>
      <point x="127" y="351" type="curve" smooth="yes"/>
      <point x="127" y="230.334"/>
      <point x="102.867" y="110.684"/>
    </contour>
  </outline>
</glyph>
<glyph name="plus" format="2">
  <advance width="572"/>
  <unicode hex="002B"/>
  <outline>
    <contour>
      <point x="284" y="0.3754" type="line" smooth="yes"/>
      <point x="284" y="-2.3946"/>
      <point x="281.77" y="-4.6246"/>
      <point x="279" y="-4.6246" type="curve" smooth="yes"/>
      <point x="276.23" y="-4.6246"/>
      <point x="274" y="-2.3946"/>
      <point x="274" y="0.3754" type="curve" smooth="yes"/>
      <point x="274" y="500.186" type="line" smooth="yes"/>
      <point x="274" y="502.956"/>
      <point x="276.23" y="505.186"/>
      <point x="279" y="505.186" type="curve" smooth="yes"/>
      <point x="281.77" y="505.186"/>
      <point x="284" y="502.956"/>
      <point x="284" y="500.186" type="curve" smooth="yes"/>
    </contour>
    <contour>
      <point x="529.625" y="254" type="line" smooth="yes"/>
      <point x="532.395" y="254"/>
      <point x="534.625" y="251.77"/>
      <point x="534.625" y="249" type="curve" smooth="yes"/>
      <point x="534.625" y="246.23"/>
      <point x="532.395" y="244"/>
      <point x="529.625" y="244" type="curve" smooth="yes"/>
      <point x="29.8141" y="244" type="line" smooth="yes"/>
      <point x="27.0441" y="244"/>
      <point x="24.8141" y="246.23"/>
      <point x="24.8141" y="249" type="curve" smooth="yes"/>
      <point x="24.8141" y="251.77"/>
      <point x="27.0441" y="254"/>
      <point x="29.8141" y="254" type="curve" smooth="yes"/>
    </contour>
  </outline>
</glyph>
<glyph name="comma" format="2">
  <advance width="268"/>
  <unicode hex="002C"/>
  <outline>
    <contour>
      <point x="114.11" y="44.4383" type="curve" smooth="yes"/>
      <point x="114.11" y="69.7506"/>
      <point x="125.117" y="90.2233"/>
      <point x="142.628" y="90.2233" type="curve" smooth="yes"/>
      <point x="160.139" y="90.2233"/>
      <point x="171.146" y="69.7506"/>
      <point x="171.146" y="44.4383" type="curve" smooth="yes"/>
      <point x="171.146" y="19.126"/>
      <point x="160.139" y="-1.3467"/>
      <point x="142.628" y="-1.3467" type="curve" smooth="yes"/>
      <point x="125.117" y="-1.3467"/>
      <point x="114.11" y="19.126"/>
    </contour>
    <contour>
      <point x="104.11" y="44.4383" type="curve" smooth="yes"/>
      <point x="104.11" y="18.9656"/>
      <point x="115.449" y="-11.3467"/>
      <point x="142.628" y="-11.3467" type="curve" smooth="yes"/>
      <point x="169.807" y="-11.3467"/>
      <point x="181.146" y="18.9656"/>
      <point x="181.146" y="44.4383" type="curve" smooth="yes"/>
      <point x="181.146" y="69.911"/>
      <point x="169.807" y="100.223"/>
      <point x="142.628" y="100.223" type="curve" smooth="yes"/>
      <point x="115.449" y="100.223"/>
      <point x="104.11" y="69.911"/>
    </contour>
    <contour>
      <point x="181.146" y="44.4383" type="curve" smooth="yes"/>
      <point x="181.146" y="47.2083"/>
      <point x="178.916" y="49.4383"/>
      <point x="176.146" y="49.4383" type="curve" smooth="yes"/>
      <point x="173.376" y="49.4383"/>
      <point x="171.146" y="47.2083"/>
      <point x="171.146" y="44.4383" type="curve" smooth="yes"/>
      <point x="171.146" y="-32.7837"/>
      <point x="148.077" y="-109.005"/>
      <point x="104.96" y="-173.181" type="curve" smooth="yes"/>
      <point x="103.415" y="-175.48"/>
      <point x="104.022" y="-178.574"/>
      <point x="106.322" y="-180.119" type="curve" smooth="yes"/>
      <point x="108.621" y="-181.664"/>
      <point x="111.715" y="-181.057"/>
      <point x="113.26" y="-178.757" type="curve" smooth="yes"/>
      <point x="157.493" y="-112.923"/>
      <point x="181.146" y="-34.7576"/>
    </contour>
  </outline>
</glyph>
<glyph name="hyphen" format="2">
  <advance width="366"/>
  <unicode hex="002D"/>
  <outline>
    <contour>
      <point x="70" y="275" type="curve" smooth="yes"/>
      <point x="306" y="275" type="line" smooth="yes"/>
      <point x="308.77" y="275"/>
      <point x="311" y="272.77"/>
      <point x="311" y="270" type="curve" smooth="yes"/>
      <point x="311" y="267.23"/>
      <point x="308.77" y="265"/>
      <point x="306" y="265" type="curve" smooth="yes"/>
      <point x="70" y="265" type="line" smooth="yes"/>
      <point x="67.23" y="265"/>
      <point x="65" y="267.23"/>
      <point x="65" y="270" type="curve" smooth="yes"/>
      <point x="65" y="272.77"/>
      <point x="67.23" y="275"/>
    </contour>
  </outline>
</glyph>
<glyph name="period" format="2">
  <advance width="268"/>
  <unicode hex="002E"/>
  <outline>
    <contour>
      <point x="145" y="102" type="curve" smooth="yes"/>
      <point x="172.806" y="102"/>
      <point x="184" y="72.1266"/>
      <point x="184" y="46" type="curve" smooth="yes"/>
      <point x="184" y="20.9391"/>
      <point x="172.845" y="-10"/>
      <point x="145" y="-10" type="curve" smooth="yes"/>
      <point x="118.22" y="-10"/>
      <point x="106" y="20.8286"/>
      <point x="106" y="46" type="curve" smooth="yes"/>
      <point x="106" y="72.2374"/>
      <point x="118.26" y="102"/>
    </contour>
    <contour>
      <point x="145" y="92" type="curve" smooth="yes"/>
      <point x="127.74" y="92"/>
      <point x="116" y="71.7626"/>
      <point x="116" y="46" type="curve" smooth="yes"/>
      <point x="116" y="21.1714"/>
      <point x="127.78" y="0"/>
      <point x="145" y="0" type="curve" smooth="yes"/>
      <point x="163.155" y="0"/>
      <point x="174" y="21.0609"/>
      <point x="174" y="46" type="curve" smooth="yes"/>
      <point x="174" y="71.8734"/>
      <point x="163.194" y="92"/>
    </contour>
  </outline>
</glyph>
<glyph name="slash" format="2">
  <advance width="372"/>
  <unicode hex="002F"/>
  <outline>
    <contour>
      <point x="65.6871" y="-1.7409" type="line" smooth="yes"/>
      <point x="64.7226" y="-4.3376"/>
      <point x="61.8557" y="-5.6516"/>
      <point x="59.259" y="-4.6871" type="curve" smooth="yes"/>
      <point x="56.6623" y="-3.7226"/>
      <point x="55.3483" y="-0.8557"/>
      <point x="56.3128" y="1.741" type="curve" smooth="yes"/>
      <point x="316.313" y="701.741" type="line" smooth="yes"/>
      <point x="317.277" y="704.338"/>
      <point x="320.144" y="705.652"/>
      <point x="322.741" y="704.687" type="curve" smooth="yes"/>
      <point x="325.338" y="703.723"/>
      <point x="326.652" y="700.856"/>
      <point x="325.687" y="698.259" type="curve" smooth="yes"/>
    </contour>
  </outline>
</glyph>
<glyph name="zero" format="2">
  <advance width="563"/>
  <unicode hex="0030"/>
  <outline>
    <contour>
      <point x="45" y="351" type="curve" smooth="yes"/>
      <point x="45" y="531.401"/>
      <point x="139.513" y="695"/>
      <point x="281" y="695" type="curve" smooth="yes"/>
      <point x="422.507" y="695"/>
      <point x="518" y="531.371"/>
      <point x="518" y="351" type="curve" smooth="yes"/>
      <point x="518" y="169.62"/>
      <point x="422.5" y="6"/>
      <point x="281" y="6" type="curve" smooth="yes"/>
      <point x="139.519" y="6"/>
      <point x="45" y="169.589"/>
    </contour>
    <contour>
      <point x="35" y="351" type="curve" smooth="yes"/>
      <point x="35" y="168.411"/>
      <point x="130.481" y="-4"/>
      <point x="281" y="-4" type="curve" smooth="yes"/>
      <point x="431.5" y="-4"/>
      <point x="528" y="168.38"/>
      <point x="528" y="351" type="curve" smooth="yes"/>
      <point x="528" y="532.629"/>
      <point x="431.493" y="705"/>
      <point x="281" y="705" type="curve" smooth="yes"/>
      <point x="130.487" y="705"/>
      <point x="35" y="532.599"/>
    </contour>
  </outline>
</glyph>
<glyph name="one" format="2">
  <advance width="311"/>
  <unicode hex="0031"/>
  <outline>
    <contour>
      <point x="58.9627" y="391.028" type="curve" smooth="yes"/>
      <point x="23.1985" y="418.377"/>
      <point x="11.4661" y="460.817"/>
      <point x="29.4165" y="501.998" type="curve" smooth="yes"/>
      <point x="64.4208" y="582.302"/>
      <point x="204" y="570.254"/>
      <point x="204" y="660" type="curve" smooth="yes"/>
      <point x="204" y="681.22"/>
      <point x="214.249" y="707"/>
      <point x="237" y="707" type="curve" smooth="yes"/>
      <point x="260.83" y="707"/>
      <point x="270" y="681.086"/>
      <point x="270" y="660" type="curve" smooth="yes"/>
      <point x="270" y="-1" type="line" smooth="yes"/>
      <point x="270" y="-3.77"/>
      <point x="267.77" y="-6"/>
      <point x="265" y="-6" type="curve" smooth="yes"/>
      <point x="262.23" y="-6"/>
      <point x="260" y="-3.77"/>
      <point x="260" y="-1" type="curve" smooth="yes"/>
      <point x="260" y="660" type="line" smooth="yes"/>
      <point x="260" y="680.914"/>
      <point x="251.17" y="697"/>
      <point x="237" y="697" type="curve" smooth="yes"/>
      <point x="223.751" y="697"/>
      <point x="214" y="680.78"/>
      <point x="214" y="660" type="curve" smooth="yes"/>
      <point x="214" y="561.903"/>
      <point x="71.511" y="573.542"/>
      <point x="38.5835" y="498.002" type="curve" smooth="yes"/>
      <point x="22.5339" y="461.183"/>
      <point x="32.8015" y="423.623"/>
      <point x="65.0372" y="398.972" type="curve" smooth="yes"/>
      <point x="67.2376" y="397.289"/>
      <point x="67.6544" y="394.163"/>
      <point x="65.9718" y="391.963" type="curve" smooth="yes"/>
      <point x="64.2892" y="389.762"/>
      <point x="61.1632" y="389.346"/>
    </contour>
  </outline>
</glyph>
<glyph name="two" format="2">
  <advance width="626"/>
  <unicode hex="0032"/>
  <outline>
    <contour>
      <point x="115.632" y="392.567" type="curve" smooth="yes"/>
      <point x="30.6634" y="545.101"/>
      <point x="154.506" y="729.398"/>
      <point x="328.528" y="710.972" type="curve" smooth="yes"/>
      <point x="444.252" y="698.683"/>
      <point x="526.751" y="587.958"/>
      <point x="495.809" y="478.632" type="curve" smooth="yes"/>
      <point x="489.345" y="456.006"/>
      <point x="479.772" y="436.613"/>
      <point x="465.585" y="419.489" type="curve"/>
      <point x="25.6222" y="40.4043" type="line"/>
      <point x="22.5544" y="19.6304"/>
      <point x="41.0686" y="1.55455"/>
      <point x="62.1372" y="4.92444" type="curve"/>
      <point x="79.6714" y="8.26427"/>
      <point x="90.1707" y="26.6853"/>
      <point x="101.781" y="45.6826" type="curve"/>
      <point x="199.735" y="199.756"/>
      <point x="426.261" y="199.795"/>
      <point x="523.196" y="45.7181" type="curve"/>
      <point x="535.235" y="27.6593"/>
      <point x="544.137" y="8.49128"/>
      <point x="562.79" y="4.93722" type="curve"/>
      <point x="570.944" y="3.63252"/>
      <point x="578.873" y="5.51682"/>
      <point x="585.381" y="9.57067" type="curve" smooth="yes"/>
      <point x="596.197" y="16.308"/>
      <point x="602.75" y="28.7567"/>
      <point x="600.097" y="42.0194" type="curve" smooth="yes"/>
      <point x="599.554" y="44.7356"/>
      <point x="601.303" y="47.3596"/>
      <point x="604.019" y="47.9028" type="curve" smooth="yes"/>
      <point x="606.736" y="48.446"/>
      <point x="609.36" y="46.6966"/>
      <point x="609.903" y="43.9804" type="curve" smooth="yes"/>
      <point x="613.481" y="26.0891"/>
      <point x="604.524" y="9.7131"/>
      <point x="590.668" y="1.08246" type="curve" smooth="yes"/>
      <point x="582.251" y="-4.16023"/>
      <point x="571.902" y="-6.64813"/>
      <point x="561.137" y="-4.92463" type="curve"/>
      <point x="536.635" y="-0.257546"/>
      <point x="526.05" y="23.4131"/>
      <point x="514.768" y="40.3372" type="curve"/>
      <point x="421.739" y="188.204"/>
      <point x="204.265" y="188.244"/>
      <point x="110.243" y="40.3549" type="curve"/>
      <point x="99.5778" y="22.903"/>
      <point x="87.2171" y="-0.476152"/>
      <point x="63.8627" y="-4.9246" type="curve"/>
      <point x="33.6306" y="-9.76175"/>
      <point x="9.65993" y="17.6922"/>
      <point x="16.4792" y="45.7046" type="curve"/>
      <point x="458.396" y="426.49" type="line"/>
      <point x="471.731" y="442.78"/>
      <point x="480.379" y="461.026"/>
      <point x="486.189" y="481.361" type="curve" smooth="yes"/>
      <point x="515.249" y="584.042"/>
      <point x="437.748" y="689.317"/>
      <point x="327.473" y="701.028" type="curve" smooth="yes"/>
      <point x="161.494" y="718.602"/>
      <point x="43.3366" y="542.899"/>
      <point x="124.368" y="397.433" type="curve" smooth="yes"/>
      <point x="125.716" y="395.013"/>
      <point x="124.853" y="391.98"/>
      <point x="122.433" y="390.632" type="curve" smooth="yes"/>
      <point x="120.013" y="389.284"/>
      <point x="116.98" y="390.147"/>
    </contour>
  </outline>
</glyph>
<glyph name="three" format="2">
  <advance width="507"/>
  <unicode hex="0033"/>
  <outline>
    <contour>
      <point x="30" y="706" type="curve" smooth="yes"/>
      <point x="369.405" y="706.032" type="line"/>
      <point x="391.863" y="712.24"/>
      <point x="415.835" y="697.592"/>
      <point x="416.983" y="673.415" type="curve"/>
      <point x="418.121" y="659.758"/>
      <point x="412.405" y="646.812"/>
      <point x="400.584" y="639.72" type="curve" smooth="yes"/>
      <point x="74.5998" y="441.729" type="line" smooth="yes"/>
      <point x="51.2577" y="427.521"/>
      <point x="38.0371" y="407.348"/>
      <point x="48.0687" y="391.906" type="curve"/>
      <point x="55.7585" y="381.141"/>
      <point x="72.8869" y="381.096"/>
      <point x="83.315" y="392.381" type="curve"/>
      <point x="208.977" y="543.584"/>
      <point x="468.182" y="439.828"/>
      <point x="459.997" y="218.833" type="curve" smooth="yes"/>
      <point x="455.9" y="95.9107"/>
      <point x="352.554" y="1.24387"/>
      <point x="228.56" y="-11.9685" type="curve" smooth="yes"/>
      <point x="156.266" y="-20.1144"/>
      <point x="83.9525" y="0.250094"/>
      <point x="26.9109" y="45.0684" type="curve" smooth="yes"/>
      <point x="24.7328" y="46.7798"/>
      <point x="24.3571" y="49.9111"/>
      <point x="26.0685" y="52.0892" type="curve" smooth="yes"/>
      <point x="27.7799" y="54.2673"/>
      <point x="30.9111" y="54.643"/>
      <point x="33.0892" y="52.9316" type="curve" smooth="yes"/>
      <point x="88.0477" y="9.74991"/>
      <point x="157.735" y="-9.88564"/>
      <point x="227.47" y="-2.02819" type="curve" smooth="yes"/>
      <point x="347.446" y="10.7561"/>
      <point x="446.1" y="102.089"/>
      <point x="450.003" y="219.176" type="curve" smooth="yes"/>
      <point x="457.847" y="430.972"/>
      <point x="210.274" y="529.681"/>
      <point x="90.7659" y="385.708" type="curve"/>
      <point x="84.9439" y="379.354"/>
      <point x="59.9383" y="358.088"/>
      <point x="39.8079" y="386.275" type="curve"/>
      <point x="23.963" y="410.652"/>
      <point x="46.7424" y="436.479"/>
      <point x="69.4025" y="450.272" type="curve" smooth="yes"/>
      <point x="395.428" y="648.287" type="line" smooth="yes"/>
      <point x="403.596" y="653.188"/>
      <point x="407.879" y="662.242"/>
      <point x="407.012" y="672.673" type="curve"/>
      <point x="406.09" y="692.03"/>
      <point x="386.4" y="701.09"/>
      <point x="370.763" y="696" type="curve"/>
      <point x="30" y="696" type="line" smooth="yes"/>
      <point x="27.23" y="696"/>
      <point x="25" y="698.23"/>
      <point x="25" y="701" type="curve" smooth="yes"/>
      <point x="25" y="703.77"/>
      <point x="27.23" y="706"/>
    </contour>
  </outline>
</glyph>
<glyph name="four" format="2">
  <advance width="620"/>
  <unicode hex="0034"/>
  <outline>
    <contour>
      <point x="320.528" y="695.236" type="curve" smooth="yes"/>
      <point x="326.567" y="707.315"/>
      <point x="339.754" y="713.121"/>
      <point x="353.456" y="711.979" type="curve" smooth="yes"/>
      <point x="364.359" y="710.889"/>
      <point x="373.471" y="705.342"/>
      <point x="379.58" y="697.371" type="curve" smooth="yes"/>
      <point x="386.58" y="688.238"/>
      <point x="389.492" y="675.905"/>
      <point x="385.789" y="663.563" type="curve"/>
      <point x="385.284" y="662.528"/>
      <point x="386.429" y="664.673"/>
      <point x="384.959" y="661.946" type="curve"/>
      <point x="4.73871" y="168.957" type="line"/>
      <point x="2.19861" y="156.257"/>
      <point x="10.4314" y="127.785"/>
      <point x="41.0194" y="133.903" type="curve"/>
      <point x="59.1966" y="136.507"/>
      <point x="67.9034" y="154.367"/>
      <point x="80.7975" y="173.708" type="curve"/>
      <point x="176.68" y="327.731"/>
      <point x="401.246" y="327.819"/>
      <point x="498.249" y="173.635" type="curve" smooth="yes"/>
      <point x="509.538" y="155.163"/>
      <point x="519.116" y="136.586"/>
      <point x="536.861" y="133.924" type="curve"/>
      <point x="546.856" y="131.925"/>
      <point x="555.545" y="134.722"/>
      <point x="562.108" y="139.956" type="curve" smooth="yes"/>
      <point x="570.652" y="146.77"/>
      <point x="575.501" y="157.997"/>
      <point x="573.097" y="170.019" type="curve" smooth="yes"/>
      <point x="572.554" y="172.736"/>
      <point x="574.303" y="175.36"/>
      <point x="577.019" y="175.903" type="curve" smooth="yes"/>
      <point x="579.736" y="176.446"/>
      <point x="582.36" y="174.697"/>
      <point x="582.903" y="171.98" type="curve" smooth="yes"/>
      <point x="586.094" y="156.026"/>
      <point x="579.616" y="141.128"/>
      <point x="568.343" y="132.138" type="curve" smooth="yes"/>
      <point x="559.459" y="125.053"/>
      <point x="547.55" y="121.591"/>
      <point x="535.139" y="124.076" type="curve"/>
      <point x="512.815" y="127.425"/>
      <point x="500.122" y="151.393"/>
      <point x="489.768" y="168.337" type="curve" smooth="yes"/>
      <point x="396.718" y="316.237"/>
      <point x="181.278" y="316.197"/>
      <point x="89.2025" y="168.292" type="curve"/>
      <point x="77.1927" y="150.277"/>
      <point x="66.128" y="127.396"/>
      <point x="42.9806" y="124.097" type="curve"/>
      <point x="14.6181" y="118.424"/>
      <point x="-10.6281" y="143.354"/>
      <point x="-4.90288" y="171.98" type="curve"/>
      <point x="-4.13408" y="173.827"/>
      <point x="-4.84668" y="172.261"/>
      <point x="-3.95918" y="174.053" type="curve"/>
      <point x="376.408" y="667.233" type="line"/>
      <point x="378.233" y="673.314"/>
      <point x="377.871" y="683.162"/>
      <point x="371.643" y="691.288" type="curve" smooth="yes"/>
      <point x="367.14" y="697.163"/>
      <point x="360.352" y="701.24"/>
      <point x="352.544" y="702.021" type="curve" smooth="yes"/>
      <point x="342.329" y="702.872"/>
      <point x="333.335" y="698.489"/>
      <point x="329.472" y="690.764" type="curve" smooth="yes"/>
      <point x="328.233" y="688.286"/>
      <point x="325.242" y="687.289"/>
      <point x="322.764" y="688.528" type="curve" smooth="yes"/>
      <point x="320.286" y="689.766"/>
      <point x="319.289" y="692.758"/>
    </contour>
    <contour>
      <point x="330" y="425" type="curve" smooth="yes"/>
      <point x="330" y="2" type="line" smooth="yes"/>
      <point x="330" y="-0.77"/>
      <point x="327.77" y="-3"/>
      <point x="325" y="-3" type="curve" smooth="yes"/>
      <point x="322.23" y="-3"/>
      <point x="320" y="-0.77"/>
      <point x="320" y="2" type="curve" smooth="yes"/>
      <point x="320" y="425" type="line" smooth="yes"/>
      <point x="320" y="427.77"/>
      <point x="322.23" y="430"/>
      <point x="325" y="430" type="curve" smooth="yes"/>
      <point x="327.77" y="430"/>
      <point x="330" y="427.77"/>
    </contour>
  </outline>
</glyph>
<glyph name="five" format="2">
  <advance width="507"/>
  <unicode hex="0035"/>
  <outline>
    <contour>
      <point x="422" y="705" type="line" smooth="yes"/>
      <point x="424.77" y="705"/>
      <point x="427" y="702.77"/>
      <point x="427" y="700" type="curve" smooth="yes"/>
      <point x="427" y="697.23"/>
      <point x="424.77" y="695"/>
      <point x="422" y="695" type="curve" smooth="yes"/>
      <point x="45" y="695" type="line"/>
      <point x="44.9832" y="390.951" type="line"/>
      <point x="54.1676" y="381.609"/>
      <point x="69.5565" y="382.035"/>
      <point x="78.1836" y="392.23" type="curve" smooth="yes"/>
      <point x="208.701" y="546.384"/>
      <point x="471.037" y="443.017"/>
      <point x="469" y="218.96" type="curve" smooth="yes"/>
      <point x="467.978" y="92.2083"/>
      <point x="365.757" y="-9.9566"/>
      <point x="238.122" y="-11.9986" type="curve" smooth="yes"/>
      <point x="154.245" y="-14.0444"/>
      <point x="76.5374" y="30.9596"/>
      <point x="35.6439" y="103.546" type="curve" smooth="yes"/>
      <point x="34.2843" y="105.959"/>
      <point x="35.1326" y="108.997"/>
      <point x="37.546" y="110.356" type="curve" smooth="yes"/>
      <point x="39.9594" y="111.716"/>
      <point x="42.9969" y="110.867"/>
      <point x="44.3565" y="108.454" type="curve" smooth="yes"/>
      <point x="83.463" y="39.0401"/>
      <point x="157.755" y="-3.95586"/>
      <point x="237.92" y="-2" type="curve" smooth="yes"/>
      <point x="360.243" y="-0.0427999"/>
      <point x="458.023" y="97.7923"/>
      <point x="459" y="219.044" type="curve" smooth="yes"/>
      <point x="460.963" y="434.983"/>
      <point x="209.299" y="531.616"/>
      <point x="85.8163" y="385.77" type="curve" smooth="yes"/>
      <point x="72.0076" y="369.451"/>
      <point x="46.9652" y="371.369"/>
      <point x="35" y="387.252" type="curve"/>
      <point x="35" y="705" type="line"/>
    </contour>
  </outline>
</glyph>
<glyph name="six" format="2">
  <advance width="527"/>
  <unicode hex="0036"/>
  <outline>
    <contour>
      <point x="65.3184" y="416.756" type="curve" smooth="yes"/>
      <point x="66.291" y="419.349"/>
      <point x="69.162" y="420.654"/>
      <point x="71.7556" y="419.682" type="curve" smooth="yes"/>
      <point x="74.3492" y="418.709"/>
      <point x="75.6542" y="415.838"/>
      <point x="74.6816" y="413.244" type="curve" smooth="yes"/>
      <point x="68.7326" y="397.381"/>
      <point x="69.192" y="382.612"/>
      <point x="82.1289" y="376.524" type="curve" smooth="yes"/>
      <point x="97.7051" y="369.194"/>
      <point x="108.436" y="379.22"/>
      <point x="114.527" y="392.238" type="curve"/>
      <point x="207.105" y="566.362"/>
      <point x="489.977" y="448.006"/>
      <point x="491" y="226.04" type="curve" smooth="yes"/>
      <point x="492.021" y="98.3472"/>
      <point x="389.823" y="-6.09364"/>
      <point x="262.844" y="-1.99754" type="curve" smooth="yes"/>
      <point x="131.654" y="2.10215"/>
      <point x="35" y="119.819"/>
      <point x="35" y="254" type="curve" smooth="yes"/>
      <point x="35" y="486.575"/>
      <point x="211.953" y="681.719"/>
      <point x="443.5" y="704.975" type="curve" smooth="yes"/>
      <point x="446.256" y="705.252"/>
      <point x="448.698" y="703.256"/>
      <point x="448.975" y="700.5" type="curve" smooth="yes"/>
      <point x="449.252" y="697.744"/>
      <point x="447.256" y="695.302"/>
      <point x="444.5" y="695.025" type="curve" smooth="yes"/>
      <point x="218.047" y="672.281"/>
      <point x="45" y="481.425"/>
      <point x="45" y="254" type="curve" smooth="yes"/>
      <point x="45" y="124.181"/>
      <point x="138.346" y="11.8979"/>
      <point x="263.161" y="7.9974" type="curve" smooth="yes"/>
      <point x="384.177" y="4.09366"/>
      <point x="481.979" y="103.653"/>
      <point x="481" y="225.968" type="curve" smooth="yes"/>
      <point x="480.023" y="438.071"/>
      <point x="210.754" y="551.657"/>
      <point x="123.524" y="387.871" type="curve"/>
      <point x="114.883" y="369.508"/>
      <point x="98.3711" y="357.829"/>
      <point x="77.8709" y="367.476" type="curve" smooth="yes"/>
      <point x="56.8078" y="377.388"/>
      <point x="59.2672" y="400.619"/>
    </contour>
  </outline>
</glyph>
<glyph name="seven" format="2">
  <advance width="572"/>
  <unicode hex="0037"/>
  <outline>
    <contour>
      <point x="10.09" y="648.056" type="curve" smooth="yes"/>
      <point x="7.24126" y="662.869"/>
      <point x="12.4256" y="677.083"/>
      <point x="21.9757" y="686.673" type="curve" smooth="yes"/>
      <point x="31.4403" y="696.177"/>
      <point x="45.3486" y="701.282"/>
      <point x="60.03" y="697.892" type="curve"/>
      <point x="83.22" y="693.475"/>
      <point x="95.7699" y="669.811"/>
      <point x="107.194" y="651.723" type="curve" smooth="yes"/>
      <point x="192.222" y="520.759"/>
      <point x="382.778" y="520.759"/>
      <point x="467.789" y="651.696" type="curve" smooth="yes"/>
      <point x="479.407" y="670.09"/>
      <point x="490.915" y="693.518"/>
      <point x="514.876" y="697.872" type="curve"/>
      <point x="529.651" y="701.282"/>
      <point x="543.559" y="696.177"/>
      <point x="553.024" y="686.674" type="curve" smooth="yes"/>
      <point x="563.455" y="676.2"/>
      <point x="567.768" y="661.19"/>
      <point x="564.705" y="647.053" type="curve"/>
      <point x="137.175" y="-1.75115" type="line" smooth="yes"/>
      <point x="135.651" y="-4.06415"/>
      <point x="132.562" y="-4.69925"/>
      <point x="130.249" y="-3.17515" type="curve" smooth="yes"/>
      <point x="127.936" y="-1.65105"/>
      <point x="127.301" y="1.43805"/>
      <point x="128.825" y="3.75105" type="curve" smooth="yes"/>
      <point x="555.25" y="650.84" type="line"/>
      <point x="557.059" y="661.849"/>
      <point x="553.128" y="672.397"/>
      <point x="545.938" y="679.617" type="curve" smooth="yes"/>
      <point x="538.66" y="686.925"/>
      <point x="528.2" y="690.684"/>
      <point x="517.009" y="688.104" type="curve"/>
      <point x="496.991" y="684.465"/>
      <point x="488.564" y="665.863"/>
      <point x="476.194" y="646.277" type="curve" smooth="yes"/>
      <point x="387.222" y="509.241"/>
      <point x="187.778" y="509.241"/>
      <point x="98.7894" y="646.304" type="curve" smooth="yes"/>
      <point x="86.4765" y="665.799"/>
      <point x="76.8754" y="684.507"/>
      <point x="57.8756" y="688.128" type="curve"/>
      <point x="46.7996" y="690.684"/>
      <point x="36.339" y="686.925"/>
      <point x="29.0614" y="679.617" type="curve" smooth="yes"/>
      <point x="21.6775" y="672.202"/>
      <point x="17.7303" y="661.279"/>
      <point x="19.91" y="649.944" type="curve" smooth="yes"/>
      <point x="20.4331" y="647.224"/>
      <point x="18.6643" y="644.613"/>
      <point x="15.9441" y="644.09" type="curve" smooth="yes"/>
      <point x="13.2239" y="643.567"/>
      <point x="10.6129" y="645.336"/>
    </contour>
    <contour>
      <point x="103" y="335" type="line" smooth="yes"/>
      <point x="100.23" y="335"/>
      <point x="98" y="337.23"/>
      <point x="98" y="340" type="curve" smooth="yes"/>
      <point x="98" y="342.77"/>
      <point x="100.23" y="345"/>
      <point x="103" y="345" type="curve" smooth="yes"/>
      <point x="516" y="345" type="line" smooth="yes"/>
      <point x="518.77" y="345"/>
      <point x="521" y="342.77"/>
      <point x="521" y="340" type="curve" smooth="yes"/>
      <point x="521" y="337.23"/>
      <point x="518.77" y="335"/>
      <point x="516" y="335" type="curve" smooth="yes"/>
    </contour>
  </outline>
</glyph>
<glyph name="eight" format="2">
  <advance width="493"/>
  <unicode hex="0038"/>
  <outline>
    <contour>
      <point x="468.002" y="194.861" type="curve" smooth="yes"/>
      <point x="471.895" y="83.5659"/>
      <point x="366.152" y="1"/>
      <point x="247" y="1" type="curve" smooth="yes"/>
      <point x="126.89" y="1"/>
      <point x="23.0629" y="83.5456"/>
      <point x="25" y="194.881" type="curve" smooth="yes"/>
      <point x="27.9112" y="288.039"/>
      <point x="97.6124" y="359"/>
      <point x="193" y="359" type="curve" smooth="yes"/>
      <point x="211.531" y="359"/>
      <point x="227" y="375.114"/>
      <point x="227" y="393" type="curve" smooth="yes"/>
      <point x="227" y="410.783"/>
      <point x="211.725" y="426"/>
      <point x="193" y="426" type="curve" smooth="yes"/>
      <point x="121.312" y="426"/>
      <point x="63.5366" y="467.375"/>
      <point x="52.9454" y="535.736" type="curve" smooth="yes"/>
      <point x="39.5863" y="629.25"/>
      <point x="135.498" y="700"/>
      <point x="247" y="700" type="curve" smooth="yes"/>
      <point x="355.304" y="700"/>
      <point x="454.624" y="630.922"/>
      <point x="440.058" y="535.761" type="curve" smooth="yes"/>
      <point x="429.445" y="467.259"/>
      <point x="371.57" y="426"/>
      <point x="300" y="426" type="curve" smooth="yes"/>
      <point x="281.512" y="426"/>
      <point x="266" y="410.915"/>
      <point x="266" y="393" type="curve" smooth="yes"/>
      <point x="266" y="375.57"/>
      <point x="281.051" y="359"/>
      <point x="300" y="359" type="curve" smooth="yes"/>
      <point x="396.3" y="359"/>
      <point x="466.075" y="288.149"/>
    </contour>
    <contour>
      <point x="477.999" y="195.104" type="curve" smooth="yes"/>
      <point x="475.943" y="293.785"/>
      <point x="401.76" y="369"/>
      <point x="300" y="369" type="curve" smooth="yes"/>
      <point x="286.872" y="369"/>
      <point x="276" y="380.65"/>
      <point x="276" y="393" type="curve" smooth="yes"/>
      <point x="276" y="405.126"/>
      <point x="286.647" y="416"/>
      <point x="300" y="416" type="curve" smooth="yes"/>
      <point x="375.968" y="416"/>
      <point x="438.492" y="460.336"/>
      <point x="449.942" y="534.244" type="curve" smooth="yes"/>
      <point x="465.663" y="636.95"/>
      <point x="360.078" y="710"/>
      <point x="247" y="710" type="curve" smooth="yes"/>
      <point x="132.874" y="710"/>
      <point x="28.3874" y="636.933"/>
      <point x="43.0589" y="534.234" type="curve" smooth="yes"/>
      <point x="54.508" y="460.336"/>
      <point x="117.032" y="416"/>
      <point x="193" y="416" type="curve" smooth="yes"/>
      <point x="206.353" y="416"/>
      <point x="217" y="405.126"/>
      <point x="217" y="393" type="curve" smooth="yes"/>
      <point x="217" y="380.65"/>
      <point x="206.128" y="369"/>
      <point x="193" y="369" type="curve" smooth="yes"/>
      <point x="92.2998" y="369"/>
      <point x="18.0698" y="293.849"/>
      <point x="15.0014" y="195.122" type="curve" smooth="yes"/>
      <point x="12.9157" y="76.4526"/>
      <point x="123.118" y="-9"/>
      <point x="247" y="-9" type="curve" smooth="yes"/>
      <point x="369.811" y="-9"/>
      <point x="482.127" y="76.4233"/>
    </contour>
  </outline>
</glyph>
<glyph name="nine" format="2">
  <advance width="527"/>
  <unicode hex="0039"/>
  <outline>
    <contour>
      <point x="461.682" y="286.244" type="curve" smooth="yes"/>
      <point x="460.709" y="283.651"/>
      <point x="457.838" y="282.346"/>
      <point x="455.244" y="283.318" type="curve" smooth="yes"/>
      <point x="452.651" y="284.291"/>
      <point x="451.346" y="287.162"/>
      <point x="452.318" y="289.756" type="curve" smooth="yes"/>
      <point x="458.267" y="305.619"/>
      <point x="457.808" y="320.388"/>
      <point x="444.871" y="326.476" type="curve" smooth="yes"/>
      <point x="431.482" y="332.777"/>
      <point x="420.899" y="326.678"/>
      <point x="412.422" y="310.665" type="curve" smooth="yes"/>
      <point x="320.86" y="136.801"/>
      <point x="37.0232" y="254.985"/>
      <point x="36" y="476.96" type="curve" smooth="yes"/>
      <point x="34.9785" y="604.653"/>
      <point x="137.177" y="709.094"/>
      <point x="264.156" y="704.998" type="curve" smooth="yes"/>
      <point x="395.346" y="700.898"/>
      <point x="492" y="583.181"/>
      <point x="492" y="449" type="curve" smooth="yes"/>
      <point x="492" y="216.425"/>
      <point x="315.047" y="21.2809"/>
      <point x="83.4997" y="-1.97496" type="curve" smooth="yes"/>
      <point x="80.7436" y="-2.25176"/>
      <point x="78.3019" y="-0.255764"/>
      <point x="78.0251" y="2.50034" type="curve" smooth="yes"/>
      <point x="77.7483" y="5.25644"/>
      <point x="79.7443" y="7.69814"/>
      <point x="82.5004" y="7.97494" type="curve" smooth="yes"/>
      <point x="308.953" y="30.7191"/>
      <point x="482" y="221.575"/>
      <point x="482" y="449" type="curve" smooth="yes"/>
      <point x="482" y="578.819"/>
      <point x="388.654" y="691.102"/>
      <point x="263.839" y="695.003" type="curve" smooth="yes"/>
      <point x="142.823" y="698.906"/>
      <point x="45.0214" y="599.347"/>
      <point x="46" y="477.032" type="curve" smooth="yes"/>
      <point x="46.9774" y="264.94"/>
      <point x="317.207" y="151.326"/>
      <point x="403.581" y="315.339" type="curve" smooth="yes"/>
      <point x="413.101" y="333.322"/>
      <point x="428.518" y="345.223"/>
      <point x="449.129" y="335.524" type="curve" smooth="yes"/>
      <point x="470.192" y="325.612"/>
      <point x="467.733" y="302.381"/>
    </contour>
  </outline>
</glyph>
<glyph name="equal" format="2">
  <advance width="572"/>
  <unicode hex="003D"/>
  <outline>
    <contour>
      <point x="80" y="275" type="curve" smooth="yes"/>
      <point x="486" y="275" type="line" smooth="yes"/>
      <point x="488.77" y="275"/>
      <point x="491" y="272.77"/>
      <point x="491" y="270" type="curve" smooth="yes"/>
      <point x="491" y="267.23"/>
      <point x="488.77" y="265"/>
      <point x="486" y="265" type="curve" smooth="yes"/>
      <point x="80" y="265" type="line" smooth="yes"/>
      <point x="77.23" y="265"/>
      <point x="75" y="267.23"/>
      <point x="75" y="270" type="curve" smooth="yes"/>
      <point x="75" y="272.77"/>
      <point x="77.23" y="275"/>
    </contour>
    <contour>
      <point x="80" y="442" type="curve" smooth="yes"/>
      <point x="486" y="442" type="line" smooth="yes"/>
      <point x="488.77" y="442"/>
      <point x="491" y="439.77"/>
      <point x="491" y="437" type="curve" smooth="yes"/>
      <point x="491" y="434.23"/>
      <point x="488.77" y="432"/>
      <point x="486" y="432" type="curve" smooth="yes"/>
      <point x="80" y="432" type="line" smooth="yes"/>
      <point x="77.23" y="432"/>
      <point x="75" y="434.23"/>
      <point x="75" y="437" type="curve" smooth="yes"/>
      <point x="75" y="439.77"/>
      <point x="77.23" y="442"/>
    </contour>
  </outline>
</glyph>
<glyph name="question" format="2">
  <advance width="562"/>
  <unicode hex="003F"/>
  <outline>
    <contour>
      <point x="282" y="46" type="curve" smooth="yes"/>
      <point x="282" y="70.8067"/>
      <point x="292.767" y="91"/>
      <point x="311" y="91" type="curve" smooth="yes"/>
      <point x="328.166" y="91"/>
      <point x="339" y="70.9198"/>
      <point x="339" y="46" type="curve" smooth="yes"/>
      <point x="339" y="20.0138"/>
      <point x="328.128" y="0"/>
      <point x="311" y="0" type="curve" smooth="yes"/>
      <point x="292.806" y="0"/>
      <point x="282" y="20.1266"/>
    </contour>
    <contour>
      <point x="272" y="46" type="curve" smooth="yes"/>
      <point x="272" y="19.8734"/>
      <point x="283.194" y="-10"/>
      <point x="311" y="-10" type="curve" smooth="yes"/>
      <point x="337.872" y="-10"/>
      <point x="349" y="19.9862"/>
      <point x="349" y="46" type="curve" smooth="yes"/>
      <point x="349" y="71.0802"/>
      <point x="337.834" y="101"/>
      <point x="311" y="101" type="curve" smooth="yes"/>
      <point x="283.233" y="101"/>
      <point x="272" y="71.1933"/>
    </contour>
    <contour>
      <point x="348.24" y="225.65" type="curve" smooth="yes"/>
      <point x="346.772" y="227.999"/>
      <point x="343.699" y="228.708"/>
      <point x="341.35" y="227.24" type="curve" smooth="yes"/>
      <point x="339" y="225.772"/>
      <point x="338.291" y="222.699"/>
      <point x="339.759" y="220.35" type="curve" smooth="yes"/>
      <point x="352.382" y="200.153"/>
      <point x="335.957" y="173.485"/>
      <point x="311.646" y="176.958" type="curve" smooth="yes"/>
      <point x="292.55" y="179.449"/>
      <point x="281.999" y="199.758"/>
      <point x="281.999" y="223" type="curve" smooth="yes"/>
      <point x="281.999" y="232" type="line" smooth="yes"/>
      <point x="281.999" y="336.104"/>
      <point x="378.496" y="332.107"/>
      <point x="441.849" y="411.81" type="curve"/>
      <point x="471.641" y="447.766"/>
      <point x="484.999" y="489.914"/>
      <point x="484.999" y="532" type="curve" smooth="yes"/>
      <point x="484.999" y="648.083"/>
      <point x="407.397" y="723.077"/>
      <point x="276.858" y="718.998" type="curve" smooth="yes"/>
      <point x="169.094" y="715.948"/>
      <point x="74.999" y="658.559"/>
      <point x="74.999" y="526" type="curve" smooth="yes"/>
      <point x="74.999" y="474.95"/>
      <point x="106.832" y="380.877"/>
      <point x="214.145" y="384.002" type="curve" smooth="yes"/>
      <point x="216.913" y="384.083"/>
      <point x="219.077" y="386.377"/>
      <point x="218.997" y="389.146" type="curve" smooth="yes"/>
      <point x="218.916" y="391.914"/>
      <point x="216.622" y="394.078"/>
      <point x="213.853" y="393.998" type="curve" smooth="yes"/>
      <point x="115.166" y="391.123"/>
      <point x="85" y="477.05"/>
      <point x="85" y="526" type="curve" smooth="yes"/>
      <point x="85" y="651.441"/>
      <point x="172.905" y="706.052"/>
      <point x="277.156" y="709.002" type="curve" smooth="yes"/>
      <point x="402.602" y="712.923"/>
      <point x="475" y="641.917"/>
      <point x="475" y="532" type="curve" smooth="yes"/>
      <point x="475" y="492.086"/>
      <point x="462.358" y="452.234"/>
      <point x="434.118" y="418.151" type="curve"/>
      <point x="373.475" y="341.859"/>
      <point x="272" y="341.881"/>
      <point x="272" y="232" type="curve" smooth="yes"/>
      <point x="272" y="223" type="line" smooth="yes"/>
      <point x="272" y="198.241"/>
      <point x="283.449" y="170.551"/>
      <point x="310.323" y="167.046" type="curve" smooth="yes"/>
      <point x="342.745" y="162.414"/>
      <point x="365.365" y="198.25"/>
    </contour>
  </outline>
</glyph>
<glyph name="at" format="2">
  <advance width="909"/>
  <unicode hex="0040"/>
  <outline>
    <component base="o" xScale="0.8791" yScale="0.8791" xOffset="215.711" yOffset="60.3484"/>
    <contour>
      <point x="620.932" y="500.057" type="line" smooth="yes"/>
      <point x="620.932" y="502.827"/>
      <point x="623.162" y="505.057"/>
      <point x="625.932" y="505.057" type="curve" smooth="yes"/>
      <point x="628.702" y="505.057"/>
      <point x="630.932" y="502.827"/>
      <point x="630.932" y="500.057" type="curve" smooth="yes"/>
      <point x="630.932" y="111.52" type="line"/>
      <point x="631.04" y="83.972"/>
      <point x="644.932" y="50.3282"/>
      <point x="679.351" y="50.3282" type="curve" smooth="yes"/>
      <point x="749.351" y="50.3282"/>
      <point x="809.894" y="163.718"/>
      <point x="808.732" y="301.672" type="curve" smooth="yes"/>
      <point x="806.791" y="532.096"/>
      <point x="656.366" y="663.458"/>
      <point x="462.854" y="663.458" type="curve" smooth="yes"/>
      <point x="268.643" y="663.458"/>
      <point x="100.479" y="523.288"/>
      <point x="100.479" y="285.396" type="curve" smooth="yes"/>
      <point x="100.479" y="50.0937"/>
      <point x="253.169" y="-99.1301"/>
      <point x="435.954" y="-99.1301" type="curve" smooth="yes"/>
      <point x="455.137" y="-99.1301"/>
      <point x="478.393" y="-97.4229"/>
      <point x="502.558" y="-93.1129" type="curve" smooth="yes"/>
      <point x="505.285" y="-92.6265"/>
      <point x="507.872" y="-94.4303"/>
      <point x="508.359" y="-97.1573" type="curve" smooth="yes"/>
      <point x="508.845" y="-99.8843"/>
      <point x="507.041" y="-102.471"/>
      <point x="504.314" y="-102.958" type="curve" smooth="yes"/>
      <point x="479.54" y="-107.376"/>
      <point x="455.694" y="-109.13"/>
      <point x="435.954" y="-109.13" type="curve" smooth="yes"/>
      <point x="246.822" y="-109.13"/>
      <point x="90.4787" y="45.4336"/>
      <point x="90.4787" y="285.396" type="curve" smooth="yes"/>
      <point x="90.4787" y="529.032"/>
      <point x="263.343" y="673.458"/>
      <point x="462.854" y="673.458" type="curve" smooth="yes"/>
      <point x="661.876" y="673.458"/>
      <point x="816.745" y="537.651"/>
      <point x="818.732" y="301.756" type="curve" smooth="yes"/>
      <point x="819.943" y="157.891"/>
      <point x="755.944" y="40.3282"/>
      <point x="679.351" y="40.3282" type="curve" smooth="yes"/>
      <point x="635.908" y="40.3282"/>
      <point x="621.045" y="82.7773"/>
      <point x="620.932" y="111.491" type="curve"/>
    </contour>
  </outline>
</glyph>
<glyph name="A" format="2">
  <advance width="592"/>
  <unicode hex="0041"/>
  <outline>
    <contour>
      <point x="35.333" y="-3.5584" type="curve" smooth="yes"/>
      <point x="33.9387" y="-5.9287"/>
      <point x="30.8586" y="-6.7273"/>
      <point x="28.4883" y="-5.333" type="curve" smooth="yes"/>
      <point x="26.118" y="-3.9387"/>
      <point x="25.3194" y="-0.858601"/>
      <point x="26.7137" y="1.5117" type="curve" smooth="yes"/>
      <point x="36.8734" y="18.7833"/>
      <point x="45.9396" y="35.9229"/>
      <point x="52.9885" y="54.0487" type="curve"/>
      <point x="111.002" y="194.504"/>
      <point x="79.0824" y="351.591"/>
      <point x="105.919" y="503.322" type="curve" smooth="yes"/>
      <point x="125.413" y="612.08"/>
      <point x="183.531" y="719.263"/>
      <point x="296.058" y="719.263" type="curve" smooth="yes"/>
      <point x="408.569" y="719.263"/>
      <point x="467.723" y="612.117"/>
      <point x="486.202" y="503.294" type="curve" smooth="yes"/>
      <point x="512.795" y="352.942"/>
      <point x="482.329" y="194.016"/>
      <point x="539.134" y="54.0343" type="curve" smooth="yes"/>
      <point x="546.246" y="35.7451"/>
      <point x="555.34" y="18.6178"/>
      <point x="565.403" y="1.51169" type="curve" smooth="yes"/>
      <point x="566.797" y="-0.858609"/>
      <point x="565.998" y="-3.93871"/>
      <point x="563.628" y="-5.33301" type="curve" smooth="yes"/>
      <point x="561.258" y="-6.72731"/>
      <point x="558.178" y="-5.92871"/>
      <point x="556.783" y="-3.55841" type="curve" smooth="yes"/>
      <point x="546.477" y="13.9621"/>
      <point x="537.123" y="31.616"/>
      <point x="529.841" y="50.3421" type="curve" smooth="yes"/>
      <point x="472.033" y="192.797"/>
      <point x="502.969" y="351.079"/>
      <point x="476.346" y="501.603" type="curve" smooth="yes"/>
      <point x="457.989" y="609.703"/>
      <point x="400.487" y="709.263"/>
      <point x="296.058" y="709.263" type="curve" smooth="yes"/>
      <point x="191.645" y="709.263"/>
      <point x="135.153" y="609.74"/>
      <point x="115.764" y="501.564" type="curve" smooth="yes"/>
      <point x="89.3875" y="352.439"/>
      <point x="120.912" y="192.304"/>
      <point x="62.2698" y="50.3278" type="curve"/>
      <point x="55.0912" y="31.8684"/>
      <point x="45.8462" y="14.3139"/>
    </contour>
    <contour>
      <point x="57.6291" y="289.477" type="curve" smooth="yes"/>
      <point x="534.487" y="289.477" type="line" smooth="yes"/>
      <point x="537.237" y="289.477"/>
      <point x="539.487" y="287.227"/>
      <point x="539.487" y="284.477" type="curve" smooth="yes"/>
      <point x="539.487" y="281.727"/>
      <point x="537.237" y="279.477"/>
      <point x="534.487" y="279.477" type="curve" smooth="yes"/>
      <point x="57.6291" y="279.477" type="line" smooth="yes"/>
      <point x="54.8791" y="279.477"/>
      <point x="52.6291" y="281.727"/>
      <point x="52.6291" y="284.477" type="curve" smooth="yes"/>
      <point x="52.6291" y="287.227"/>
      <point x="54.8791" y="289.477"/>
    </contour>
  </outline>
</glyph>
<glyph name="B" format="2">
  <advance width="559"/>
  <unicode hex="0042"/>
  <outline>
    <contour>
      <point x="43.4196" y="460.363" type="curve" smooth="yes"/>
      <point x="5.48437" y="617.523"/>
      <point x="135.791" y="725.256"/>
      <point x="264.76" y="725.256" type="curve" smooth="yes"/>
      <point x="339.351" y="725.256"/>
      <point x="412.947" y="689.488"/>
      <point x="456.121" y="606.378" type="curve" smooth="yes"/>
      <point x="538.144" y="444.49"/>
      <point x="397.2" y="292.802"/>
      <point x="249.876" y="294.969" type="curve" smooth="yes"/>
      <point x="195.717" y="296.052"/>
      <point x="141.637" y="317.751"/>
      <point x="96.3687" y="366.252" type="curve" smooth="yes"/>
      <point x="95.8623" y="366.795"/>
      <point x="95.024" y="368.922"/>
      <point x="95.024" y="369.664" type="curve" smooth="yes"/>
      <point x="95.024" y="372.832" type="line" smooth="yes"/>
      <point x="95.024" y="373.508"/>
      <point x="95.8051" y="375.599"/>
      <point x="96.2479" y="376.109" type="curve" smooth="yes"/>
      <point x="145.817" y="433.222"/>
      <point x="209.498" y="458.065"/>
      <point x="272.077" y="459.143" type="curve" smooth="yes"/>
      <point x="416.036" y="461.292"/>
      <point x="557.586" y="335.56"/>
      <point x="528.407" y="173.454" type="curve" smooth="yes"/>
      <point x="507.662" y="53.1318"/>
      <point x="402.916" y="-25"/>
      <point x="294.328" y="-25" type="curve" smooth="yes"/>
      <point x="193.326" y="-25"/>
      <point x="79.8989" y="39.0553"/>
      <point x="43.4636" y="169.794" type="curve" smooth="yes"/>
      <point x="42.72" y="172.462"/>
      <point x="44.2695" y="175.209"/>
      <point x="46.9378" y="175.952" type="curve" smooth="yes"/>
      <point x="49.6061" y="176.696"/>
      <point x="52.3529" y="175.147"/>
      <point x="53.0965" y="172.478" type="curve" smooth="yes"/>
      <point x="88.1882" y="46.5606"/>
      <point x="197.274" y="-15"/>
      <point x="294.328" y="-15" type="curve" smooth="yes"/>
      <point x="398.219" y="-15"/>
      <point x="498.662" y="59.7864"/>
      <point x="518.556" y="175.172" type="curve" smooth="yes"/>
      <point x="546.458" y="330.185"/>
      <point x="410.783" y="451.213"/>
      <point x="272.232" y="449.145" type="curve" smooth="yes"/>
      <point x="183.535" y="447.615"/>
      <point x="128.718" y="398.241"/>
      <point x="105.347" y="371.313" type="curve"/>
      <point x="117.052" y="358.772"/>
      <point x="174.82" y="306.472"/>
      <point x="250.063" y="304.967" type="curve" smooth="yes"/>
      <point x="389.984" y="302.91"/>
      <point x="525.712" y="446.902"/>
      <point x="447.223" y="601.814" type="curve" smooth="yes"/>
      <point x="405.886" y="681.389"/>
      <point x="335.812" y="715.256"/>
      <point x="264.76" y="715.256" type="curve" smooth="yes"/>
      <point x="141.304" y="715.256"/>
      <point x="16.9231" y="612.752"/>
      <point x="53.1404" y="462.709" type="curve" smooth="yes"/>
      <point x="53.7904" y="460.016"/>
      <point x="52.1459" y="457.325"/>
      <point x="49.4532" y="456.675" type="curve" smooth="yes"/>
      <point x="46.7605" y="456.025"/>
      <point x="44.0695" y="457.67"/>
    </contour>
    <contour>
      <point x="39.4326" y="45.2638" type="curve" smooth="yes"/>
      <point x="40.4873" y="47.8252"/>
      <point x="43.3984" y="49.0382"/>
      <point x="45.9598" y="47.9835" type="curve" smooth="yes"/>
      <point x="48.5212" y="46.9288"/>
      <point x="49.7342" y="44.0177"/>
      <point x="48.6795" y="41.4563" type="curve" smooth="yes"/>
      <point x="45.4462" y="33.604"/>
      <point x="47.7212" y="23.2411"/>
      <point x="54.0844" y="15.3184" type="curve" smooth="yes"/>
      <point x="59.0884" y="9.08797"/>
      <point x="66.0934" y="5.064"/>
      <point x="73.624" y="5.064" type="curve" smooth="yes"/>
      <point x="80.6317" y="5.064"/>
      <point x="87.1835" y="9.04157"/>
      <point x="91.743" y="15.3075" type="curve" smooth="yes"/>
      <point x="97.4317" y="23.1253"/>
      <point x="99.2055" y="33.3568"/>
      <point x="95.5" y="41.231" type="curve"/>
      <point x="95.3882" y="41.4687"/>
      <point x="95.0241" y="43.0974"/>
      <point x="95.0241" y="43.3601" type="curve"/>
      <point x="95.0241" y="651.616" type="line" smooth="yes"/>
      <point x="95.0241" y="654.386"/>
      <point x="97.2541" y="656.616"/>
      <point x="100.024" y="656.616" type="curve" smooth="yes"/>
      <point x="102.794" y="656.616"/>
      <point x="105.024" y="654.386"/>
      <point x="105.024" y="651.616" type="curve" smooth="yes"/>
      <point x="105.08" y="44.2893" type="line"/>
      <point x="109.96" y="32.5966"/>
      <point x="106.873" y="19.1044"/>
      <point x="99.8289" y="9.42385" type="curve" smooth="yes"/>
      <point x="93.8781" y="1.24592"/>
      <point x="84.5815" y="-4.9359"/>
      <point x="73.624" y="-4.9359" type="curve" smooth="yes"/>
      <point x="62.4" y="-4.9359"/>
      <point x="52.7321" y="1.03269"/>
      <point x="46.2877" y="9.05659" type="curve" smooth="yes"/>
      <point x="38.3147" y="18.9837"/>
      <point x="34.4461" y="33.1536"/>
    </contour>
  </outline>
</glyph>
<glyph name="C" format="2">
  <advance width="559"/>
  <unicode hex="0043"/>
  <outline>
    <contour>
      <point x="522.422" y="608.297" type="curve" smooth="yes"/>
      <point x="524.048" y="606.054"/>
      <point x="523.551" y="602.94"/>
      <point x="521.309" y="601.314" type="curve" smooth="yes"/>
      <point x="519.066" y="599.688"/>
      <point x="515.952" y="600.185"/>
      <point x="514.326" y="602.427" type="curve" smooth="yes"/>
      <point x="465.521" y="669.749"/>
      <point x="397.157" y="712.84"/>
      <point x="313.161" y="712.84" type="curve" smooth="yes"/>
      <point x="146.454" y="712.84"/>
      <point x="36.1198" y="540.089"/>
      <point x="36.1198" y="350.971" type="curve" smooth="yes"/>
      <point x="36.1198" y="160.793"/>
      <point x="146.462" y="-11.9488"/>
      <point x="313.161" y="-11.9488" type="curve" smooth="yes"/>
      <point x="397.157" y="-11.9488"/>
      <point x="465.521" y="31.1422"/>
      <point x="514.326" y="98.4643" type="curve" smooth="yes"/>
      <point x="515.952" y="100.707"/>
      <point x="519.066" y="101.204"/>
      <point x="521.309" y="99.5778" type="curve" smooth="yes"/>
      <point x="523.551" y="97.952"/>
      <point x="524.048" y="94.8376"/>
      <point x="522.422" y="92.5949" type="curve" smooth="yes"/>
      <point x="472.159" y="23.2609"/>
      <point x="401.019" y="-21.9488"/>
      <point x="313.161" y="-21.9488" type="curve" smooth="yes"/>
      <point x="138.176" y="-21.9488"/>
      <point x="26.1199" y="158.513"/>
      <point x="26.1199" y="350.971" type="curve" smooth="yes"/>
      <point x="26.1199" y="542.387"/>
      <point x="138.184" y="722.84"/>
      <point x="313.161" y="722.84" type="curve" smooth="yes"/>
      <point x="401.019" y="722.84"/>
      <point x="472.159" y="677.631"/>
    </contour>
  </outline>
</glyph>
<glyph name="D" format="2">
  <advance width="626"/>
  <unicode hex="0044"/>
  <outline>
    <contour>
      <point x="45.4043" y="44.9696" type="curve" smooth="yes"/>
      <point x="46.4955" y="47.5156"/>
      <point x="49.4236" y="48.6869"/>
      <point x="51.9696" y="47.5957" type="curve" smooth="yes"/>
      <point x="54.5156" y="46.5045"/>
      <point x="55.6869" y="43.5764"/>
      <point x="54.5957" y="41.0304" type="curve" smooth="yes"/>
      <point x="50.7847" y="32.1381"/>
      <point x="51.8292" y="22.9597"/>
      <point x="56.1078" y="15.9879" type="curve" smooth="yes"/>
      <point x="60.4538" y="8.9064"/>
      <point x="68.188" y="4"/>
      <point x="78" y="4" type="curve" smooth="yes"/>
      <point x="87.3314" y="4"/>
      <point x="95.1729" y="8.94491"/>
      <point x="99.665" y="16.2194" type="curve" smooth="yes"/>
      <point x="103.989" y="23.2217"/>
      <point x="105.147" y="32.2984"/>
      <point x="101.404" y="41.0304" type="curve"/>
      <point x="101.316" y="41.2355"/>
      <point x="101" y="42.7769"/>
      <point x="101" y="43" type="curve"/>
      <point x="101" y="690" type="line" smooth="yes"/>
      <point x="101" y="692.77"/>
      <point x="103.23" y="695"/>
      <point x="106" y="695" type="curve" smooth="yes"/>
      <point x="108.77" y="695"/>
      <point x="111" y="692.77"/>
      <point x="111" y="690" type="curve" smooth="yes"/>
      <point x="111.041" y="43.8864" type="line"/>
      <point x="115.589" y="32.3282"/>
      <point x="113.935" y="20.296"/>
      <point x="108.174" y="10.9654" type="curve" smooth="yes"/>
      <point x="102.01" y="0.984461"/>
      <point x="91.0756" y="-6"/>
      <point x="78" y="-6" type="curve" smooth="yes"/>
      <point x="64.586" y="-6"/>
      <point x="53.6831" y="0.820652"/>
      <point x="47.585" y="10.7573" type="curve" smooth="yes"/>
      <point x="41.6227" y="20.4725"/>
      <point x="40.3036" y="33.0682"/>
    </contour>
    <contour>
      <point x="44.1357" y="401.843" type="curve" smooth="yes"/>
      <point x="4.33986" y="569.19"/>
      <point x="132.985" y="724"/>
      <point x="308" y="724" type="curve" smooth="yes"/>
      <point x="487.054" y="724"/>
      <point x="597.987" y="545.261"/>
      <point x="600" y="359.053" type="curve" smooth="yes"/>
      <point x="602.015" y="169.654"/>
      <point x="525.241" y="29.9156"/>
      <point x="360.213" y="-11.8507" type="curve" smooth="yes"/>
      <point x="270.86" y="-34.1889"/>
      <point x="158.943" y="-9.01355"/>
      <point x="102.465" y="47.4645" type="curve" smooth="yes"/>
      <point x="100.506" y="49.4232"/>
      <point x="100.506" y="52.5769"/>
      <point x="102.465" y="54.5356" type="curve" smooth="yes"/>
      <point x="104.423" y="56.4943"/>
      <point x="107.577" y="56.4943"/>
      <point x="109.536" y="54.5356" type="curve" smooth="yes"/>
      <point x="163.058" y="1.01358"/>
      <point x="271.14" y="-23.811"/>
      <point x="357.774" y="-2.1528" type="curve" smooth="yes"/>
      <point x="516.76" y="38.0844"/>
      <point x="591.986" y="172.346"/>
      <point x="590" y="358.946" type="curve" smooth="yes"/>
      <point x="588.013" y="542.739"/>
      <point x="478.946" y="714"/>
      <point x="308" y="714" type="curve" smooth="yes"/>
      <point x="139.015" y="714"/>
      <point x="15.6601" y="564.81"/>
      <point x="53.8643" y="404.157" type="curve" smooth="yes"/>
      <point x="54.5051" y="401.462"/>
      <point x="52.8515" y="398.777"/>
      <point x="50.1567" y="398.136" type="curve" smooth="yes"/>
      <point x="47.4619" y="397.495"/>
      <point x="44.7765" y="399.149"/>
    </contour>
  </outline>
</glyph>
<glyph name="E" format="2">
  <advance width="604"/>
  <unicode hex="0045"/>
  <outline>
    <contour>
      <point x="540.208" y="713.37" type="curve" smooth="yes"/>
      <point x="512.363" y="596.641"/>
      <point x="372.015" y="549.498"/>
      <point x="280.956" y="626.632" type="curve" smooth="yes"/>
      <point x="242.504" y="658.674"/>
      <point x="221.245" y="709.53"/>
      <point x="172.079" y="709.53" type="curve" smooth="yes"/>
      <point x="115.872" y="709.53"/>
      <point x="89.9213" y="643.668"/>
      <point x="94.0389" y="575.727" type="curve" smooth="yes"/>
      <point x="102.32" y="410.113"/>
      <point x="188.714" y="249.856"/>
      <point x="148.936" y="86.5538" type="curve"/>
      <point x="141.522" y="52.6613"/>
      <point x="124.149" y="17.8427"/>
      <point x="89.8377" y="12.1243" type="curve" smooth="yes"/>
      <point x="59.8518" y="7.51107"/>
      <point x="31.476" y="28.0571"/>
      <point x="28.0356" y="59.0205" type="curve" smooth="yes"/>
      <point x="14.1534" y="167.104"/>
      <point x="141.771" y="141.256"/>
      <point x="308.745" y="29.5223" type="curve" smooth="yes"/>
      <point x="396.325" y="-28.8648"/>
      <point x="522.374" y="11.4201"/>
      <point x="557.615" y="111.101" type="curve" smooth="yes"/>
      <point x="558.538" y="113.712"/>
      <point x="561.384" y="115.071"/>
      <point x="563.996" y="114.148" type="curve" smooth="yes"/>
      <point x="566.607" y="113.225"/>
      <point x="567.966" y="110.379"/>
      <point x="567.043" y="107.767" type="curve" smooth="yes"/>
      <point x="529.604" y="1.87103"/>
      <point x="396.14" y="-40.7597"/>
      <point x="303.191" y="21.2066" type="curve" smooth="yes"/>
      <point x="266.757" y="45.5871"/>
      <point x="19.8517" y="201.229"/>
      <point x="37.9695" y="60.1673" type="curve" smooth="yes"/>
      <point x="40.7562" y="35.0872"/>
      <point x="63.9942" y="18.2658"/>
      <point x="88.2247" y="21.9932" type="curve" smooth="yes"/>
      <point x="115.992" y="26.621"/>
      <point x="131.946" y="55.6791"/>
      <point x="139.197" y="88.8218" type="curve"/>
      <point x="178.269" y="249.223"/>
      <point x="92.3811" y="408.64"/>
      <point x="84.0558" y="575.149" type="curve" smooth="yes"/>
      <point x="79.9083" y="643.583"/>
      <point x="106.724" y="719.53"/>
      <point x="172.079" y="719.53" type="curve" smooth="yes"/>
      <point x="225.472" y="719.53"/>
      <point x="253.264" y="662.725"/>
      <point x="287.404" y="634.275" type="curve" smooth="yes"/>
      <point x="372.718" y="562.009"/>
      <point x="504.34" y="606.105"/>
      <point x="530.481" y="715.69" type="curve" smooth="yes"/>
      <point x="531.123" y="718.385"/>
      <point x="533.81" y="720.036"/>
      <point x="536.504" y="719.394" type="curve" smooth="yes"/>
      <point x="539.199" y="718.751"/>
      <point x="540.85" y="716.064"/>
    </contour>
    <contour>
      <point x="77.6297" y="371.175" type="line" smooth="yes"/>
      <point x="74.8597" y="371.175"/>
      <point x="72.6297" y="373.405"/>
      <point x="72.6297" y="376.175" type="curve" smooth="yes"/>
      <point x="72.6297" y="378.945"/>
      <point x="74.8597" y="381.175"/>
      <point x="77.6297" y="381.175" type="curve" smooth="yes"/>
      <point x="446.084" y="381.175" type="line" smooth="yes"/>
      <point x="448.854" y="381.175"/>
      <point x="451.084" y="378.945"/>
      <point x="451.084" y="376.175" type="curve" smooth="yes"/>
      <point x="451.084" y="373.405"/>
      <point x="448.854" y="371.175"/>
      <point x="446.084" y="371.175" type="curve" smooth="yes"/>
    </contour>
  </outline>
</glyph>
<glyph name="F" format="2">
  <advance width="555"/>
  <unicode hex="0046"/>
  <outline>
    <contour>
      <point x="113.715" y="46.6381" type="curve" smooth="yes"/>
      <point x="115.173" y="48.9933"/>
      <point x="118.243" y="49.7155"/>
      <point x="120.598" y="48.2574" type="curve" smooth="yes"/>
      <point x="122.953" y="46.7993"/>
      <point x="123.675" y="43.7294"/>
      <point x="122.217" y="41.3742" type="curve" smooth="yes"/>
      <point x="115.945" y="31.2426"/>
      <point x="117.911" y="20.424"/>
      <point x="123.796" y="13.4508" type="curve" smooth="yes"/>
      <point x="128.622" y="7.73326"/>
      <point x="136.17" y="4.45886"/>
      <point x="144.758" y="5.95236" type="curve" smooth="yes"/>
      <point x="161.796" y="8.79196"/>
      <point x="167.752" y="29.9927"/>
      <point x="169.291" y="44.6136" type="curve"/>
      <point x="194.693" y="226.497"/>
      <point x="34.9946" y="385.388"/>
      <point x="55.6854" y="571.606" type="curve" smooth="yes"/>
      <point x="65.2201" y="658.477"/>
      <point x="126.077" y="734.201"/>
      <point x="203.881" y="718.214" type="curve" smooth="yes"/>
      <point x="254.225" y="708.573"/>
      <point x="284.003" y="657.505"/>
      <point x="319.422" y="631.406" type="curve"/>
      <point x="409.73" y="567.894"/>
      <point x="534.849" y="609.56"/>
      <point x="568.618" y="714.837" type="curve" smooth="yes"/>
      <point x="569.464" y="717.475"/>
      <point x="572.268" y="718.917"/>
      <point x="574.906" y="718.071" type="curve" smooth="yes"/>
      <point x="577.544" y="717.225"/>
      <point x="578.986" y="714.42"/>
      <point x="578.14" y="711.783" type="curve" smooth="yes"/>
      <point x="542.31" y="600.078"/>
      <point x="409.506" y="555.825"/>
      <point x="313.539" y="623.319" type="curve"/>
      <point x="273.319" y="652.954"/>
      <point x="250.587" y="699.089"/>
      <point x="201.901" y="708.412" type="curve" smooth="yes"/>
      <point x="131.773" y="722.822"/>
      <point x="74.7397" y="653.555"/>
      <point x="65.6248" y="570.508" type="curve" smooth="yes"/>
      <point x="45.3767" y="388.275"/>
      <point x="204.985" y="227.912"/>
      <point x="179.225" y="43.4827" type="curve"/>
      <point x="177.164" y="23.9048"/>
      <point x="168.573" y="-0.216425"/>
      <point x="146.453" y="-3.9026" type="curve" smooth="yes"/>
      <point x="134.113" y="-6.0487"/>
      <point x="123.105" y="-1.23441"/>
      <point x="116.154" y="7.00118" type="curve" smooth="yes"/>
      <point x="107.507" y="17.2467"/>
      <point x="105.138" y="32.7843"/>
    </contour>
    <contour>
      <point x="40.1872" y="394.915" type="curve" smooth="yes"/>
      <point x="412.705" y="394.915" type="line" smooth="yes"/>
      <point x="415.475" y="394.915"/>
      <point x="417.705" y="392.685"/>
      <point x="417.705" y="389.915" type="curve" smooth="yes"/>
      <point x="417.705" y="387.145"/>
      <point x="415.475" y="384.915"/>
      <point x="412.705" y="384.915" type="curve" smooth="yes"/>
      <point x="40.1872" y="384.915" type="line" smooth="yes"/>
      <point x="37.4172" y="384.915"/>
      <point x="35.1872" y="387.145"/>
      <point x="35.1872" y="389.915" type="curve" smooth="yes"/>
      <point x="35.1872" y="392.685"/>
      <point x="37.4172" y="394.915"/>
    </contour>
  </outline>
</glyph>
<glyph name="G" format="2">
  <advance width="618"/>
  <unicode hex="0047"/>
  <outline>
    <contour>
      <point x="573.471" y="572.826" type="curve" smooth="yes"/>
      <point x="574.711" y="570.349"/>
      <point x="573.716" y="567.356"/>
      <point x="571.239" y="566.116" type="curve" smooth="yes"/>
      <point x="568.762" y="564.876"/>
      <point x="565.769" y="565.871"/>
      <point x="564.529" y="568.348" type="curve" smooth="yes"/>
      <point x="512.422" y="672.405"/>
      <point x="406.448" y="729.338"/>
      <point x="299.761" y="712.763" type="curve" smooth="yes"/>
      <point x="145.016" y="688.922"/>
      <point x="39.9669" y="528.817"/>
      <point x="35.9988" y="349.275" type="curve" smooth="yes"/>
      <point x="32.0275" y="163.284"/>
      <point x="141.134" y="-4.62534"/>
      <point x="299.287" y="-12.8915" type="curve" smooth="yes"/>
      <point x="425.454" y="-20.1377"/>
      <point x="547.55" y="81.5091"/>
      <point x="577.116" y="218.152" type="curve" smooth="yes"/>
      <point x="595.153" y="299.538"/>
      <point x="561.307" y="374.017"/>
      <point x="501" y="374.017" type="curve" smooth="yes"/>
      <point x="446.403" y="374.017"/>
      <point x="434.39" y="303.608"/>
      <point x="397.246" y="244.076" type="curve" smooth="yes"/>
      <point x="352.748" y="172.31"/>
      <point x="243.988" y="220.091"/>
      <point x="227.096" y="305.011" type="curve" smooth="yes"/>
      <point x="226.556" y="307.728"/>
      <point x="228.308" y="310.35"/>
      <point x="231.025" y="310.891" type="curve" smooth="yes"/>
      <point x="233.741" y="311.431"/>
      <point x="236.364" y="309.679"/>
      <point x="236.904" y="306.962" type="curve" smooth="yes"/>
      <point x="252.006" y="231.037"/>
      <point x="349.251" y="185.646"/>
      <point x="388.754" y="249.358" type="curve" smooth="yes"/>
      <point x="423.048" y="304.32"/>
      <point x="439.888" y="384.017"/>
      <point x="501" y="384.017" type="curve" smooth="yes"/>
      <point x="567.853" y="384.017"/>
      <point x="606.475" y="304.408"/>
      <point x="586.887" y="216.025" type="curve" smooth="yes"/>
      <point x="556.45" y="75.3531"/>
      <point x="430.546" y="-30.4465"/>
      <point x="298.739" y="-22.8765" type="curve" smooth="yes"/>
      <point x="132.866" y="-14.2069"/>
      <point x="21.9724" y="160.806"/>
      <point x="26.0012" y="349.492" type="curve" smooth="yes"/>
      <point x="30.033" y="531.918"/>
      <point x="136.984" y="697.802"/>
      <point x="298.232" y="722.646" type="curve" smooth="yes"/>
      <point x="409.552" y="739.94"/>
      <point x="519.578" y="680.449"/>
    </contour>
  </outline>
</glyph>
<glyph name="H" format="2">
  <advance width="594"/>
  <unicode hex="0048"/>
  <outline>
    <contour>
      <point x="42.8078" y="46.7249" type="curve" smooth="yes"/>
      <point x="44.3174" y="49.0474"/>
      <point x="47.4025" y="49.7018"/>
      <point x="49.725" y="48.1922" type="curve" smooth="yes"/>
      <point x="52.0475" y="46.6826"/>
      <point x="52.7019" y="43.5975"/>
      <point x="51.1923" y="41.275" type="curve" smooth="yes"/>
      <point x="45.2236" y="32.0924"/>
      <point x="46.947" y="21.387"/>
      <point x="53.2105" y="14.2521" type="curve" smooth="yes"/>
      <point x="58.037" y="8.75411"/>
      <point x="65.4953" y="5.48481"/>
      <point x="73.9154" y="6.88091" type="curve"/>
      <point x="88.4025" y="10.1003"/>
      <point x="95.0405" y="25.6484"/>
      <point x="98.0456" y="44.6734" type="curve"/>
      <point x="103.068" y="81.6264"/>
      <point x="100.777" y="118.443"/>
      <point x="95.7636" y="155.474" type="curve" smooth="yes"/>
      <point x="87.1031" y="219.443"/>
      <point x="70" y="285.174"/>
      <point x="70" y="351" type="curve" smooth="yes"/>
      <point x="70" y="410.159"/>
      <point x="83.4188" y="468.022"/>
      <point x="92.4459" y="524.475" type="curve" smooth="yes"/>
      <point x="99.5542" y="568.928"/>
      <point x="104.082" y="612.918"/>
      <point x="98.0612" y="657.22" type="curve"/>
      <point x="94.9953" y="676.637"/>
      <point x="88.3139" y="692.712"/>
      <point x="74.178" y="695.068" type="curve" smooth="yes"/>
      <point x="65.8121" y="696.462"/>
      <point x="58.5934" y="693.479"/>
      <point x="53.7629" y="688.355" type="curve" smooth="yes"/>
      <point x="47.0513" y="681.236"/>
      <point x="45.0542" y="670.168"/>
      <point x="51.1922" y="660.725" type="curve" smooth="yes"/>
      <point x="52.7018" y="658.403"/>
      <point x="52.0474" y="655.317"/>
      <point x="49.7249" y="653.808" type="curve" smooth="yes"/>
      <point x="47.4024" y="652.298"/>
      <point x="44.3173" y="652.953"/>
      <point x="42.8077" y="655.275" type="curve" smooth="yes"/>
      <point x="33.8927" y="668.991"/>
      <point x="36.9544" y="685.104"/>
      <point x="46.4865" y="695.215" type="curve" smooth="yes"/>
      <point x="53.4687" y="702.621"/>
      <point x="63.978" y="706.906"/>
      <point x="75.8219" y="704.932" type="curve" smooth="yes"/>
      <point x="97.686" y="701.288"/>
      <point x="105.005" y="677.363"/>
      <point x="107.954" y="658.674" type="curve"/>
      <point x="114.192" y="612.779"/>
      <point x="109.472" y="567.62"/>
      <point x="102.32" y="522.896" type="curve" smooth="yes"/>
      <point x="93.1474" y="465.531"/>
      <point x="80" y="409.109"/>
      <point x="80" y="351" type="curve" smooth="yes"/>
      <point x="80" y="285.992"/>
      <point x="96.78" y="222.503"/>
      <point x="105.673" y="156.816" type="curve" smooth="yes"/>
      <point x="110.745" y="119.357"/>
      <point x="113.148" y="81.5399"/>
      <point x="107.939" y="43.2202" type="curve"/>
      <point x="104.96" y="24.3516"/>
      <point x="97.5975" y="1.8997"/>
      <point x="75.822" y="-2.93196" type="curve"/>
      <point x="63.5136" y="-4.98336"/>
      <point x="52.6581" y="-0.2764"/>
      <point x="45.6955" y="7.65489" type="curve" smooth="yes"/>
      <point x="36.7903" y="17.799"/>
      <point x="34.1467" y="33.4002"/>
    </contour>
    <contour>
      <point x="553.192" y="46.7249" type="curve" smooth="yes"/>
      <point x="561.659" y="33.6993"/>
      <point x="559.323" y="18.4878"/>
      <point x="550.888" y="8.33842" type="curve" smooth="yes"/>
      <point x="543.959" y="0"/>
      <point x="532.842" y="-5.04292"/>
      <point x="519.915" y="-2.88122" type="curve"/>
      <point x="498.402" y="1.89941"/>
      <point x="491.04" y="24.3513"/>
      <point x="488.046" y="43.3263" type="curve"/>
      <point x="482.945" y="80.8523"/>
      <point x="485.171" y="117.995"/>
      <point x="490.055" y="154.79" type="curve" smooth="yes"/>
      <point x="498.87" y="221.199"/>
      <point x="516" y="285.296"/>
      <point x="516" y="351" type="curve" smooth="yes"/>
      <point x="516" y="411.404"/>
      <point x="501.649" y="470.383"/>
      <point x="492.401" y="531.079" type="curve" smooth="yes"/>
      <point x="485.995" y="573.122"/>
      <point x="482.187" y="615.569"/>
      <point x="488.061" y="658.78" type="curve"/>
      <point x="490.995" y="677.363"/>
      <point x="498.314" y="701.288"/>
      <point x="520.178" y="704.932" type="curve" smooth="yes"/>
      <point x="532.022" y="706.906"/>
      <point x="542.532" y="702.621"/>
      <point x="549.514" y="695.214" type="curve" smooth="yes"/>
      <point x="559.046" y="685.103"/>
      <point x="562.107" y="668.99"/>
      <point x="553.192" y="655.275" type="curve" smooth="yes"/>
      <point x="551.683" y="652.953"/>
      <point x="548.597" y="652.298"/>
      <point x="546.275" y="653.808" type="curve" smooth="yes"/>
      <point x="543.952" y="655.317"/>
      <point x="543.298" y="658.402"/>
      <point x="544.808" y="660.725" type="curve" smooth="yes"/>
      <point x="550.945" y="670.168"/>
      <point x="548.948" y="681.235"/>
      <point x="542.237" y="688.355" type="curve" smooth="yes"/>
      <point x="537.407" y="693.479"/>
      <point x="530.188" y="696.462"/>
      <point x="521.822" y="695.068" type="curve" smooth="yes"/>
      <point x="507.686" y="692.712"/>
      <point x="501.004" y="676.637"/>
      <point x="497.954" y="657.327" type="curve"/>
      <point x="492.287" y="615.628"/>
      <point x="495.932" y="574.288"/>
      <point x="502.287" y="532.585" type="curve" smooth="yes"/>
      <point x="511.359" y="473.043"/>
      <point x="526" y="412.402"/>
      <point x="526" y="351" type="curve" smooth="yes"/>
      <point x="526" y="284.517"/>
      <point x="508.542" y="218.073"/>
      <point x="499.968" y="153.475" type="curve" smooth="yes"/>
      <point x="495.143" y="117.117"/>
      <point x="493.022" y="80.9601"/>
      <point x="497.939" y="44.7798" type="curve"/>
      <point x="500.96" y="25.6484"/>
      <point x="507.598" y="10.1003"/>
      <point x="521.822" y="6.932" type="curve"/>
      <point x="530.747" y="5.4445"/>
      <point x="538.387" y="8.94138"/>
      <point x="543.198" y="14.7298" type="curve" smooth="yes"/>
      <point x="549.124" y="21.8616"/>
      <point x="550.647" y="32.2919"/>
      <point x="544.808" y="41.2751" type="curve" smooth="yes"/>
      <point x="543.298" y="43.5976"/>
      <point x="543.953" y="46.6827"/>
      <point x="546.275" y="48.1923" type="curve" smooth="yes"/>
      <point x="548.598" y="49.7019"/>
      <point x="551.683" y="49.0475"/>
    </contour>
    <contour>
      <point x="75" y="356" type="curve" smooth="yes"/>
      <point x="521" y="356" type="line" smooth="yes"/>
      <point x="523.77" y="356"/>
      <point x="526" y="353.77"/>
      <point x="526" y="351" type="curve" smooth="yes"/>
      <point x="526" y="348.23"/>
      <point x="523.77" y="346"/>
      <point x="521" y="346" type="curve" smooth="yes"/>
      <point x="75" y="346" type="line" smooth="yes"/>
      <point x="72.23" y="346"/>
      <point x="70" y="348.23"/>
      <point x="70" y="351" type="curve" smooth="yes"/>
      <point x="70" y="353.77"/>
      <point x="72.23" y="356"/>
    </contour>
  </outline>
</glyph>
<glyph name="I" format="2">
  <advance width="246"/>
  <unicode hex="0049"/>
  <outline>
    <contour>
      <point x="76.0173" y="44.4152" type="curve" smooth="yes"/>
      <point x="76.2473" y="47.1756"/>
      <point x="78.6548" y="49.2127"/>
      <point x="81.4152" y="48.9827" type="curve" smooth="yes"/>
      <point x="84.1756" y="48.7527"/>
      <point x="86.2127" y="46.3452"/>
      <point x="85.9827" y="43.5848" type="curve" smooth="yes"/>
      <point x="84.2395" y="22.6661"/>
      <point x="101.666" y="5.23956"/>
      <point x="122.616" y="6.98536" type="curve" smooth="yes"/>
      <point x="144.909" y="8.70016"/>
      <point x="160" y="31.3378"/>
      <point x="160" y="58" type="curve" smooth="yes"/>
      <point x="160" y="257.005"/>
      <point x="76" y="444.96"/>
      <point x="76" y="644" type="curve" smooth="yes"/>
      <point x="76" y="673.338"/>
      <point x="92.909" y="702.7"/>
      <point x="122.585" y="704.983" type="curve" smooth="yes"/>
      <point x="149.666" y="707.24"/>
      <point x="172.24" y="684.666"/>
      <point x="169.983" y="657.585" type="curve" smooth="yes"/>
      <point x="169.753" y="654.824"/>
      <point x="167.345" y="652.787"/>
      <point x="164.585" y="653.017" type="curve" smooth="yes"/>
      <point x="161.824" y="653.247"/>
      <point x="159.787" y="655.655"/>
      <point x="160.017" y="658.415" type="curve" smooth="yes"/>
      <point x="161.761" y="679.334"/>
      <point x="144.334" y="696.761"/>
      <point x="123.383" y="695.015" type="curve" smooth="yes"/>
      <point x="101.091" y="693.3"/>
      <point x="86" y="670.662"/>
      <point x="86" y="644" type="curve" smooth="yes"/>
      <point x="86" y="444.995"/>
      <point x="170" y="257.04"/>
      <point x="170" y="58" type="curve" smooth="yes"/>
      <point x="170" y="28.6623"/>
      <point x="153.091" y="-0.700073"/>
      <point x="123.415" y="-2.98277" type="curve" smooth="yes"/>
      <point x="96.3339" y="-5.23957"/>
      <point x="73.7605" y="17.3338"/>
    </contour>
  </outline>
</glyph>
<glyph name="J" format="2">
  <advance width="546"/>
  <unicode hex="004A"/>
  <outline>
    <contour>
      <point x="62.825" y="547" type="curve" smooth="yes"/>
      <point x="40.4061" y="570.648"/>
      <point x="33.5808" y="601.307"/>
      <point x="38.7449" y="629.233" type="curve" smooth="yes"/>
      <point x="46.0124" y="668.534"/>
      <point x="77.0443" y="702.722"/>
      <point x="121.649" y="704.048" type="curve" smooth="yes"/>
      <point x="150.494" y="704.93"/>
      <point x="189.342" y="683.627"/>
      <point x="224.435" y="664.514" type="curve" smooth="yes"/>
      <point x="281.71" y="633.321"/>
      <point x="329.803" y="606.702"/>
      <point x="336.217" y="654.065" type="curve" smooth="yes"/>
      <point x="340.423" y="686.231"/>
      <point x="357.599" y="704.05"/>
      <point x="381.425" y="704.05" type="curve" smooth="yes"/>
      <point x="411.263" y="704.05"/>
      <point x="428.31" y="689.389"/>
      <point x="431.622" y="654.457" type="curve"/>
      <point x="496.521" y="451.185"/>
      <point x="569.522" y="228.142"/>
      <point x="435.569" y="67.4263" type="curve" smooth="yes"/>
      <point x="384.226" y="6.76874"/>
      <point x="311.353" y="-24.5854"/>
      <point x="234.506" y="-24.5854" type="curve" smooth="yes"/>
      <point x="118.705" y="-24.5854"/>
      <point x="10.3051" y="83.3777"/>
      <point x="41.524" y="189.855" type="curve" smooth="yes"/>
      <point x="47.8387" y="212.059"/>
      <point x="63.0144" y="234.559"/>
      <point x="88.0268" y="236.957" type="curve"/>
      <point x="114.706" y="240.475"/>
      <point x="138.235" y="216.735"/>
      <point x="134.815" y="187.88" type="curve" smooth="yes"/>
      <point x="134.489" y="185.129"/>
      <point x="132.012" y="183.177"/>
      <point x="129.262" y="183.503" type="curve" smooth="yes"/>
      <point x="126.511" y="183.829"/>
      <point x="124.559" y="186.306"/>
      <point x="124.885" y="189.056" type="curve" smooth="yes"/>
      <point x="127.563" y="211.657"/>
      <point x="109.81" y="229.744"/>
      <point x="89.0695" y="227.013" type="curve"/>
      <point x="70.06" y="225.19"/>
      <point x="56.9826" y="207.655"/>
      <point x="51.1256" y="187.061" type="curve" smooth="yes"/>
      <point x="22.2069" y="88.429"/>
      <point x="123.855" y="-14.5854"/>
      <point x="234.506" y="-14.5854" type="curve" smooth="yes"/>
      <point x="308.589" y="-14.5854"/>
      <point x="378.61" y="15.6118"/>
      <point x="427.911" y="73.8579" type="curve" smooth="yes"/>
      <point x="557.634" y="229.497"/>
      <point x="487.643" y="446.113"/>
      <point x="421.946" y="651.884" type="curve"/>
      <point x="418.914" y="682.652"/>
      <point x="406.603" y="694.05"/>
      <point x="381.425" y="694.05" type="curve" smooth="yes"/>
      <point x="364.649" y="694.05"/>
      <point x="349.953" y="681.985"/>
      <point x="346.129" y="652.745" type="curve" smooth="yes"/>
      <point x="338.207" y="594.249"/>
      <point x="279.327" y="623.232"/>
      <point x="219.652" y="655.732" type="curve" smooth="yes"/>
      <point x="182.914" y="675.741"/>
      <point x="147.168" y="694.823"/>
      <point x="121.948" y="694.052" type="curve" smooth="yes"/>
      <point x="82.9261" y="692.893"/>
      <point x="55.1384" y="662.891"/>
      <point x="48.5781" y="627.415" type="curve" smooth="yes"/>
      <point x="43.9522" y="602.399"/>
      <point x="50.0127" y="575.05"/>
      <point x="70.0821" y="553.88" type="curve" smooth="yes"/>
      <point x="71.9878" y="551.87"/>
      <point x="71.9037" y="548.717"/>
      <point x="69.8935" y="546.812" type="curve" smooth="yes"/>
      <point x="67.8833" y="544.906"/>
      <point x="64.7307" y="544.99"/>
    </contour>
  </outline>
</glyph>
<glyph name="K" format="2">
  <advance width="674"/>
  <unicode hex="004B"/>
  <outline>
    <contour>
      <point x="549.807" y="701.378" type="curve" smooth="yes"/>
      <point x="597.741" y="534.116"/>
      <point x="468.223" y="367.884"/>
      <point x="293.83" y="374.003" type="curve" smooth="yes"/>
      <point x="200.534" y="377.079"/>
      <point x="104" y="380.945"/>
      <point x="104" y="309" type="curve" smooth="yes"/>
      <point x="104" y="306.23"/>
      <point x="101.77" y="304"/>
      <point x="99" y="304" type="curve" smooth="yes"/>
      <point x="96.23" y="304"/>
      <point x="94" y="306.23"/>
      <point x="94" y="309" type="curve" smooth="yes"/>
      <point x="94" y="393.065"/>
      <point x="205.516" y="386.92"/>
      <point x="294.175" y="383.997" type="curve" smooth="yes"/>
      <point x="461.777" y="378.116"/>
      <point x="586.259" y="537.884"/>
      <point x="540.193" y="698.622" type="curve" smooth="yes"/>
      <point x="539.43" y="701.285"/>
      <point x="540.96" y="704.043"/>
      <point x="543.623" y="704.806" type="curve" smooth="yes"/>
      <point x="546.285" y="705.57"/>
      <point x="549.043" y="704.04"/>
    </contour>
    <contour>
      <point x="294" y="384" type="curve" smooth="yes"/>
      <point x="457.22" y="384"/>
      <point x="543.931" y="212.844"/>
      <point x="577.893" y="45.0301" type="curve" smooth="yes"/>
      <point x="582.019" y="25.4291"/>
      <point x="587.635" y="10.092"/>
      <point x="602.02" y="6.89495" type="curve" smooth="yes"/>
      <point x="612.665" y="4.67715"/>
      <point x="621.87" y="10.1214"/>
      <point x="626.263" y="18.3596" type="curve" smooth="yes"/>
      <point x="629.906" y="25.1937"/>
      <point x="630.095" y="33.7169"/>
      <point x="624.904" y="41.1327" type="curve" smooth="yes"/>
      <point x="623.315" y="43.402"/>
      <point x="623.863" y="46.5077"/>
      <point x="626.133" y="48.0962" type="curve" smooth="yes"/>
      <point x="628.402" y="49.6847"/>
      <point x="631.508" y="49.1366"/>
      <point x="633.096" y="46.8673" type="curve" smooth="yes"/>
      <point x="640.655" y="36.0693"/>
      <point x="640.323" y="23.4759"/>
      <point x="635.087" y="13.6547" type="curve" smooth="yes"/>
      <point x="628.857" y="1.97098"/>
      <point x="615.478" y="-6.12367"/>
      <point x="599.915" y="-2.88087" type="curve" smooth="yes"/>
      <point x="578.365" y="1.90802"/>
      <point x="571.981" y="24.571"/>
      <point x="568.099" y="43.0083" type="curve" smooth="yes"/>
      <point x="534.069" y="211.156"/>
      <point x="448.78" y="374"/>
      <point x="294" y="374" type="curve" smooth="yes"/>
      <point x="291.23" y="374"/>
      <point x="289" y="376.23"/>
      <point x="289" y="379" type="curve" smooth="yes"/>
      <point x="289" y="381.77"/>
      <point x="291.23" y="384"/>
    </contour>
    <contour>
      <point x="38.4404" y="46.0518" type="curve" smooth="yes"/>
      <point x="39.5771" y="48.5778"/>
      <point x="42.5258" y="49.6963"/>
      <point x="45.0518" y="48.5596" type="curve" smooth="yes"/>
      <point x="47.5778" y="47.4229"/>
      <point x="48.6963" y="44.4742"/>
      <point x="47.5596" y="41.9482" type="curve" smooth="yes"/>
      <point x="43.8913" y="33.7964"/>
      <point x="45.0025" y="25.3115"/>
      <point x="49.2475" y="18.711" type="curve" smooth="yes"/>
      <point x="53.6874" y="11.8073"/>
      <point x="61.5416" y="7"/>
      <point x="71" y="7" type="curve" smooth="yes"/>
      <point x="78.5729" y="7"/>
      <point x="85.242" y="10.447"/>
      <point x="89.8416" y="15.8118" type="curve" smooth="yes"/>
      <point x="96.3842" y="23.4429"/>
      <point x="97.9563" y="34.0224"/>
      <point x="94" y="42.9938" type="curve"/>
      <point x="94" y="659.006" type="line"/>
      <point x="95.1544" y="661.624"/>
      <point x="100.15" y="673.944"/>
      <point x="89.9971" y="686.005" type="curve" smooth="yes"/>
      <point x="85.3933" y="691.474"/>
      <point x="78.6581" y="695"/>
      <point x="71" y="695" type="curve" smooth="yes"/>
      <point x="62.3232" y="695"/>
      <point x="55.0047" y="690.957"/>
      <point x="50.4251" y="684.966" type="curve" smooth="yes"/>
      <point x="45.2242" y="678.163"/>
      <point x="43.5783" y="668.899"/>
      <point x="47.5596" y="660.052" type="curve" smooth="yes"/>
      <point x="48.6963" y="657.526"/>
      <point x="47.5778" y="654.577"/>
      <point x="45.0518" y="653.44" type="curve" smooth="yes"/>
      <point x="42.5258" y="652.304"/>
      <point x="39.5771" y="653.422"/>
      <point x="38.4404" y="655.948" type="curve" smooth="yes"/>
      <point x="32.8866" y="668.29"/>
      <point x="35.1522" y="681.453"/>
      <point x="42.4805" y="691.04" type="curve" smooth="yes"/>
      <point x="48.8707" y="699.399"/>
      <point x="59.0687" y="705"/>
      <point x="71" y="705" type="curve" smooth="yes"/>
      <point x="81.8161" y="705"/>
      <point x="91.2892" y="699.999"/>
      <point x="97.6476" y="692.445" type="curve" smooth="yes"/>
      <point x="105.681" y="682.901"/>
      <point x="108.806" y="669.207"/>
      <point x="104" y="657.192" type="curve"/>
      <point x="104" y="44.8062" type="line"/>
      <point x="107.503" y="36.0476"/>
      <point x="107.489" y="21.0316"/>
      <point x="97.4333" y="9.30286" type="curve" smooth="yes"/>
      <point x="91.1009" y="1.91708"/>
      <point x="81.7519" y="-3"/>
      <point x="71" y="-3" type="curve" smooth="yes"/>
      <point x="58.0491" y="-3"/>
      <point x="47.0641" y="3.61881"/>
      <point x="40.8367" y="13.3018" type="curve" smooth="yes"/>
      <point x="34.8891" y="22.5496"/>
      <point x="33.2815" y="34.5876"/>
    </contour>
  </outline>
</glyph>
<glyph name="L" format="2">
  <advance width="626"/>
  <unicode hex="004C"/>
  <outline>
    <contour>
      <point x="233.583" y="661.875" type="curve" smooth="yes"/>
      <point x="234.088" y="659.151"/>
      <point x="232.301" y="656.552"/>
      <point x="229.578" y="656.048" type="curve" smooth="yes"/>
      <point x="226.854" y="655.543"/>
      <point x="224.255" y="657.33"/>
      <point x="223.751" y="660.054" type="curve" smooth="yes"/>
      <point x="219.128" y="685.015"/>
      <point x="193.94" y="710.984"/>
      <point x="166.514" y="710.984" type="curve" smooth="yes"/>
      <point x="107.492" y="710.984"/>
      <point x="89.1115" y="656.851"/>
      <point x="93.0505" y="588.902" type="curve" smooth="yes"/>
      <point x="102.2" y="420.153"/>
      <point x="191.102" y="254.749"/>
      <point x="149.997" y="88.2725" type="curve"/>
      <point x="142.881" y="53.7072"/>
      <point x="125.906" y="17.7128"/>
      <point x="89.8296" y="12.0759" type="curve" smooth="yes"/>
      <point x="59.524" y="7.58618"/>
      <point x="30.4377" y="27.6439"/>
      <point x="27.0545" y="59.2203" type="curve"/>
      <point x="12.4632" y="170.114"/>
      <point x="143.069" y="143.675"/>
      <point x="313.964" y="29.3351" type="curve" smooth="yes"/>
      <point x="403.946" y="-29.9942"/>
      <point x="532.727" y="10.532"/>
      <point x="568.335" y="112.408" type="curve" smooth="yes"/>
      <point x="569.249" y="115.023"/>
      <point x="572.09" y="116.392"/>
      <point x="574.705" y="115.478" type="curve" smooth="yes"/>
      <point x="577.32" y="114.564"/>
      <point x="578.689" y="111.723"/>
      <point x="577.775" y="109.108" type="curve" smooth="yes"/>
      <point x="539.972" y="0.950765"/>
      <point x="403.761" y="-41.8504"/>
      <point x="308.432" y="21.005" type="curve" smooth="yes"/>
      <point x="270.992" y="46.0543"/>
      <point x="17.8842" y="205.558"/>
      <point x="36.9904" y="60.3453" type="curve"/>
      <point x="39.7174" y="34.8936"/>
      <point x="63.3857" y="18.2672"/>
      <point x="88.3054" y="21.9589" type="curve" smooth="yes"/>
      <point x="117.455" y="26.5135"/>
      <point x="133.124" y="55.9025"/>
      <point x="140.263" y="90.5593" type="curve"/>
      <point x="180.636" y="254.071"/>
      <point x="92.2586" y="418.793"/>
      <point x="83.0668" y="588.333" type="curve" smooth="yes"/>
      <point x="78.9902" y="658.654"/>
      <point x="99.2654" y="720.984"/>
      <point x="166.514" y="720.984" type="curve" smooth="yes"/>
      <point x="198.894" y="720.984"/>
      <point x="228.131" y="691.314"/>
    </contour>
  </outline>
</glyph>
<glyph name="M" format="2">
  <advance width="744"/>
  <unicode hex="004D"/>
  <outline>
    <contour>
      <point x="36.9374" y="32.8057" type="curve" smooth="yes"/>
      <point x="37.2957" y="35.5524"/>
      <point x="39.7954" y="37.4752"/>
      <point x="42.5421" y="37.1169" type="curve" smooth="yes"/>
      <point x="45.2888" y="36.7586"/>
      <point x="47.2116" y="34.2589"/>
      <point x="46.8533" y="31.5122" type="curve" smooth="yes"/>
      <point x="44.0673" y="10.1527"/>
      <point x="62.6971" y="-8.47713"/>
      <point x="83.9616" y="-5.70443" type="curve"/>
      <point x="102.577" y="-2.91203"/>
      <point x="115.518" y="14.0685"/>
      <point x="122.848" y="33.9624" type="curve"/>
      <point x="202.27" y="229.87"/>
      <point x="-20.5763" y="441.794"/>
      <point x="80.2555" y="638.036" type="curve" smooth="yes"/>
      <point x="101.005" y="678.442"/>
      <point x="138.793" y="713.59"/>
      <point x="185.424" y="712.453" type="curve" smooth="yes"/>
      <point x="231.905" y="711.32"/>
      <point x="267.418" y="676.275"/>
      <point x="290.192" y="638.319" type="curve" smooth="yes"/>
      <point x="367.12" y="509.383"/>
      <point x="333.709" y="350.527"/>
      <point x="333.709" y="204.461" type="curve" smooth="yes"/>
      <point x="333.709" y="168.582"/>
      <point x="346.739" y="137.758"/>
      <point x="371.517" y="137.758" type="curve" smooth="yes"/>
      <point x="397.413" y="137.758"/>
      <point x="410.395" y="168.674"/>
      <point x="410.395" y="204.461" type="curve" smooth="yes"/>
      <point x="410.395" y="350.527"/>
      <point x="376.984" y="509.383"/>
      <point x="453.915" y="638.324" type="curve" smooth="yes"/>
      <point x="476.686" y="676.275"/>
      <point x="512.199" y="711.32"/>
      <point x="558.68" y="712.453" type="curve" smooth="yes"/>
      <point x="606.266" y="713.614"/>
      <point x="642.954" y="676.723"/>
      <point x="663.83" y="638.074" type="curve"/>
      <point x="763.515" y="442.078"/>
      <point x="541.945" y="229.565"/>
      <point x="620.131" y="34.099" type="curve"/>
      <point x="628.557" y="14.085"/>
      <point x="641.499" y="-2.90783"/>
      <point x="660.048" y="-5.69113" type="curve"/>
      <point x="681.406" y="-8.47713"/>
      <point x="700.036" y="10.1526"/>
      <point x="697.251" y="31.5123" type="curve" smooth="yes"/>
      <point x="696.893" y="34.259"/>
      <point x="698.816" y="36.7586"/>
      <point x="701.562" y="37.1168" type="curve" smooth="yes"/>
      <point x="704.309" y="37.475"/>
      <point x="706.809" y="35.5521"/>
      <point x="707.167" y="32.8054" type="curve" smooth="yes"/>
      <point x="710.798" y="4.96285"/>
      <point x="686.576" y="-19.2358"/>
      <point x="658.707" y="-15.6005" type="curve"/>
      <point x="634.296" y="-11.9389"/>
      <point x="619.639" y="9.49844"/>
      <point x="610.897" y="30.2603" type="curve"/>
      <point x="530.886" y="230.287"/>
      <point x="752.03" y="442.476"/>
      <point x="654.964" y="633.443" type="curve"/>
      <point x="634.649" y="671.026"/>
      <point x="600.602" y="703.473"/>
      <point x="558.924" y="702.456" type="curve" smooth="yes"/>
      <point x="517.522" y="701.447"/>
      <point x="484.663" y="670.135"/>
      <point x="462.493" y="633.185" type="curve" smooth="yes"/>
      <point x="387.453" y="507.413"/>
      <point x="420.395" y="353.771"/>
      <point x="420.395" y="204.461" type="curve" smooth="yes"/>
      <point x="420.395" y="168.012"/>
      <point x="407.148" y="127.758"/>
      <point x="371.517" y="127.758" type="curve" smooth="yes"/>
      <point x="337.321" y="127.758"/>
      <point x="323.709" y="169.357"/>
      <point x="323.709" y="204.461" type="curve" smooth="yes"/>
      <point x="323.709" y="353.771"/>
      <point x="356.65" y="507.413"/>
      <point x="281.61" y="633.185" type="curve" smooth="yes"/>
      <point x="259.659" y="669.771"/>
      <point x="226.606" y="701.446"/>
      <point x="185.18" y="702.456" type="curve" smooth="yes"/>
      <point x="143.909" y="703.463"/>
      <point x="109.08" y="672.276"/>
      <point x="89.1508" y="633.467" type="curve" smooth="yes"/>
      <point x="-9.09514" y="442.258"/>
      <point x="213.301" y="230.469"/>
      <point x="132.173" y="30.3553" type="curve"/>
      <point x="124.567" y="9.70763"/>
      <point x="109.692" y="-11.9563"/>
      <point x="85.3974" y="-15.6006" type="curve"/>
      <point x="57.1594" y="-19.2838"/>
      <point x="33.2969" y="4.89696"/>
    </contour>
  </outline>
</glyph>
<glyph name="N" format="2">
  <advance width="654"/>
  <unicode hex="004E"/>
  <outline>
    <contour>
      <point x="29.6933" y="43.0889" type="curve" smooth="yes"/>
      <point x="30.0767" y="45.8322"/>
      <point x="32.5939" y="47.7321"/>
      <point x="35.3372" y="47.3487" type="curve" smooth="yes"/>
      <point x="38.0805" y="46.9653"/>
      <point x="39.9804" y="44.4481"/>
      <point x="39.597" y="41.7048" type="curve" smooth="yes"/>
      <point x="36.6429" y="20.5669"/>
      <point x="56.4649" y="0.714125"/>
      <point x="82.9793" y="3.55892" type="curve"/>
      <point x="104.727" y="6.33772"/>
      <point x="117.682" y="23.908"/>
      <point x="128.081" y="44.5744" type="curve"/>
      <point x="219.047" y="240.255"/>
      <point x="12.8936" y="432.894"/>
      <point x="78.8683" y="638.37" type="curve" smooth="yes"/>
      <point x="91.8838" y="677.527"/>
      <point x="119.919" y="715.916"/>
      <point x="165.354" y="714.787" type="curve" smooth="yes"/>
      <point x="209.5" y="713.659"/>
      <point x="233.952" y="675.249"/>
      <point x="250.246" y="638.815" type="curve" smooth="yes"/>
      <point x="330.532" y="455.189"/>
      <point x="333.198" y="248.873"/>
      <point x="413.463" y="65.2943" type="curve" smooth="yes"/>
      <point x="429.801" y="28.7636"/>
      <point x="451.981" y="-3.78419"/>
      <point x="490.636" y="-4.74459" type="curve" smooth="yes"/>
      <point x="529.149" y="-5.70149"/>
      <point x="554.746" y="26.8202"/>
      <point x="567.372" y="64.8057" type="curve" smooth="yes"/>
      <point x="632.056" y="266.264"/>
      <point x="425.349" y="461.196"/>
      <point x="518.593" y="661.775" type="curve" smooth="yes"/>
      <point x="528.131" y="683.104"/>
      <point x="544.337" y="705.023"/>
      <point x="571.57" y="708.501" type="curve" smooth="yes"/>
      <point x="601.924" y="711.894"/>
      <point x="630.289" y="688.044"/>
      <point x="624.842" y="658.818" type="curve" smooth="yes"/>
      <point x="624.335" y="656.095"/>
      <point x="621.734" y="654.311"/>
      <point x="619.011" y="654.819" type="curve" smooth="yes"/>
      <point x="616.288" y="655.326"/>
      <point x="614.504" y="657.927"/>
      <point x="615.012" y="660.65" type="curve" smooth="yes"/>
      <point x="618.893" y="681.48"/>
      <point x="598.29" y="701.426"/>
      <point x="572.759" y="698.573" type="curve" smooth="yes"/>
      <point x="550.945" y="695.786"/>
      <point x="536.837" y="678.076"/>
      <point x="527.706" y="657.66" type="curve" smooth="yes"/>
      <point x="436.737" y="461.973"/>
      <point x="642.787" y="266.976"/>
      <point x="576.87" y="61.6759" type="curve" smooth="yes"/>
      <point x="563.854" y="22.5185"/>
      <point x="535.819" y="-15.8702"/>
      <point x="490.388" y="-14.7415" type="curve" smooth="yes"/>
      <point x="445.1" y="-13.6163"/>
      <point x="420.643" y="24.7463"/>
      <point x="404.326" y="61.2308" type="curve" smooth="yes"/>
      <point x="324.04" y="244.857"/>
      <point x="321.374" y="451.173"/>
      <point x="241.109" y="634.752" type="curve" smooth="yes"/>
      <point x="224.749" y="671.333"/>
      <point x="202.564" y="703.833"/>
      <point x="165.102" y="704.791" type="curve" smooth="yes"/>
      <point x="126.589" y="705.748"/>
      <point x="100.992" y="673.225"/>
      <point x="88.3658" y="635.24" type="curve" smooth="yes"/>
      <point x="23.7376" y="433.957"/>
      <point x="230.342" y="240.836"/>
      <point x="137.048" y="40.1497" type="curve"/>
      <point x="126.494" y="19.1738"/>
      <point x="111.467" y="-2.88233"/>
      <point x="84.1466" y="-6.37214" type="curve"/>
      <point x="52.4661" y="-9.77241"/>
      <point x="25.6521" y="14.1724"/>
    </contour>
  </outline>
</glyph>
<glyph name="O" format="2">
  <advance width="593"/>
  <unicode hex="004F"/>
  <outline>
    <contour>
      <point x="34.505" y="351.251" type="curve" smooth="yes"/>
      <point x="34.505" y="539.75"/>
      <point x="138.879" y="711.41"/>
      <point x="295.95" y="711.41" type="curve" smooth="yes"/>
      <point x="453.039" y="711.41"/>
      <point x="558.35" y="539.724"/>
      <point x="558.35" y="351.251" type="curve" smooth="yes"/>
      <point x="558.35" y="161.723"/>
      <point x="453.032" y="-9.95369"/>
      <point x="295.95" y="-9.95369" type="curve" smooth="yes"/>
      <point x="138.886" y="-9.95369"/>
      <point x="34.505" y="161.697"/>
    </contour>
    <contour>
      <point x="24.505" y="351.251" type="curve" smooth="yes"/>
      <point x="24.505" y="159.953"/>
      <point x="130.224" y="-19.9537"/>
      <point x="295.95" y="-19.9537" type="curve" smooth="yes"/>
      <point x="461.658" y="-19.9537"/>
      <point x="568.35" y="159.927"/>
      <point x="568.35" y="351.251" type="curve" smooth="yes"/>
      <point x="568.35" y="541.54"/>
      <point x="461.651" y="721.41"/>
      <point x="295.95" y="721.41" type="curve" smooth="yes"/>
      <point x="130.231" y="721.41"/>
      <point x="24.505" y="541.514"/>
    </contour>
  </outline>
</glyph>
<glyph name="P" format="2">
  <advance width="594"/>
  <unicode hex="0050"/>
  <outline>
    <contour>
      <point x="50.7314" y="44.0723" type="curve" smooth="yes"/>
      <point x="51.8063" y="46.6252"/>
      <point x="54.7269" y="47.8151"/>
      <point x="57.2798" y="46.7402" type="curve" smooth="yes"/>
      <point x="59.8327" y="45.6653"/>
      <point x="61.0226" y="42.7447"/>
      <point x="59.9477" y="40.1918" type="curve" smooth="yes"/>
      <point x="56.2515" y="31.4132"/>
      <point x="58.0145" y="21.4731"/>
      <point x="63.4556" y="14.1447" type="curve" smooth="yes"/>
      <point x="68.0202" y="7.9969"/>
      <point x="74.9837" y="3.94347"/>
      <point x="83.1036" y="3.94347" type="curve" smooth="yes"/>
      <point x="90.87" y="3.94347"/>
      <point x="97.7788" y="7.6492"/>
      <point x="102.575" y="13.3718" type="curve" smooth="yes"/>
      <point x="109.369" y="21.4788"/>
      <point x="110.942" y="32.4557"/>
      <point x="106.896" y="41.0721" type="curve"/>
      <point x="106.896" y="675.565" type="line" smooth="yes"/>
      <point x="106.896" y="678.335"/>
      <point x="109.126" y="680.565"/>
      <point x="111.896" y="680.565" type="curve" smooth="yes"/>
      <point x="114.666" y="680.565"/>
      <point x="116.896" y="678.335"/>
      <point x="116.896" y="675.565" type="curve" smooth="yes"/>
      <point x="116.942" y="42.9806" type="line"/>
      <point x="121.776" y="30.2793"/>
      <point x="118.273" y="16.5355"/>
      <point x="110.239" y="6.94856" type="curve" smooth="yes"/>
      <point x="103.793" y="-0.743474"/>
      <point x="94.1956" y="-6.05651"/>
      <point x="83.1036" y="-6.05651" type="curve" smooth="yes"/>
      <point x="71.4388" y="-6.05651"/>
      <point x="61.6389" y="-0.183511"/>
      <point x="55.4267" y="8.18347" type="curve" smooth="yes"/>
      <point x="48.1195" y="18.0252"/>
      <point x="45.5117" y="31.6759"/>
    </contour>
    <contour>
      <point x="53.7285" y="371.528" type="curve" smooth="yes"/>
      <point x="-17.6276" y="566.707"/>
      <point x="138.964" y="723.718"/>
      <point x="301.035" y="725.809" type="curve" smooth="yes"/>
      <point x="377.672" y="726.859"/>
      <point x="456.356" y="694.256"/>
      <point x="513.922" y="614.709" type="curve" smooth="yes"/>
      <point x="552.564" y="560.401"/>
      <point x="568.341" y="504.858"/>
      <point x="567.291" y="451.321" type="curve" smooth="yes"/>
      <point x="565.192" y="309.664"/>
      <point x="439.504" y="190.446"/>
      <point x="301.264" y="185.209" type="curve" smooth="yes"/>
      <point x="236.132" y="183.109"/>
      <point x="167.989" y="206.256"/>
      <point x="108.424" y="263.732" type="curve" smooth="yes"/>
      <point x="106.431" y="265.655"/>
      <point x="106.375" y="268.808"/>
      <point x="108.298" y="270.802" type="curve" smooth="yes"/>
      <point x="110.221" y="272.795"/>
      <point x="113.375" y="272.851"/>
      <point x="115.368" y="270.928" type="curve" smooth="yes"/>
      <point x="173.029" y="215.29"/>
      <point x="238.566" y="193.193"/>
      <point x="300.914" y="195.203" type="curve" smooth="yes"/>
      <point x="434.175" y="200.252"/>
      <point x="555.278" y="315.486"/>
      <point x="557.293" y="451.493" type="curve" smooth="yes"/>
      <point x="558.299" y="502.82"/>
      <point x="543.226" y="556.277"/>
      <point x="505.797" y="608.879" type="curve" smooth="yes"/>
      <point x="450.228" y="685.666"/>
      <point x="374.666" y="716.817"/>
      <point x="301.168" y="715.81" type="curve" smooth="yes"/>
      <point x="144.47" y="713.788"/>
      <point x="-5.37214" y="562.309"/>
      <point x="63.1205" y="374.962" type="curve" smooth="yes"/>
      <point x="64.0716" y="372.36"/>
      <point x="62.7429" y="369.5"/>
      <point x="60.1413" y="368.549" type="curve" smooth="yes"/>
      <point x="57.5397" y="367.598"/>
      <point x="54.6796" y="368.927"/>
    </contour>
  </outline>
</glyph>
<glyph name="Q" format="2">
  <advance width="659"/>
  <unicode hex="0051"/>
  <outline>
    <contour>
      <point x="35" y="349" type="curve" smooth="yes"/>
      <point x="35" y="541.617"/>
      <point x="152.963" y="717"/>
      <point x="329" y="717" type="curve" smooth="yes"/>
      <point x="505.037" y="717"/>
      <point x="623" y="541.617"/>
      <point x="623" y="349" type="curve" smooth="yes"/>
      <point x="623" y="156.364"/>
      <point x="505.023" y="-20"/>
      <point x="329" y="-20" type="curve" smooth="yes"/>
      <point x="152.977" y="-20"/>
      <point x="35" y="156.364"/>
    </contour>
    <contour>
      <point x="25" y="349" type="curve" smooth="yes"/>
      <point x="25" y="153.636"/>
      <point x="145.023" y="-30"/>
      <point x="329" y="-30" type="curve" smooth="yes"/>
      <point x="512.977" y="-30"/>
      <point x="633" y="153.636"/>
      <point x="633" y="349" type="curve" smooth="yes"/>
      <point x="633" y="544.383"/>
      <point x="512.963" y="727"/>
      <point x="329" y="727" type="curve" smooth="yes"/>
      <point x="145.037" y="727"/>
      <point x="25" y="544.383"/>
    </contour>
    <contour>
      <point x="210" y="279" type="curve" smooth="yes"/>
      <point x="207.23" y="279"/>
      <point x="205" y="276.77"/>
      <point x="205" y="274" type="curve" smooth="yes"/>
      <point x="205" y="271.23"/>
      <point x="207.23" y="269"/>
      <point x="210" y="269" type="curve" smooth="yes"/>
      <point x="246.922" y="269"/>
      <point x="280.138" y="246.269"/>
      <point x="294.389" y="212.068" type="curve" smooth="yes"/>
      <point x="351.727" y="76.0096"/>
      <point x="154.597" y="25.8754"/>
      <point x="56.3311" y="-81.6032" type="curve" smooth="yes"/>
      <point x="25.8016" y="-114.168"/>
      <point x="21.7903" y="-167.298"/>
      <point x="58.5264" y="-178.778" type="curve" smooth="yes"/>
      <point x="83.9018" y="-186.501"/>
      <point x="104.716" y="-162.436"/>
      <point x="123.114" y="-147.912" type="curve" smooth="yes"/>
      <point x="206.437" y="-81.0596"/>
      <point x="312.764" y="-170.92"/>
      <point x="418.585" y="-178.983" type="curve" smooth="yes"/>
      <point x="517.013" y="-187.185"/>
      <point x="608.24" y="-122.606"/>
      <point x="632.845" y="-26.2369" type="curve" smooth="yes"/>
      <point x="633.53" y="-23.553"/>
      <point x="631.921" y="-20.8406"/>
      <point x="629.237" y="-20.1553" type="curve" smooth="yes"/>
      <point x="626.553" y="-19.47"/>
      <point x="623.841" y="-21.079"/>
      <point x="623.155" y="-23.7629" type="curve" smooth="yes"/>
      <point x="599.76" y="-115.394"/>
      <point x="512.987" y="-176.815"/>
      <point x="419.398" y="-169.016" type="curve" smooth="yes"/>
      <point x="315.936" y="-161.133"/>
      <point x="205.392" y="-69.0771"/>
      <point x="116.886" y="-140.088" type="curve" smooth="yes"/>
      <point x="95.8804" y="-156.671"/>
      <point x="80.6995" y="-175.073"/>
      <point x="61.4736" y="-169.222" type="curve" smooth="yes"/>
      <point x="35.4932" y="-161.103"/>
      <point x="34.9424" y="-119.038"/>
      <point x="63.6689" y="-88.3966" type="curve" smooth="yes"/>
      <point x="157.431" y="14.1553"/>
      <point x="364.268" y="72.0026"/>
      <point x="303.615" y="215.923" type="curve" smooth="yes"/>
      <point x="287.862" y="253.731"/>
      <point x="251.077" y="279"/>
    </contour>
  </outline>
</glyph>
<glyph name="R" format="2">
  <advance width="585"/>
  <unicode hex="0052"/>
  <outline>
    <contour>
      <point x="59.3678" y="44.9743" type="curve" smooth="yes"/>
      <point x="60.4106" y="47.5405"/>
      <point x="63.316" y="48.767"/>
      <point x="65.8822" y="47.7242" type="curve" smooth="yes"/>
      <point x="68.4484" y="46.6814"/>
      <point x="69.6749" y="43.776"/>
      <point x="68.6321" y="41.2098" type="curve" smooth="yes"/>
      <point x="64.7659" y="31.695"/>
      <point x="67.0199" y="21.6062"/>
      <point x="73.0511" y="14.4262" type="curve" smooth="yes"/>
      <point x="77.889" y="8.66688"/>
      <point x="85.0551" y="4.916"/>
      <point x="93.2403" y="4.916" type="curve" smooth="yes"/>
      <point x="101.384" y="4.916"/>
      <point x="108.068" y="8.6248"/>
      <point x="112.426" y="14.2661" type="curve" smooth="yes"/>
      <point x="117.883" y="21.3308"/>
      <point x="119.713" y="31.4804"/>
      <point x="115.76" y="41.2096" type="curve"/>
      <point x="115.683" y="41.3977"/>
      <point x="115.392" y="42.8889"/>
      <point x="115.392" y="43.0919" type="curve"/>
      <point x="115.392" y="688.676" type="line" smooth="yes"/>
      <point x="115.392" y="691.446"/>
      <point x="117.622" y="693.676"/>
      <point x="120.392" y="693.676" type="curve" smooth="yes"/>
      <point x="123.162" y="693.676"/>
      <point x="125.392" y="691.446"/>
      <point x="125.392" y="688.676" type="curve" smooth="yes"/>
      <point x="125.431" y="43.9326" type="line"/>
      <point x="130.203" y="31.1731"/>
      <point x="127.746" y="17.7414"/>
      <point x="120.34" y="8.15306" type="curve" smooth="yes"/>
      <point x="114.191" y="0.192499"/>
      <point x="104.645" y="-5.08408"/>
      <point x="93.2405" y="-5.08408" type="curve" smooth="yes"/>
      <point x="81.8763" y="-5.08408"/>
      <point x="71.9826" y="0.150964"/>
      <point x="65.3942" y="7.99418" type="curve" smooth="yes"/>
      <point x="57.2159" y="17.7301"/>
      <point x="53.9727" y="31.6968"/>
    </contour>
    <contour>
      <point x="62.2242" y="466.705" type="curve" smooth="yes"/>
      <point x="31.1843" y="626.858"/>
      <point x="165.156" y="733.882"/>
      <point x="295.02" y="727.595" type="curve" smooth="yes"/>
      <point x="363.457" y="724.437"/>
      <point x="430.829" y="690.684"/>
      <point x="474.543" y="616.167" type="curve" smooth="yes"/>
      <point x="497.961" y="576.347"/>
      <point x="507.606" y="537.438"/>
      <point x="507.606" y="499.478" type="curve" smooth="yes"/>
      <point x="506.535" y="383.5"/>
      <point x="405.008" y="287.05"/>
      <point x="290.97" y="278.657" type="curve" smooth="yes"/>
      <point x="232.131" y="274.444"/>
      <point x="170.166" y="293.444"/>
      <point x="116.921" y="344.81" type="curve" smooth="yes"/>
      <point x="112.956" y="348.634"/>
      <point x="119.246" y="355.758"/>
      <point x="123.532" y="352.299" type="curve" smooth="yes"/>
      <point x="500.524" y="48.0108" type="line" smooth="yes"/>
      <point x="501.994" y="46.8244"/>
      <point x="502.729" y="44.1367"/>
      <point x="502.067" y="42.3676" type="curve" smooth="yes"/>
      <point x="498.717" y="33.4169"/>
      <point x="500.596" y="24.3206"/>
      <point x="505.737" y="17.9037" type="curve" smooth="yes"/>
      <point x="510.019" y="12.5594"/>
      <point x="516.597" y="9.02814"/>
      <point x="524.536" y="9.02814" type="curve" smooth="yes"/>
      <point x="534.291" y="9.02814"/>
      <point x="542.047" y="14.3729"/>
      <point x="545.95" y="21.9317" type="curve" smooth="yes"/>
      <point x="549.005" y="27.8463"/>
      <point x="549.708" y="35.1465"/>
      <point x="547.005" y="42.3675" type="curve" smooth="yes"/>
      <point x="546.034" y="44.9618"/>
      <point x="547.341" y="47.832"/>
      <point x="549.935" y="48.8029" type="curve" smooth="yes"/>
      <point x="552.53" y="49.7738"/>
      <point x="555.4" y="48.4669"/>
      <point x="556.371" y="45.8726" type="curve" smooth="yes"/>
      <point x="560.072" y="35.9832"/>
      <point x="559.174" y="25.7436"/>
      <point x="554.836" y="17.3431" type="curve" smooth="yes"/>
      <point x="549.315" y="6.65408"/>
      <point x="538.264" y="-0.97194"/>
      <point x="524.536" y="-0.97194" type="curve" smooth="yes"/>
      <point x="513.516" y="-0.97194"/>
      <point x="504.083" y="3.9748"/>
      <point x="497.933" y="11.6509" type="curve" smooth="yes"/>
      <point x="490.628" y="20.7683"/>
      <point x="488.268" y="33.4833"/>
      <point x="491.594" y="42.3683" type="curve"/>
      <point x="117.252" y="344.517" type="line"/>
      <point x="123.864" y="352.007" type="line"/>
      <point x="175.048" y="302.628"/>
      <point x="234.223" y="284.62"/>
      <point x="290.246" y="288.631" type="curve" smooth="yes"/>
      <point x="399.698" y="296.686"/>
      <point x="496.589" y="389.388"/>
      <point x="497.606" y="499.524" type="curve" smooth="yes"/>
      <point x="497.606" y="535.626"/>
      <point x="488.453" y="572.789"/>
      <point x="465.92" y="611.102" type="curve" smooth="yes"/>
      <point x="424.003" y="682.556"/>
      <point x="359.793" y="714.595"/>
      <point x="294.548" y="717.606" type="curve" smooth="yes"/>
      <point x="169.616" y="723.654"/>
      <point x="42.5122" y="620.966"/>
      <point x="72.0416" y="468.607" type="curve" smooth="yes"/>
      <point x="72.5687" y="465.888"/>
      <point x="70.8038" y="463.274"/>
      <point x="68.0844" y="462.747" type="curve" smooth="yes"/>
      <point x="65.365" y="462.22"/>
      <point x="62.7514" y="463.985"/>
    </contour>
  </outline>
</glyph>
<glyph name="S" format="2">
  <advance width="582"/>
  <unicode hex="0053"/>
  <outline>
    <contour>
      <point x="543.354" y="498.384" type="curve" smooth="yes"/>
      <point x="543.924" y="495.673"/>
      <point x="542.202" y="493.032"/>
      <point x="539.491" y="492.461" type="curve" smooth="yes"/>
      <point x="536.781" y="491.89"/>
      <point x="534.139" y="493.613"/>
      <point x="533.568" y="496.324" type="curve" smooth="yes"/>
      <point x="508.831" y="613.822"/>
      <point x="409.882" y="701.432"/>
      <point x="290.318" y="711.739" type="curve" smooth="yes"/>
      <point x="172.359" y="722.086"/>
      <point x="67.304" y="645.626"/>
      <point x="76.3694" y="541.877" type="curve" smooth="yes"/>
      <point x="96.9587" y="311.277"/>
      <point x="483.311" y="423.988"/>
      <point x="543.25" y="221.696" type="curve" smooth="yes"/>
      <point x="584.18" y="87.0574"/>
      <point x="449.208" y="-37.0352"/>
      <point x="290.193" y="-18.7701" type="curve" smooth="yes"/>
      <point x="167.422" y="-4.89156"/>
      <point x="65.9711" y="83.726"/>
      <point x="37.1369" y="204.403" type="curve" smooth="yes"/>
      <point x="36.4932" y="207.097"/>
      <point x="38.1439" y="209.784"/>
      <point x="40.8381" y="210.428" type="curve" smooth="yes"/>
      <point x="43.5323" y="211.072"/>
      <point x="46.2195" y="209.421"/>
      <point x="46.8632" y="206.727" type="curve" smooth="yes"/>
      <point x="74.7073" y="90.1937"/>
      <point x="172.68" y="4.57762"/>
      <point x="291.321" y="-8.83393" type="curve" smooth="yes"/>
      <point x="443.06" y="-26.2634"/>
      <point x="572.491" y="91.1296"/>
      <point x="533.672" y="218.821" type="curve" smooth="yes"/>
      <point x="476.168" y="412.898"/>
      <point x="87.7689" y="301.757"/>
      <point x="66.4079" y="541.002" type="curve" smooth="yes"/>
      <point x="56.5809" y="653.466"/>
      <point x="169.843" y="732.345"/>
      <point x="291.185" y="721.701" type="curve" smooth="yes"/>
      <point x="415.136" y="711.016"/>
      <point x="517.709" y="620.194"/>
    </contour>
  </outline>
</glyph>
<glyph name="T" format="2">
  <advance width="708"/>
  <unicode hex="0054"/>
  <outline>
    <contour>
      <point x="16.2566" y="638.581" type="curve" smooth="yes"/>
      <point x="21.5562" y="654.48"/>
      <point x="31.0984" y="668.257"/>
      <point x="43.7622" y="678.81" type="curve"/>
      <point x="135.786" y="758.564"/>
      <point x="250.234" y="642"/>
      <point x="354" y="642" type="curve" smooth="yes"/>
      <point x="457.603" y="642"/>
      <point x="573.301" y="758.507"/>
      <point x="664.201" y="678.841" type="curve"/>
      <point x="676.902" y="668.257"/>
      <point x="686.444" y="654.48"/>
      <point x="691.743" y="638.581" type="curve" smooth="yes"/>
      <point x="692.619" y="635.953"/>
      <point x="691.209" y="633.132"/>
      <point x="688.581" y="632.256" type="curve" smooth="yes"/>
      <point x="685.953" y="631.38"/>
      <point x="683.132" y="632.791"/>
      <point x="682.256" y="635.419" type="curve" smooth="yes"/>
      <point x="677.556" y="649.52"/>
      <point x="669.098" y="661.743"/>
      <point x="657.752" y="671.199" type="curve"/>
      <point x="570.707" y="747.486"/>
      <point x="464.452" y="632"/>
      <point x="354" y="632" type="curve" smooth="yes"/>
      <point x="243.713" y="632"/>
      <point x="138.206" y="747.429"/>
      <point x="50.2009" y="671.159" type="curve"/>
      <point x="38.9016" y="661.743"/>
      <point x="30.4438" y="649.52"/>
      <point x="25.7434" y="635.419" type="curve" smooth="yes"/>
      <point x="24.8674" y="632.791"/>
      <point x="22.0466" y="631.381"/>
      <point x="19.4187" y="632.257" type="curve" smooth="yes"/>
      <point x="16.7908" y="633.133"/>
      <point x="15.3804" y="635.953"/>
    </contour>
    <contour>
      <point x="349" y="636" type="line" smooth="yes"/>
      <point x="349" y="638.77"/>
      <point x="351.23" y="641"/>
      <point x="354" y="641" type="curve" smooth="yes"/>
      <point x="356.77" y="641"/>
      <point x="359" y="638.77"/>
      <point x="359" y="636" type="curve" smooth="yes"/>
      <point x="359" y="0" type="line" smooth="yes"/>
      <point x="359" y="-2.77"/>
      <point x="356.77" y="-5"/>
      <point x="354" y="-5" type="curve" smooth="yes"/>
      <point x="351.23" y="-5"/>
      <point x="349" y="-2.77"/>
      <point x="349" y="0" type="curve" smooth="yes"/>
    </contour>
  </outline>
</glyph>
<glyph name="U" format="2">
  <advance width="639"/>
  <unicode hex="0055"/>
  <outline>
    <contour>
      <point x="59.7727" y="652.932" type="curve" smooth="yes"/>
      <point x="52.124" y="665.679"/>
      <point x="54.2023" y="680.1"/>
      <point x="61.7834" y="690.301" type="curve" smooth="yes"/>
      <point x="68.701" y="699.608"/>
      <point x="80.3556" y="705.634"/>
      <point x="93.5699" y="703.909" type="curve"/>
      <point x="116.665" y="701.344"/>
      <point x="126.975" y="676.056"/>
      <point x="126.975" y="655.504" type="curve" smooth="yes"/>
      <point x="126.975" y="470.959"/>
      <point x="14.6173" y="292.918"/>
      <point x="97.4988" y="125.109" type="curve" smooth="yes"/>
      <point x="148.349" y="22.392"/>
      <point x="229.184" y="-27.052"/>
      <point x="345.969" y="-15.8816" type="curve" smooth="yes"/>
      <point x="440.354" y="-7.76231"/>
      <point x="509.171" y="40.7872"/>
      <point x="550.828" y="125.116" type="curve" smooth="yes"/>
      <point x="634.487" y="292.432"/>
      <point x="507.903" y="472.095"/>
      <point x="507.903" y="655.504" type="curve" smooth="yes"/>
      <point x="507.903" y="670.596"/>
      <point x="513.59" y="684.701"/>
      <point x="522.827" y="693.987" type="curve" smooth="yes"/>
      <point x="531.538" y="702.744"/>
      <point x="543.596" y="707.316"/>
      <point x="556.577" y="703.775" type="curve" smooth="yes"/>
      <point x="564.346" y="701.731"/>
      <point x="570.546" y="697.298"/>
      <point x="574.746" y="691.564" type="curve" smooth="yes"/>
      <point x="582.924" y="680.395"/>
      <point x="583.36" y="664.471"/>
      <point x="573.688" y="652.381" type="curve" smooth="yes"/>
      <point x="571.958" y="650.218"/>
      <point x="568.824" y="649.869"/>
      <point x="566.661" y="651.6" type="curve" smooth="yes"/>
      <point x="564.498" y="653.33"/>
      <point x="564.149" y="656.465"/>
      <point x="565.88" y="658.628" type="curve" smooth="yes"/>
      <point x="572.627" y="667.062"/>
      <point x="572.285" y="677.999"/>
      <point x="566.678" y="685.656" type="curve" smooth="yes"/>
      <point x="563.823" y="689.553"/>
      <point x="559.566" y="692.649"/>
      <point x="553.99" y="694.116" type="curve" smooth="yes"/>
      <point x="545.035" y="696.558"/>
      <point x="536.561" y="693.613"/>
      <point x="529.917" y="686.935" type="curve" smooth="yes"/>
      <point x="522.72" y="679.7"/>
      <point x="517.903" y="668.215"/>
      <point x="517.903" y="655.504" type="curve" smooth="yes"/>
      <point x="517.903" y="472.77"/>
      <point x="645.739" y="292.576"/>
      <point x="559.788" y="120.677" type="curve" smooth="yes"/>
      <point x="516.635" y="33.3169"/>
      <point x="444.8" y="-17.4168"/>
      <point x="346.873" y="-25.8404" type="curve" smooth="yes"/>
      <point x="225.744" y="-37.4267"/>
      <point x="141.107" y="14.4809"/>
      <point x="88.536" y="120.675" type="curve" smooth="yes"/>
      <point x="3.87732" y="292.082"/>
      <point x="116.975" y="473.913"/>
      <point x="116.975" y="655.504" type="curve" smooth="yes"/>
      <point x="116.975" y="670.558"/>
      <point x="110.042" y="692.018"/>
      <point x="92.3712" y="693.982" type="curve"/>
      <point x="82.9878" y="695.206"/>
      <point x="74.7736" y="691.015"/>
      <point x="69.8095" y="684.336" type="curve" smooth="yes"/>
      <point x="64.363" y="677.007"/>
      <point x="63.0153" y="666.964"/>
      <point x="68.3479" y="658.077" type="curve" smooth="yes"/>
      <point x="69.7731" y="655.701"/>
      <point x="69.0082" y="652.642"/>
      <point x="66.6329" y="651.217" type="curve" smooth="yes"/>
      <point x="64.2576" y="649.791"/>
      <point x="61.1981" y="650.556"/>
    </contour>
  </outline>
</glyph>
<glyph name="V" format="2">
  <advance width="625"/>
  <unicode hex="0056"/>
  <outline>
    <contour>
      <point x="28.4404" y="655.948" type="curve" smooth="yes"/>
      <point x="23.1014" y="667.813"/>
      <point x="24.986" y="680.443"/>
      <point x="31.6627" y="689.925" type="curve" smooth="yes"/>
      <point x="37.9816" y="698.899"/>
      <point x="48.5456" y="705"/>
      <point x="61" y="705" type="curve" smooth="yes"/>
      <point x="71.4543" y="705"/>
      <point x="80.6576" y="700.327"/>
      <point x="87.0028" y="693.19" type="curve" smooth="yes"/>
      <point x="95.5143" y="683.616"/>
      <point x="98.9017" y="669.558"/>
      <point x="94.2401" y="657.905" type="curve"/>
      <point x="275.007" y="43.698" type="line"/>
      <point x="274.929" y="39.5887"/>
      <point x="274.941" y="6"/>
      <point x="312" y="6" type="curve" smooth="yes"/>
      <point x="333.203" y="6"/>
      <point x="349.364" y="24.2954"/>
      <point x="348.993" y="43.7017" type="curve"/>
      <point x="530.667" y="657.8" type="line"/>
      <point x="525.9" y="670.18"/>
      <point x="528.793" y="683.015"/>
      <point x="536.35" y="692.132" type="curve" smooth="yes"/>
      <point x="542.781" y="699.889"/>
      <point x="552.613" y="705"/>
      <point x="564" y="705" type="curve" smooth="yes"/>
      <point x="577.18" y="705"/>
      <point x="588.249" y="697.611"/>
      <point x="594.253" y="687.331" type="curve" smooth="yes"/>
      <point x="599.496" y="678.352"/>
      <point x="600.984" y="666.998"/>
      <point x="596.642" y="656.143" type="curve" smooth="yes"/>
      <point x="595.614" y="653.571"/>
      <point x="592.715" y="652.329"/>
      <point x="590.143" y="653.358" type="curve" smooth="yes"/>
      <point x="587.571" y="654.386"/>
      <point x="586.329" y="657.285"/>
      <point x="587.358" y="659.857" type="curve" smooth="yes"/>
      <point x="590.464" y="667.623"/>
      <point x="589.432" y="675.755"/>
      <point x="585.617" y="682.288" type="curve" smooth="yes"/>
      <point x="581.22" y="689.818"/>
      <point x="573.269" y="695"/>
      <point x="564" y="695" type="curve" smooth="yes"/>
      <point x="555.704" y="695"/>
      <point x="548.654" y="691.305"/>
      <point x="544.049" y="685.75" type="curve" smooth="yes"/>
      <point x="537.746" y="678.146"/>
      <point x="536.461" y="667.617"/>
      <point x="541.347" y="658.448" type="curve"/>
      <point x="358.993" y="42.1658" type="line"/>
      <point x="358.539" y="16.7829"/>
      <point x="337.485" y="-4"/>
      <point x="312" y="-4" type="curve" smooth="yes"/>
      <point x="286.514" y="-4"/>
      <point x="265.459" y="16.785"/>
      <point x="265.031" y="42.1746" type="curve"/>
      <point x="83.6907" y="658.331" type="line"/>
      <point x="86.3631" y="663.958"/>
      <point x="89.3444" y="675.506"/>
      <point x="79.5293" y="686.546" type="curve" smooth="yes"/>
      <point x="74.9422" y="691.706"/>
      <point x="68.4045" y="695"/>
      <point x="61" y="695" type="curve" smooth="yes"/>
      <point x="51.9457" y="695"/>
      <point x="44.3658" y="690.596"/>
      <point x="39.8389" y="684.168" type="curve" smooth="yes"/>
      <point x="35.1084" y="677.45"/>
      <point x="33.7295" y="668.563"/>
      <point x="37.5596" y="660.052" type="curve" smooth="yes"/>
      <point x="38.6963" y="657.526"/>
      <point x="37.5778" y="654.577"/>
      <point x="35.0518" y="653.44" type="curve" smooth="yes"/>
      <point x="32.5258" y="652.304"/>
      <point x="29.5771" y="653.422"/>
    </contour>
  </outline>
</glyph>
<glyph name="W" format="2">
  <advance width="792"/>
  <unicode hex="0057"/>
  <outline>
    <contour>
      <point x="765.961" y="663.38" type="curve" smooth="yes"/>
      <point x="765.618" y="660.631"/>
      <point x="763.128" y="658.695"/>
      <point x="760.38" y="659.039" type="curve" smooth="yes"/>
      <point x="757.631" y="659.382"/>
      <point x="755.695" y="661.872"/>
      <point x="756.039" y="664.62" type="curve" smooth="yes"/>
      <point x="758.671" y="685.677"/>
      <point x="740.148" y="705.48"/>
      <point x="718.707" y="702.05" type="curve" smooth="yes"/>
      <point x="700.573" y="699.46"/>
      <point x="687.531" y="681.864"/>
      <point x="679.639" y="662.135" type="curve" smooth="yes"/>
      <point x="600.457" y="466.16"/>
      <point x="803.666" y="254.08"/>
      <point x="702.449" y="57.7185" type="curve" smooth="yes"/>
      <point x="682.079" y="17.9978"/>
      <point x="644.661" y="-18.126"/>
      <point x="597.886" y="-15.9986" type="curve"/>
      <point x="551.325" y="-14.9404"/>
      <point x="515.046" y="19.8672"/>
      <point x="492.709" y="57.4337" type="curve" smooth="yes"/>
      <point x="414.765" y="187.002"/>
      <point x="449" y="345.649"/>
      <point x="449" y="492" type="curve" smooth="yes"/>
      <point x="449" y="525.946"/>
      <point x="426.796" y="558"/>
      <point x="401" y="558" type="curve" smooth="yes"/>
      <point x="374.252" y="558"/>
      <point x="353" y="526.014"/>
      <point x="353" y="492" type="curve" smooth="yes"/>
      <point x="353" y="345.649"/>
      <point x="387.235" y="187.002"/>
      <point x="309.298" y="57.4446" type="curve" smooth="yes"/>
      <point x="286.954" y="19.8671"/>
      <point x="250.675" y="-14.9405"/>
      <point x="204.227" y="-15.9948" type="curve"/>
      <point x="157.339" y="-18.1261"/>
      <point x="119.92" y="17.9978"/>
      <point x="99.5533" y="57.7138" type="curve" smooth="yes"/>
      <point x="-1.66636" y="254.08"/>
      <point x="201.543" y="466.16"/>
      <point x="122.358" y="662.143" type="curve" smooth="yes"/>
      <point x="114.469" y="681.864"/>
      <point x="101.427" y="699.46"/>
      <point x="83.21" y="702.063" type="curve" smooth="yes"/>
      <point x="61.8522" y="705.48"/>
      <point x="43.3293" y="685.677"/>
      <point x="45.9614" y="664.62" type="curve" smooth="yes"/>
      <point x="46.305" y="661.872"/>
      <point x="44.3688" y="659.382"/>
      <point x="41.6202" y="659.039" type="curve" smooth="yes"/>
      <point x="38.8716" y="658.695"/>
      <point x="36.3822" y="660.631"/>
      <point x="36.0386" y="663.38" type="curve" smooth="yes"/>
      <point x="32.6707" y="690.323"/>
      <point x="56.1477" y="716.52"/>
      <point x="84.7071" y="711.95" type="curve" smooth="yes"/>
      <point x="108.573" y="708.54"/>
      <point x="123.531" y="686.136"/>
      <point x="131.639" y="665.865" type="curve" smooth="yes"/>
      <point x="212.474" y="465.799"/>
      <point x="9.64812" y="253.955"/>
      <point x="108.449" y="62.2816" type="curve" smooth="yes"/>
      <point x="128.079" y="24.0023"/>
      <point x="162.661" y="-7.87387"/>
      <point x="203.886" y="-6.00127" type="curve"/>
      <point x="245.325" y="-5.05947"/>
      <point x="279.046" y="26.1329"/>
      <point x="300.709" y="62.5664" type="curve" smooth="yes"/>
      <point x="376.765" y="188.998"/>
      <point x="343" y="342.351"/>
      <point x="343" y="492" type="curve" smooth="yes"/>
      <point x="343" y="527.986"/>
      <point x="365.748" y="568"/>
      <point x="401" y="568" type="curve" smooth="yes"/>
      <point x="435.204" y="568"/>
      <point x="459" y="528.054"/>
      <point x="459" y="492" type="curve" smooth="yes"/>
      <point x="459" y="342.351"/>
      <point x="425.235" y="188.998"/>
      <point x="501.298" y="62.5554" type="curve" smooth="yes"/>
      <point x="522.954" y="26.1329"/>
      <point x="556.675" y="-5.0595"/>
      <point x="598.227" y="-6.0052" type="curve"/>
      <point x="639.339" y="-7.8739"/>
      <point x="673.92" y="24.0022"/>
      <point x="693.553" y="62.2862" type="curve" smooth="yes"/>
      <point x="792.352" y="253.955"/>
      <point x="589.526" y="465.799"/>
      <point x="670.358" y="665.857" type="curve" smooth="yes"/>
      <point x="678.469" y="686.136"/>
      <point x="693.427" y="708.54"/>
      <point x="717.21" y="711.937" type="curve" smooth="yes"/>
      <point x="745.852" y="716.52"/>
      <point x="769.329" y="690.323"/>
    </contour>
  </outline>
</glyph>
<glyph name="X" format="2">
  <advance width="554"/>
  <unicode hex="0058"/>
  <outline>
    <contour>
      <point x="21.9038" y="655.133" type="curve" smooth="yes"/>
      <point x="13.026" y="667.815"/>
      <point x="15.046" y="682.883"/>
      <point x="23.017" y="693.128" type="curve" smooth="yes"/>
      <point x="30.0157" y="702.124"/>
      <point x="41.7725" y="707.655"/>
      <point x="54.869" y="704.924" type="curve"/>
      <point x="75.8665" y="701.218"/>
      <point x="83.0786" y="676.895"/>
      <point x="85.9205" y="658.888" type="curve"/>
      <point x="112.273" y="512.939"/>
      <point x="148.044" y="356"/>
      <point x="277" y="356" type="curve" smooth="yes"/>
      <point x="404.95" y="356"/>
      <point x="440.724" y="512.918"/>
      <point x="467.061" y="658.78" type="curve"/>
      <point x="470.034" y="677.611"/>
      <point x="477.483" y="701.316"/>
      <point x="498.98" y="704.895" type="curve"/>
      <point x="513.677" y="707.957"/>
      <point x="526.211" y="700.828"/>
      <point x="532.675" y="690.133" type="curve" smooth="yes"/>
      <point x="538.724" y="680.123"/>
      <point x="539.635" y="666.726"/>
      <point x="532.192" y="655.275" type="curve" smooth="yes"/>
      <point x="530.683" y="652.953"/>
      <point x="527.597" y="652.298"/>
      <point x="525.275" y="653.808" type="curve" smooth="yes"/>
      <point x="522.952" y="655.317"/>
      <point x="522.298" y="658.402"/>
      <point x="523.808" y="660.725" type="curve" smooth="yes"/>
      <point x="528.953" y="668.641"/>
      <point x="528.388" y="677.892"/>
      <point x="524.116" y="684.96" type="curve" smooth="yes"/>
      <point x="519.584" y="692.46"/>
      <point x="511.083" y="697.202"/>
      <point x="500.822" y="695.068" type="curve"/>
      <point x="484.35" y="692.323"/>
      <point x="479.117" y="671.017"/>
      <point x="476.92" y="657.112" type="curve"/>
      <point x="451.276" y="515.082"/>
      <point x="415.05" y="346"/>
      <point x="277" y="346" type="curve" smooth="yes"/>
      <point x="137.957" y="346"/>
      <point x="101.728" y="515.061"/>
      <point x="76.0612" y="657.22" type="curve"/>
      <point x="74.0063" y="670.235"/>
      <point x="68.8087" y="692.309"/>
      <point x="52.9802" y="695.105" type="curve"/>
      <point x="43.8286" y="697.012"/>
      <point x="35.7995" y="693.273"/>
      <point x="30.9095" y="686.988" type="curve" smooth="yes"/>
      <point x="25.2921" y="679.768"/>
      <point x="24.0401" y="669.519"/>
      <point x="30.0962" y="660.867" type="curve" smooth="yes"/>
      <point x="31.6847" y="658.598"/>
      <point x="31.1366" y="655.492"/>
      <point x="28.8673" y="653.904" type="curve" smooth="yes"/>
      <point x="26.598" y="652.315"/>
      <point x="23.4923" y="652.863"/>
    </contour>
    <contour>
      <point x="21.9038" y="46.8673" type="curve" smooth="yes"/>
      <point x="23.4923" y="49.1366"/>
      <point x="26.598" y="49.6847"/>
      <point x="28.8673" y="48.0962" type="curve" smooth="yes"/>
      <point x="31.1366" y="46.5077"/>
      <point x="31.6847" y="43.402"/>
      <point x="30.0962" y="41.1327" type="curve" smooth="yes"/>
      <point x="24.4032" y="33"/>
      <point x="25.1821" y="23.7637"/>
      <point x="29.8908" y="16.8015" type="curve" smooth="yes"/>
      <point x="34.6295" y="9.79574"/>
      <point x="43.2512" y="5.27646"/>
      <point x="52.8549" y="6.86606" type="curve"/>
      <point x="68.6445" y="10.5813"/>
      <point x="73.8852" y="30.9974"/>
      <point x="76.0647" y="44.7999" type="curve" smooth="yes"/>
      <point x="104.578" y="215.879"/>
      <point x="109.74" y="433.999"/>
      <point x="277" y="433.999" type="curve" smooth="yes"/>
      <point x="443.282" y="433.999"/>
      <point x="449.405" y="215.884"/>
      <point x="476.939" y="44.7788" type="curve" smooth="yes"/>
      <point x="479.226" y="30.296"/>
      <point x="484.527" y="10.5594"/>
      <point x="500.822" y="6.93101" type="curve"/>
      <point x="510.599" y="5.30151"/>
      <point x="518.869" y="9.65949"/>
      <point x="523.527" y="16.4935" type="curve" smooth="yes"/>
      <point x="528.315" y="23.5163"/>
      <point x="529.191" y="32.9931"/>
      <point x="523.808" y="41.2741" type="curve" smooth="yes"/>
      <point x="522.298" y="43.5966"/>
      <point x="522.953" y="46.6817"/>
      <point x="525.275" y="48.1913" type="curve" smooth="yes"/>
      <point x="527.598" y="49.7009"/>
      <point x="530.683" y="49.0465"/>
      <point x="532.192" y="46.724" type="curve" smooth="yes"/>
      <point x="539.975" y="34.7515"/>
      <point x="538.632" y="20.8983"/>
      <point x="531.79" y="10.861" type="curve" smooth="yes"/>
      <point x="525.111" y="1.06218"/>
      <point x="513.097" y="-5.25262"/>
      <point x="498.915" y="-2.88192" type="curve"/>
      <point x="477.567" y="1.86208"/>
      <point x="470.079" y="24.1057"/>
      <point x="467.062" y="43.2119" type="curve" smooth="yes"/>
      <point x="438.595" y="220.114"/>
      <point x="432.718" y="423.999"/>
      <point x="277" y="423.999" type="curve" smooth="yes"/>
      <point x="120.26" y="423.999"/>
      <point x="115.422" y="220.119"/>
      <point x="85.9388" y="43.2192" type="curve" smooth="yes"/>
      <point x="83.0276" y="24.7823"/>
      <point x="75.75" y="1.98014"/>
      <point x="54.822" y="-2.933" type="curve"/>
      <point x="40.7488" y="-5.2785"/>
      <point x="28.3686" y="1.20328"/>
      <point x="21.6075" y="11.199" type="curve" smooth="yes"/>
      <point x="14.8179" y="21.2379"/>
      <point x="13.5968" y="35"/>
    </contour>
  </outline>
</glyph>
<glyph name="Y" format="2">
  <advance width="676"/>
  <unicode hex="0059"/>
  <outline>
    <contour>
      <point x="82.7125" y="655.428" type="curve" smooth="yes"/>
      <point x="75.4931" y="667.46"/>
      <point x="77.1906" y="681.039"/>
      <point x="84.0492" y="690.888" type="curve" smooth="yes"/>
      <point x="90.683" y="700.414"/>
      <point x="102.305" y="706.698"/>
      <point x="115.552" y="704.969" type="curve"/>
      <point x="138.068" y="702.468"/>
      <point x="147" y="677.759"/>
      <point x="147" y="658" type="curve" smooth="yes"/>
      <point x="147" y="615.19"/>
      <point x="133.65" y="574.304"/>
      <point x="119.876" y="534.583" type="curve" smooth="yes"/>
      <point x="100.355" y="478.289"/>
      <point x="79.8825" y="424.221"/>
      <point x="91.9012" y="366.989" type="curve" smooth="yes"/>
      <point x="113.229" y="261.317"/>
      <point x="223.192" y="203"/>
      <point x="338" y="203" type="curve" smooth="yes"/>
      <point x="451.795" y="203"/>
      <point x="561.769" y="261.308"/>
      <point x="583.103" y="367.008" type="curve" smooth="yes"/>
      <point x="595.113" y="424.2"/>
      <point x="574.708" y="478.104"/>
      <point x="555.124" y="534.583" type="curve" smooth="yes"/>
      <point x="541.35" y="574.304"/>
      <point x="528" y="615.19"/>
      <point x="528" y="658" type="curve" smooth="yes"/>
      <point x="528" y="672.667"/>
      <point x="533.539" y="686.38"/>
      <point x="542.544" y="695.392" type="curve" smooth="yes"/>
      <point x="550.996" y="703.852"/>
      <point x="562.688" y="708.268"/>
      <point x="575.272" y="704.835" type="curve" smooth="yes"/>
      <point x="584.257" y="702.471"/>
      <point x="591.066" y="696.824"/>
      <point x="595.02" y="689.702" type="curve" smooth="yes"/>
      <point x="600.875" y="679.154"/>
      <point x="600.392" y="665.487"/>
      <point x="591.904" y="654.877" type="curve" smooth="yes"/>
      <point x="590.174" y="652.714"/>
      <point x="587.04" y="652.365"/>
      <point x="584.877" y="654.096" type="curve" smooth="yes"/>
      <point x="582.714" y="655.826"/>
      <point x="582.365" y="658.96"/>
      <point x="584.096" y="661.123" type="curve" smooth="yes"/>
      <point x="589.953" y="668.445"/>
      <point x="590.239" y="677.711"/>
      <point x="586.277" y="684.848" type="curve" smooth="yes"/>
      <point x="583.623" y="689.628"/>
      <point x="579.03" y="693.506"/>
      <point x="572.684" y="695.176" type="curve" smooth="yes"/>
      <point x="564.114" y="697.514"/>
      <point x="556" y="694.712"/>
      <point x="549.618" y="688.324" type="curve" smooth="yes"/>
      <point x="542.666" y="681.366"/>
      <point x="538" y="670.281"/>
      <point x="538" y="658" type="curve" smooth="yes"/>
      <point x="538" y="617.091"/>
      <point x="550.759" y="577.692"/>
      <point x="564.572" y="537.86" type="curve" smooth="yes"/>
      <point x="584.026" y="481.758"/>
      <point x="605.476" y="424.888"/>
      <point x="592.901" y="365.011" type="curve" smooth="yes"/>
      <point x="570.231" y="252.692"/>
      <point x="454.205" y="193"/>
      <point x="338" y="193" type="curve" smooth="yes"/>
      <point x="220.808" y="193"/>
      <point x="104.771" y="252.683"/>
      <point x="82.1028" y="364.992" type="curve" smooth="yes"/>
      <point x="69.5201" y="424.909"/>
      <point x="91.0383" y="481.943"/>
      <point x="110.428" y="537.859" type="curve" smooth="yes"/>
      <point x="124.241" y="577.692"/>
      <point x="137" y="617.09"/>
      <point x="137" y="658" type="curve" smooth="yes"/>
      <point x="137" y="672.173"/>
      <point x="131.32" y="693.156"/>
      <point x="114.353" y="695.042" type="curve"/>
      <point x="105.068" y="696.253"/>
      <point x="96.9671" y="691.939"/>
      <point x="92.2555" y="685.173" type="curve" smooth="yes"/>
      <point x="87.3944" y="678.193"/>
      <point x="86.3121" y="668.865"/>
      <point x="91.2875" y="660.572" type="curve" smooth="yes"/>
      <point x="92.7127" y="658.197"/>
      <point x="91.9478" y="655.138"/>
      <point x="89.5725" y="653.712" type="curve" smooth="yes"/>
      <point x="87.1972" y="652.287"/>
      <point x="84.1377" y="653.052"/>
    </contour>
    <contour>
      <point x="586" y="421" type="curve" smooth="yes"/>
      <point x="586" y="423.77"/>
      <point x="588.23" y="426"/>
      <point x="591" y="426" type="curve" smooth="yes"/>
      <point x="593.77" y="426"/>
      <point x="596" y="423.77"/>
      <point x="596" y="421" type="curve" smooth="yes"/>
      <point x="596" y="370.156"/>
      <point x="615.255" y="316.795"/>
      <point x="631.339" y="261.607" type="curve" smooth="yes"/>
      <point x="644.672" y="215.855"/>
      <point x="655.521" y="169.352"/>
      <point x="648.951" y="124.301" type="curve" smooth="yes"/>
      <point x="636.653" y="37.1933"/>
      <point x="562.677" y="-32.3196"/>
      <point x="476.454" y="-22.9701" type="curve" smooth="yes"/>
      <point x="411.919" y="-15.7995"/>
      <point x="364.508" y="36.6333"/>
      <point x="308.003" y="61.4161" type="curve" smooth="yes"/>
      <point x="208.513" y="104.758"/>
      <point x="93.4807" y="87.6221"/>
      <point x="35.2015" y="-2.71063" type="curve" smooth="yes"/>
      <point x="33.6998" y="-5.03823"/>
      <point x="30.617" y="-5.70313"/>
      <point x="28.2894" y="-4.20143" type="curve" smooth="yes"/>
      <point x="25.9618" y="-2.69973"/>
      <point x="25.2969" y="0.383066"/>
      <point x="26.7986" y="2.71067" type="curve" smooth="yes"/>
      <point x="88.5194" y="98.3779"/>
      <point x="209.487" y="115.242"/>
      <point x="312.003" y="70.5815" type="curve" smooth="yes"/>
      <point x="369.572" y="45.3319"/>
      <point x="416.056" y="-6.19769"/>
      <point x="477.539" y="-13.0291" type="curve" smooth="yes"/>
      <point x="557.323" y="-21.6804"/>
      <point x="627.347" y="42.8067"/>
      <point x="639.052" y="125.722" type="curve" smooth="yes"/>
      <point x="645.285" y="168.46"/>
      <point x="635.054" y="213.117"/>
      <point x="621.738" y="258.809" type="curve" smooth="yes"/>
      <point x="605.993" y="312.838"/>
      <point x="586" y="368.235"/>
    </contour>
  </outline>
</glyph>
<glyph name="Z" format="2">
  <advance width="634"/>
  <unicode hex="005A"/>
  <outline>
    <contour>
      <point x="68.0971" y="657.019" type="curve" smooth="yes"/>
      <point x="65.6571" y="669.219"/>
      <point x="68.8748" y="680.834"/>
      <point x="75.5889" y="689.639" type="curve" smooth="yes"/>
      <point x="84.515" y="701.345"/>
      <point x="99.6951" y="708.16"/>
      <point x="115.981" y="704.903" type="curve" smooth="yes"/>
      <point x="138.869" y="700.325"/>
      <point x="150.054" y="677.432"/>
      <point x="161.216" y="660.689" type="curve"/>
      <point x="240.238" y="536.789"/>
      <point x="420.757" y="536.744"/>
      <point x="500.766" y="660.66" type="curve"/>
      <point x="511.415" y="678.085"/>
      <point x="523.698" y="700.439"/>
      <point x="546.019" y="704.903" type="curve" smooth="yes"/>
      <point x="575.692" y="710.837"/>
      <point x="600.041" y="683.032"/>
      <point x="593.6" y="655.625" type="curve"/>
      <point x="35.6728" y="42.7354" type="line"/>
      <point x="32.3533" y="21.7774"/>
      <point x="50.9471" y="3.68845"/>
      <point x="72.0194" y="7.90291" type="curve" smooth="yes"/>
      <point x="89.1697" y="11.333"/>
      <point x="99.0819" y="28.5407"/>
      <point x="110.758" y="47.6474" type="curve" smooth="yes"/>
      <point x="205.716" y="199.784"/>
      <point x="428.284" y="199.784"/>
      <point x="523.254" y="47.6273" type="curve" smooth="yes"/>
      <point x="534.461" y="29.2887"/>
      <point x="544.18" y="11.463"/>
      <point x="561.981" y="7.9029" type="curve" smooth="yes"/>
      <point x="571.79" y="5.941"/>
      <point x="580.81" y="8.7938"/>
      <point x="587.451" y="14.5159" type="curve" smooth="yes"/>
      <point x="595.412" y="21.3754"/>
      <point x="599.957" y="32.37"/>
      <point x="598.063" y="44.2101" type="curve" smooth="yes"/>
      <point x="597.625" y="46.9453"/>
      <point x="599.475" y="49.4996"/>
      <point x="602.21" y="49.9372" type="curve" smooth="yes"/>
      <point x="604.945" y="50.3748"/>
      <point x="607.5" y="48.5251"/>
      <point x="607.937" y="45.7899" type="curve" smooth="yes"/>
      <point x="610.395" y="30.4308"/>
      <point x="604.496" y="16.0018"/>
      <point x="593.978" y="6.9399" type="curve" smooth="yes"/>
      <point x="585.128" y="-0.684845"/>
      <point x="573.011" y="-4.50127"/>
      <point x="560.019" y="-1.90297" type="curve" smooth="yes"/>
      <point x="537.17" y="2.66696"/>
      <point x="525.082" y="25.4592"/>
      <point x="514.758" y="42.3525" type="curve" smooth="yes"/>
      <point x="423.716" y="188.216"/>
      <point x="210.284" y="188.216"/>
      <point x="119.254" y="42.3726" type="curve" smooth="yes"/>
      <point x="108.461" y="24.7113"/>
      <point x="96.18" y="2.53695"/>
      <point x="73.9805" y="-1.90296" type="curve" smooth="yes"/>
      <point x="44.308" y="-7.83747"/>
      <point x="19.9588" y="19.9676"/>
      <point x="26.4001" y="47.3745" type="curve"/>
      <point x="584.327" y="660.265" type="line"/>
      <point x="587.647" y="681.223"/>
      <point x="569.053" y="699.311"/>
      <point x="547.98" y="695.097" type="curve" smooth="yes"/>
      <point x="530.83" y="691.667"/>
      <point x="520.917" y="674.46"/>
      <point x="509.2" y="655.288" type="curve"/>
      <point x="425.243" y="525.256"/>
      <point x="235.762" y="525.211"/>
      <point x="152.812" y="655.269" type="curve"/>
      <point x="140.742" y="673.373"/>
      <point x="131.907" y="691.519"/>
      <point x="114.019" y="695.097" type="curve" smooth="yes"/>
      <point x="101.74" y="697.553"/>
      <point x="90.3129" y="692.456"/>
      <point x="83.5407" y="683.575" type="curve" smooth="yes"/>
      <point x="78.4753" y="676.933"/>
      <point x="76.0558" y="668.216"/>
      <point x="77.9028" y="658.981" type="curve" smooth="yes"/>
      <point x="78.446" y="656.264"/>
      <point x="76.6966" y="653.64"/>
      <point x="73.9804" y="653.097" type="curve" smooth="yes"/>
      <point x="71.2642" y="652.554"/>
      <point x="68.6402" y="654.303"/>
    </contour>
  </outline>
</glyph>
<glyph name="underscore" format="2">
  <advance width="541"/>
  <unicode hex="005F"/>
  <outline>
    <contour>
      <point x="520.625" y="5" type="line" smooth="yes"/>
      <point x="523.395" y="5"/>
      <point x="525.625" y="2.77"/>
      <point x="525.625" y="0" type="curve" smooth="yes"/>
      <point x="525.625" y="-2.77"/>
      <point x="523.395" y="-5"/>
      <point x="520.625" y="-5" type="curve" smooth="yes"/>
      <point x="20.8141" y="-5" type="line" smooth="yes"/>
      <point x="18.0441" y="-5"/>
      <point x="15.8141" y="-2.77"/>
      <point x="15.8141" y="0" type="curve" smooth="yes"/>
      <point x="15.8141" y="2.77"/>
      <point x="18.0441" y="5"/>
      <point x="20.8141" y="5" type="curve" smooth="yes"/>
    </contour>
  </outline>
</glyph>
<glyph name="grave" format="2">
  <advance width="281"/>
  <unicode hex="0060"/>
  <outline>
    <contour>
      <point x="262.974" y="589.594" type="line" smooth="yes"/>
      <point x="265.519" y="588.5"/>
      <point x="266.687" y="585.571"/>
      <point x="265.594" y="583.026" type="curve" smooth="yes"/>
      <point x="264.5" y="580.481"/>
      <point x="261.571" y="579.313"/>
      <point x="259.026" y="580.406" type="curve" smooth="yes"/>
      <point x="17.0258" y="684.406" type="line" smooth="yes"/>
      <point x="14.4809" y="685.5"/>
      <point x="13.3126" y="688.429"/>
      <point x="14.4063" y="690.974" type="curve" smooth="yes"/>
      <point x="15.5" y="693.519"/>
      <point x="18.4293" y="694.687"/>
      <point x="20.9742" y="693.594" type="curve" smooth="yes"/>
    </contour>
  </outline>
</glyph>
<glyph name="a" format="2">
  <advance width="523"/>
  <unicode hex="0061"/>
  <outline>
    <contour>
      <point x="50.16" y="379.255" type="curve" smooth="yes"/>
      <point x="71.726" y="462.438"/>
      <point x="146.716" y="521.028"/>
      <point x="233.052" y="520" type="curve" smooth="yes"/>
      <point x="346.934" y="518.974"/>
      <point x="435.211" y="422.418"/>
      <point x="426" y="309.835" type="curve"/>
      <point x="426" y="52.0045" type="line"/>
      <point x="424.555" y="48.6488"/>
      <point x="417.326" y="30.6543"/>
      <point x="433.076" y="15.2365" type="curve" smooth="yes"/>
      <point x="438.846" y="9.58858"/>
      <point x="446.79" y="6"/>
      <point x="456" y="6" type="curve" smooth="yes"/>
      <point x="466.871" y="6"/>
      <point x="476.14" y="11.4679"/>
      <point x="481.844" y="19.6649" type="curve" smooth="yes"/>
      <point x="487.875" y="28.3336"/>
      <point x="489.836" y="39.9467"/>
      <point x="485.358" y="51.1431" type="curve" smooth="yes"/>
      <point x="484.329" y="53.715"/>
      <point x="485.571" y="56.6137"/>
      <point x="488.143" y="57.6424" type="curve" smooth="yes"/>
      <point x="490.715" y="58.6711"/>
      <point x="493.614" y="57.4288"/>
      <point x="494.642" y="54.8569" type="curve" smooth="yes"/>
      <point x="500.419" y="40.4142"/>
      <point x="497.922" y="25.2645"/>
      <point x="490.052" y="13.9535" type="curve" smooth="yes"/>
      <point x="482.635" y="3.29388"/>
      <point x="470.426" y="-4"/>
      <point x="456" y="-4" type="curve" smooth="yes"/>
      <point x="444.12" y="-4"/>
      <point x="433.68" y="0.65212"/>
      <point x="426.081" y="8.09021" type="curve" smooth="yes"/>
      <point x="414.325" y="19.5986"/>
      <point x="409.526" y="37.6516"/>
      <point x="416" y="53.8375" type="curve"/>
      <point x="416" y="310.206" type="line"/>
      <point x="424.898" y="417.55"/>
      <point x="340.979" y="509.027"/>
      <point x="232.94" y="510" type="curve" smooth="yes"/>
      <point x="151.286" y="510.972"/>
      <point x="80.2742" y="455.563"/>
      <point x="59.84" y="376.745" type="curve" smooth="yes"/>
      <point x="59.1448" y="374.063"/>
      <point x="56.4265" y="372.464"/>
      <point x="53.7451" y="373.16" type="curve" smooth="yes"/>
      <point x="51.0637" y="373.855"/>
      <point x="49.4647" y="376.573"/>
    </contour>
    <contour>
      <point x="426" y="310" type="curve" smooth="yes"/>
      <point x="426" y="91.1325"/>
      <point x="111.807" y="278.415"/>
      <point x="49.3196" y="170.482" type="curve" smooth="yes"/>
      <point x="-2.34352" y="82.4633"/>
      <point x="98.1205" y="-29.3241"/>
      <point x="232.05" y="-4.09109" type="curve" smooth="yes"/>
      <point x="323.117" y="13.5348"/>
      <point x="395.564" y="83.0532"/>
      <point x="416.123" y="174.101" type="curve" smooth="yes"/>
      <point x="416.733" y="176.803"/>
      <point x="419.399" y="178.487"/>
      <point x="422.101" y="177.877" type="curve" smooth="yes"/>
      <point x="424.803" y="177.267"/>
      <point x="426.487" y="174.601"/>
      <point x="425.877" y="171.899" type="curve" smooth="yes"/>
      <point x="404.437" y="76.9469"/>
      <point x="328.883" y="4.46533"/>
      <point x="233.938" y="-13.9111" type="curve" smooth="yes"/>
      <point x="91.7085" y="-40.708"/>
      <point x="-15.5732" y="79.6787"/>
      <point x="40.6805" y="175.518" type="curve" smooth="yes"/>
      <point x="110.181" y="295.564"/>
      <point x="416" y="98.8706"/>
      <point x="416" y="310" type="curve" smooth="yes"/>
      <point x="416" y="312.77"/>
      <point x="418.23" y="315"/>
      <point x="421" y="315" type="curve" smooth="yes"/>
      <point x="423.77" y="315"/>
      <point x="426" y="312.77"/>
    </contour>
  </outline>
</glyph>
<glyph name="b" format="2">
  <advance width="536"/>
  <unicode hex="0062"/>
  <outline>
    <contour>
      <point x="92.3585" y="292.793" type="curve" smooth="yes"/>
      <point x="109.239" y="415.642"/>
      <point x="196.91" y="523.838"/>
      <point x="314.909" y="514.244" type="curve" smooth="yes"/>
      <point x="432.831" y="503.698"/>
      <point x="500.407" y="383.305"/>
      <point x="502.279" y="259.741" type="curve" smooth="yes"/>
      <point x="505.086" y="130.61"/>
      <point x="436.696" y="1.64829"/>
      <point x="314.887" y="-8.90204" type="curve" smooth="yes"/>
      <point x="168.264" y="-21.3602"/>
      <point x="69.8666" y="133.475"/>
    </contour>
    <contour>
      <point x="102.263" y="291.413" type="curve" smooth="yes"/>
      <point x="80.2134" y="135.229"/>
      <point x="176.696" y="-10.6078"/>
      <point x="314.033" y="1.06136" type="curve" smooth="yes"/>
      <point x="427.944" y="10.9277"/>
      <point x="495.042" y="132.526"/>
      <point x="492.281" y="259.556" type="curve" smooth="yes"/>
      <point x="490.441" y="380.95"/>
      <point x="424.385" y="494.414"/>
      <point x="314.059" y="504.28" type="curve" smooth="yes"/>
      <point x="203.73" y="513.25"/>
      <point x="118.793" y="411.718"/>
    </contour>
    <contour>
      <point x="99" y="-1" type="line" smooth="yes"/>
      <point x="99" y="-3.77"/>
      <point x="96.77" y="-6"/>
      <point x="94" y="-6" type="curve" smooth="yes"/>
      <point x="91.23" y="-6"/>
      <point x="89" y="-3.77"/>
      <point x="89" y="-1" type="curve" smooth="yes"/>
      <point x="89" y="646.996" type="line"/>
      <point x="90.4752" y="650.418"/>
      <point x="97.226" y="667.397"/>
      <point x="83.0636" y="683.212" type="curve" smooth="yes"/>
      <point x="77.1921" y="689.769"/>
      <point x="68.7891" y="694"/>
      <point x="59" y="694" type="curve" smooth="yes"/>
      <point x="48.5994" y="694"/>
      <point x="39.5584" y="689.221"/>
      <point x="33.5306" y="681.949" type="curve" smooth="yes"/>
      <point x="25.9772" y="672.836"/>
      <point x="23.2984" y="660.01"/>
      <point x="28.5766" y="648.014" type="curve" smooth="yes"/>
      <point x="29.6922" y="645.478"/>
      <point x="28.5491" y="642.539"/>
      <point x="26.0137" y="641.423" type="curve" smooth="yes"/>
      <point x="23.4783" y="640.308"/>
      <point x="20.539" y="641.451"/>
      <point x="19.4234" y="643.986" type="curve" smooth="yes"/>
      <point x="12.5164" y="659.684"/>
      <point x="16.0468" y="676.526"/>
      <point x="25.8316" y="688.331" type="curve" smooth="yes"/>
      <point x="33.6205" y="697.727"/>
      <point x="45.4" y="704"/>
      <point x="59" y="704" type="curve" smooth="yes"/>
      <point x="71.7696" y="704"/>
      <point x="82.8423" y="698.449"/>
      <point x="90.5132" y="689.883" type="curve" smooth="yes"/>
      <point x="101.098" y="678.063"/>
      <point x="105.157" y="660.551"/>
      <point x="99" y="645.158" type="curve"/>
    </contour>
  </outline>
</glyph>
<glyph name="c" format="2">
  <advance width="482"/>
  <unicode hex="0063"/>
  <outline>
    <contour>
      <point x="424.99" y="436.013" type="curve" smooth="yes"/>
      <point x="426.659" y="433.802"/>
      <point x="426.224" y="430.679"/>
      <point x="424.013" y="429.01" type="curve" smooth="yes"/>
      <point x="421.802" y="427.341"/>
      <point x="418.679" y="427.776"/>
      <point x="417.01" y="429.987" type="curve" smooth="yes"/>
      <point x="380.786" y="477.959"/>
      <point x="330.172" y="508"/>
      <point x="269" y="508" type="curve" smooth="yes"/>
      <point x="146.977" y="508"/>
      <point x="65" y="385.636"/>
      <point x="65" y="252" type="curve" smooth="yes"/>
      <point x="65" y="117.351"/>
      <point x="146.987" y="-5"/>
      <point x="269" y="-5" type="curve" smooth="yes"/>
      <point x="330.13" y="-5"/>
      <point x="380.773" y="26.0035"/>
      <point x="417.04" y="73.0525" type="curve" smooth="yes"/>
      <point x="418.731" y="75.2464"/>
      <point x="421.859" y="75.6512"/>
      <point x="424.053" y="73.9601" type="curve" smooth="yes"/>
      <point x="426.246" y="72.269"/>
      <point x="426.651" y="69.1414"/>
      <point x="424.96" y="66.9475" type="curve" smooth="yes"/>
      <point x="387.227" y="17.9965"/>
      <point x="333.87" y="-15"/>
      <point x="269" y="-15" type="curve" smooth="yes"/>
      <point x="139.013" y="-15"/>
      <point x="55" y="114.649"/>
      <point x="55" y="252" type="curve" smooth="yes"/>
      <point x="55" y="388.364"/>
      <point x="139.023" y="518"/>
      <point x="269" y="518" type="curve" smooth="yes"/>
      <point x="333.828" y="518"/>
      <point x="387.214" y="486.041"/>
    </contour>
  </outline>
</glyph>
<glyph name="d" format="2">
  <advance width="536"/>
  <unicode hex="0064"/>
  <outline>
    <contour>
      <point x="433.737" y="291.413" type="curve" smooth="yes"/>
      <point x="455.787" y="135.229"/>
      <point x="359.304" y="-10.6078"/>
      <point x="221.967" y="1.06136" type="curve" smooth="yes"/>
      <point x="108.056" y="10.9277"/>
      <point x="40.958" y="132.526"/>
      <point x="43.7194" y="259.556" type="curve" smooth="yes"/>
      <point x="45.5587" y="380.95"/>
      <point x="111.615" y="494.414"/>
      <point x="221.941" y="504.28" type="curve" smooth="yes"/>
      <point x="332.27" y="513.25"/>
      <point x="417.207" y="411.718"/>
    </contour>
    <contour>
      <point x="443.641" y="292.793" type="curve" smooth="yes"/>
      <point x="426.761" y="415.642"/>
      <point x="339.09" y="523.838"/>
      <point x="221.091" y="514.244" type="curve" smooth="yes"/>
      <point x="103.169" y="503.698"/>
      <point x="35.5933" y="383.305"/>
      <point x="33.7212" y="259.741" type="curve" smooth="yes"/>
      <point x="30.914" y="130.61"/>
      <point x="99.3042" y="1.6483"/>
      <point x="221.113" y="-8.90203" type="curve" smooth="yes"/>
      <point x="367.736" y="-21.3602"/>
      <point x="466.133" y="133.475"/>
    </contour>
    <contour>
      <point x="516.577" y="54.0137" type="curve" smooth="yes"/>
      <point x="515.461" y="56.5491"/>
      <point x="512.522" y="57.6921"/>
      <point x="509.986" y="56.5765" type="curve" smooth="yes"/>
      <point x="507.451" y="55.4609"/>
      <point x="506.308" y="52.5216"/>
      <point x="507.423" y="49.9862" type="curve" smooth="yes"/>
      <point x="512.361" y="38.7642"/>
      <point x="510.336" y="26.8315"/>
      <point x="503.879" y="17.8739" type="curve" smooth="yes"/>
      <point x="497.907" y="9.58816"/>
      <point x="488.243" y="4"/>
      <point x="477" y="4" type="curve" smooth="yes"/>
      <point x="466.831" y="4"/>
      <point x="458.151" y="8.56763"/>
      <point x="452.257" y="15.5706" type="curve" smooth="yes"/>
      <point x="439.071" y="31.236"/>
      <point x="445.505" y="47.5356"/>
      <point x="447" y="51.0038" type="curve"/>
      <point x="447" y="699" type="line" smooth="yes"/>
      <point x="447" y="701.77"/>
      <point x="444.77" y="704"/>
      <point x="442" y="704" type="curve" smooth="yes"/>
      <point x="439.23" y="704"/>
      <point x="437" y="701.77"/>
      <point x="437" y="699" type="curve" smooth="yes"/>
      <point x="437" y="52.8459" type="line"/>
      <point x="431.025" y="37.9078"/>
      <point x="434.682" y="20.9212"/>
      <point x="444.606" y="9.13096" type="curve" smooth="yes"/>
      <point x="452.296" y="-0.00507736"/>
      <point x="463.729" y="-6"/>
      <point x="477" y="-6" type="curve" smooth="yes"/>
      <point x="491.707" y="-6"/>
      <point x="504.281" y="1.32996"/>
      <point x="511.991" y="12.0266" type="curve" smooth="yes"/>
      <point x="520.373" y="23.6546"/>
      <point x="523.033" y="39.3396"/>
    </contour>
  </outline>
</glyph>
<glyph name="e" format="2">
  <advance width="488"/>
  <unicode hex="0065"/>
  <outline>
    <contour>
      <point x="451.922" y="170.119" type="curve" smooth="yes"/>
      <point x="434.542" y="72.995"/>
      <point x="356.836" y="-1.65851"/>
      <point x="259.64" y="-14.9589" type="curve" smooth="yes"/>
      <point x="132.169" y="-31.4067"/>
      <point x="52.2414" y="56.4263"/>
      <point x="40.0265" y="173.485" type="curve" smooth="yes"/>
      <point x="36.5101" y="207.771"/>
      <point x="94.2141" y="219.594"/>
      <point x="151.536" y="229.921" type="curve" smooth="yes"/>
      <point x="264.129" y="250.205"/>
      <point x="417.3" y="269.987"/>
      <point x="435.064" y="377.799" type="curve" smooth="yes"/>
      <point x="448.594" y="462.846"/>
      <point x="356.711" y="525.376"/>
      <point x="259.883" y="509.079" type="curve" smooth="yes"/>
      <point x="183.098" y="495.297"/>
      <point x="120.594" y="463.062"/>
      <point x="74.4454" y="373.711" type="curve" smooth="yes"/>
      <point x="23.3335" y="274.436"/>
      <point x="44.0562" y="140.255"/>
      <point x="78.3189" y="81.5193" type="curve" smooth="yes"/>
      <point x="79.7146" y="79.1266"/>
      <point x="78.912" y="76.0767"/>
      <point x="76.5193" y="74.681" type="curve" smooth="yes"/>
      <point x="74.1266" y="73.2853"/>
      <point x="71.0767" y="74.0879"/>
      <point x="69.681" y="76.4806" type="curve" smooth="yes"/>
      <point x="33.9437" y="137.745"/>
      <point x="12.6663" y="275.564"/>
      <point x="65.5574" y="378.294" type="curve" smooth="yes"/>
      <point x="113.406" y="470.938"/>
      <point x="178.902" y="504.703"/>
      <point x="258.143" y="518.926" type="curve" smooth="yes"/>
      <point x="363.453" y="536.651"/>
      <point x="459.379" y="466.989"/>
      <point x="444.936" y="376.201" type="curve" smooth="yes"/>
      <point x="425.743" y="259.723"/>
      <point x="261.81" y="239.626"/>
      <point x="153.309" y="220.079" type="curve" smooth="yes"/>
      <point x="90.4209" y="208.749"/>
      <point x="47.547" y="198.171"/>
      <point x="49.9729" y="174.519" type="curve" smooth="yes"/>
      <point x="61.7585" y="61.5737"/>
      <point x="137.831" y="-20.5933"/>
      <point x="258.322" y="-5.04617" type="curve" smooth="yes"/>
      <point x="351.164" y="7.65849"/>
      <point x="425.458" y="79.0049"/>
      <point x="442.078" y="171.881" type="curve" smooth="yes"/>
      <point x="442.566" y="174.607"/>
      <point x="445.154" y="176.41"/>
      <point x="447.881" y="175.922" type="curve" smooth="yes"/>
      <point x="450.607" y="175.434"/>
      <point x="452.41" y="172.846"/>
    </contour>
  </outline>
</glyph>
<glyph name="f" format="2">
  <advance width="340"/>
  <unicode hex="0066"/>
  <outline>
    <contour>
      <point x="95" y="2" type="line" smooth="yes"/>
      <point x="95" y="-0.77"/>
      <point x="92.77" y="-3"/>
      <point x="90" y="-3" type="curve" smooth="yes"/>
      <point x="87.23" y="-3"/>
      <point x="85" y="-0.77"/>
      <point x="85" y="2" type="curve" smooth="yes"/>
      <point x="84.9936" y="524.565" type="line"/>
      <point x="67.7675" y="616.361"/>
      <point x="135.905" y="701.9"/>
      <point x="228.849" y="704.998" type="curve" smooth="yes"/>
      <point x="297.148" y="707.067"/>
      <point x="357.268" y="662.542"/>
      <point x="373.851" y="596.213" type="curve" smooth="yes"/>
      <point x="374.523" y="593.525"/>
      <point x="372.9" y="590.821"/>
      <point x="370.213" y="590.149" type="curve" smooth="yes"/>
      <point x="367.525" y="589.478"/>
      <point x="364.821" y="591.1"/>
      <point x="364.149" y="593.787" type="curve" smooth="yes"/>
      <point x="348.732" y="655.458"/>
      <point x="292.852" y="696.933"/>
      <point x="229.159" y="695.003" type="curve" smooth="yes"/>
      <point x="142.327" y="692.108"/>
      <point x="78.2173" y="611.854"/>
      <point x="95" y="525.477" type="curve"/>
    </contour>
    <contour>
      <point x="20" y="498" type="curve" smooth="yes"/>
      <point x="229" y="498" type="line" smooth="yes"/>
      <point x="231.77" y="498"/>
      <point x="234" y="495.77"/>
      <point x="234" y="493" type="curve" smooth="yes"/>
      <point x="234" y="490.23"/>
      <point x="231.77" y="488"/>
      <point x="229" y="488" type="curve" smooth="yes"/>
      <point x="20" y="488" type="line" smooth="yes"/>
      <point x="17.23" y="488"/>
      <point x="15" y="490.23"/>
      <point x="15" y="493" type="curve" smooth="yes"/>
      <point x="15" y="495.77"/>
      <point x="17.23" y="498"/>
    </contour>
  </outline>
</glyph>
<glyph name="g" format="2">
  <advance width="556"/>
  <unicode hex="0067"/>
  <outline>
    <contour>
      <point x="44.0471" y="292.685" type="curve" smooth="yes"/>
      <point x="61.2203" y="416.938"/>
      <point x="148.565" y="526.282"/>
      <point x="268.426" y="516.982" type="curve" smooth="yes"/>
      <point x="389.244" y="506.656"/>
      <point x="456.982" y="384.142"/>
      <point x="458.999" y="258.115" type="curve" smooth="yes"/>
      <point x="462.024" y="127.008"/>
      <point x="393.357" y="-2.62455"/>
      <point x="268.418" y="-13.9825" type="curve" smooth="yes"/>
      <point x="120.772" y="-26.3724"/>
      <point x="20.8259" y="130.137"/>
    </contour>
    <contour>
      <point x="53.9497" y="291.293" type="curve" smooth="yes"/>
      <point x="31.1741" y="131.863"/>
      <point x="129.228" y="-15.6276"/>
      <point x="267.547" y="-4.02052" type="curve" smooth="yes"/>
      <point x="384.643" y="6.62456"/>
      <point x="451.976" y="128.992"/>
      <point x="449" y="257.92" type="curve" smooth="yes"/>
      <point x="447.017" y="381.858"/>
      <point x="380.756" y="497.344"/>
      <point x="267.613" y="507.015" type="curve" smooth="yes"/>
      <point x="155.434" y="515.718"/>
      <point x="70.7791" y="413.062"/>
    </contour>
    <contour>
      <point x="525.947" y="447.93" type="curve" smooth="yes"/>
      <point x="524.246" y="445.744"/>
      <point x="521.117" y="445.353"/>
      <point x="518.93" y="447.053" type="curve" smooth="yes"/>
      <point x="516.744" y="448.754"/>
      <point x="516.353" y="451.883"/>
      <point x="518.053" y="454.07" type="curve" smooth="yes"/>
      <point x="524.959" y="462.949"/>
      <point x="525.261" y="474.492"/>
      <point x="520.465" y="483.626" type="curve" smooth="yes"/>
      <point x="517.116" y="490.007"/>
      <point x="511.331" y="495.091"/>
      <point x="503.745" y="497.16" type="curve" smooth="yes"/>
      <point x="491.566" y="500.317"/>
      <point x="479.913" y="495.689"/>
      <point x="471.404" y="485.952" type="curve" smooth="yes"/>
      <point x="463.873" y="477.335"/>
      <point x="459" y="464.85"/>
      <point x="459" y="451" type="curve" smooth="yes"/>
      <point x="459" y="39" type="line" smooth="yes"/>
      <point x="459" y="7.14124"/>
      <point x="479.641" y="-11.3427"/>
      <point x="507.093" y="-28.4214" type="curve" smooth="yes"/>
      <point x="537.205" y="-47.1546"/>
      <point x="575.335" y="-64.1024"/>
      <point x="594.242" y="-94.3528" type="curve" smooth="yes"/>
      <point x="639.259" y="-166.59"/>
      <point x="583.127" y="-261.616"/>
      <point x="488.48" y="-270.977" type="curve" smooth="yes"/>
      <point x="368.96" y="-282.214"/>
      <point x="293.838" y="-153.717"/>
      <point x="183.152" y="-135.928" type="curve" smooth="yes"/>
      <point x="92.797" y="-120.383"/>
      <point x="7.26068" y="-177.681"/>
      <point x="-14.1371" y="-267.163" type="curve" smooth="yes"/>
      <point x="-14.7813" y="-269.857"/>
      <point x="-17.4688" y="-271.507"/>
      <point x="-20.1628" y="-270.863" type="curve" smooth="yes"/>
      <point x="-22.8568" y="-270.219"/>
      <point x="-24.507" y="-267.531"/>
      <point x="-23.8628" y="-264.837" type="curve" smooth="yes"/>
      <point x="-1.26058" y="-170.319"/>
      <point x="89.2032" y="-109.617"/>
      <point x="184.821" y="-126.068" type="curve" smooth="yes"/>
      <point x="298.225" y="-144.294"/>
      <point x="373.001" y="-271.79"/>
      <point x="487.52" y="-261.023" type="curve" smooth="yes"/>
      <point x="574.954" y="-252.376"/>
      <point x="626.7" y="-165.345"/>
      <point x="585.758" y="-99.6473" type="curve" smooth="yes"/>
      <point x="568.539" y="-72.097"/>
      <point x="534.131" y="-57.0192"/>
      <point x="501.811" y="-36.9124" type="curve" smooth="yes"/>
      <point x="473.92" y="-19.5608"/>
      <point x="449" y="1.52105"/>
      <point x="449" y="39" type="curve" smooth="yes"/>
      <point x="449" y="451" type="line" smooth="yes"/>
      <point x="449" y="467.128"/>
      <point x="454.659" y="481.988"/>
      <point x="463.874" y="492.533" type="curve" smooth="yes"/>
      <point x="474.371" y="504.544"/>
      <point x="489.727" y="511.125"/>
      <point x="506.316" y="506.824" type="curve" smooth="yes"/>
      <point x="516.828" y="503.957"/>
      <point x="524.773" y="496.935"/>
      <point x="529.32" y="488.275" type="curve" smooth="yes"/>
      <point x="535.762" y="476.003"/>
      <point x="535.485" y="460.194"/>
    </contour>
  </outline>
</glyph>
<glyph name="h" format="2">
  <advance width="562"/>
  <unicode hex="0068"/>
  <outline>
    <contour>
      <point x="68" y="2" type="curve" smooth="yes"/>
      <point x="68" y="149.278"/>
      <point x="86.9966" y="301.591"/>
      <point x="173.927" y="423.9" type="curve" smooth="yes"/>
      <point x="216.299" y="483.423"/>
      <point x="278.713" y="534.135"/>
      <point x="353.2" y="529.996" type="curve" smooth="yes"/>
      <point x="430.804" y="526.892"/>
      <point x="493.892" y="463.804"/>
      <point x="497" y="386" type="curve"/>
      <point x="497" y="2" type="line" smooth="yes"/>
      <point x="497" y="-0.77"/>
      <point x="494.77" y="-3"/>
      <point x="492" y="-3" type="curve" smooth="yes"/>
      <point x="489.23" y="-3"/>
      <point x="487" y="-0.77"/>
      <point x="487" y="2" type="curve" smooth="yes"/>
      <point x="487" y="385.877" type="line"/>
      <point x="484.066" y="458.237"/>
      <point x="425.169" y="517.109"/>
      <point x="352.722" y="520.008" type="curve" smooth="yes"/>
      <point x="283.286" y="523.865"/>
      <point x="223.7" y="476.577"/>
      <point x="182.075" y="418.103" type="curve" smooth="yes"/>
      <point x="97.0025" y="298.409"/>
      <point x="78" y="148.722"/>
      <point x="78" y="2" type="curve" smooth="yes"/>
      <point x="78" y="-0.77"/>
      <point x="75.77" y="-3"/>
      <point x="73" y="-3" type="curve" smooth="yes"/>
      <point x="70.23" y="-3"/>
      <point x="68" y="-0.77"/>
    </contour>
    <contour>
      <point x="-1.6424" y="646.143" type="curve" smooth="yes"/>
      <point x="-7.29047" y="660.263"/>
      <point x="-5.03667" y="675.078"/>
      <point x="2.58277" y="686.324" type="curve" smooth="yes"/>
      <point x="10.0931" y="697.408"/>
      <point x="22.7938" y="705"/>
      <point x="38" y="705" type="curve" smooth="yes"/>
      <point x="51.1812" y="705"/>
      <point x="62.7529" y="699.273"/>
      <point x="70.5874" y="690.418" type="curve" smooth="yes"/>
      <point x="80.7698" y="678.91"/>
      <point x="84.6154" y="662.115"/>
      <point x="78" y="647.08" type="curve"/>
      <point x="78" y="2" type="line" smooth="yes"/>
      <point x="78" y="-0.77"/>
      <point x="75.77" y="-3"/>
      <point x="73" y="-3" type="curve" smooth="yes"/>
      <point x="70.23" y="-3"/>
      <point x="68" y="-0.77"/>
      <point x="68" y="2" type="curve" smooth="yes"/>
      <point x="68" y="648" type="line"/>
      <point x="68" y="648.234"/>
      <point x="68.3293" y="649.8"/>
      <point x="68.4234" y="650.014" type="curve"/>
      <point x="73.7983" y="662.229"/>
      <point x="70.9136" y="674.958"/>
      <point x="63.098" y="683.792" type="curve" smooth="yes"/>
      <point x="57.1005" y="690.571"/>
      <point x="48.23" y="695"/>
      <point x="38" y="695" type="curve" smooth="yes"/>
      <point x="26.3105" y="695"/>
      <point x="16.6182" y="689.211"/>
      <point x="10.8615" y="680.715" type="curve" smooth="yes"/>
      <point x="5.04446" y="672.129"/>
      <point x="3.26396" y="660.803"/>
      <point x="7.64243" y="649.857" type="curve" smooth="yes"/>
      <point x="8.67123" y="647.285"/>
      <point x="7.42893" y="644.386"/>
      <point x="4.85703" y="643.358" type="curve" smooth="yes"/>
      <point x="2.28513" y="642.329"/>
      <point x="-0.613571" y="643.571"/>
    </contour>
  </outline>
</glyph>
<glyph name="i" format="2">
  <advance width="232"/>
  <unicode hex="0069"/>
  <outline>
    <contour>
      <point x="87" y="675" type="curve" smooth="yes"/>
      <point x="105.194" y="675"/>
      <point x="116" y="654.873"/>
      <point x="116" y="629" type="curve" smooth="yes"/>
      <point x="116" y="604.061"/>
      <point x="105.155" y="583"/>
      <point x="87" y="583" type="curve" smooth="yes"/>
      <point x="69.7797" y="583"/>
      <point x="58" y="604.171"/>
      <point x="58" y="629" type="curve" smooth="yes"/>
      <point x="58" y="654.763"/>
      <point x="69.74" y="675"/>
    </contour>
    <contour>
      <point x="87" y="685" type="curve" smooth="yes"/>
      <point x="60.26" y="685"/>
      <point x="48" y="655.237"/>
      <point x="48" y="629" type="curve" smooth="yes"/>
      <point x="48" y="603.829"/>
      <point x="60.2203" y="573"/>
      <point x="87" y="573" type="curve" smooth="yes"/>
      <point x="114.845" y="573"/>
      <point x="126" y="603.939"/>
      <point x="126" y="629" type="curve" smooth="yes"/>
      <point x="126" y="655.127"/>
      <point x="114.806" y="685"/>
    </contour>
    <contour>
      <point x="48.3846" y="452.077" type="curve" smooth="yes"/>
      <point x="49.45" y="449.52"/>
      <point x="52.3662" y="448.319"/>
      <point x="54.9231" y="449.385" type="curve" smooth="yes"/>
      <point x="57.48" y="450.45"/>
      <point x="58.6808" y="453.366"/>
      <point x="57.6154" y="455.923" type="curve" smooth="yes"/>
      <point x="53.176" y="466.578"/>
      <point x="55.1307" y="477.98"/>
      <point x="61.2293" y="486.553" type="curve" smooth="yes"/>
      <point x="66.9134" y="494.543"/>
      <point x="76.1201" y="500"/>
      <point x="87" y="500" type="curve" smooth="yes"/>
      <point x="96.664" y="500"/>
      <point x="105.077" y="495.673"/>
      <point x="110.837" y="489.014" type="curve" smooth="yes"/>
      <point x="118.389" y="480.286"/>
      <point x="121.296" y="467.712"/>
      <point x="116.385" y="455.923" type="curve"/>
      <point x="115.661" y="452.705"/>
      <point x="116.214" y="455.22"/>
      <point x="116" y="454" type="curve"/>
      <point x="116" y="47.869" type="line"/>
      <point x="109.915" y="33.2651"/>
      <point x="113.798" y="16.9244"/>
      <point x="123.816" y="5.80166" type="curve" smooth="yes"/>
      <point x="131.374" y="-2.59009"/>
      <point x="142.402" y="-8"/>
      <point x="155" y="-8" type="curve" smooth="yes"/>
      <point x="169.136" y="-8"/>
      <point x="181.206" y="-1.2108"/>
      <point x="188.683" y="8.85325" type="curve" smooth="yes"/>
      <point x="196.859" y="19.8583"/>
      <point x="199.515" y="34.7651"/>
      <point x="193.615" y="48.9231" type="curve" smooth="yes"/>
      <point x="192.55" y="51.48"/>
      <point x="189.634" y="52.6808"/>
      <point x="187.077" y="51.6154" type="curve" smooth="yes"/>
      <point x="184.52" y="50.55"/>
      <point x="183.319" y="47.6338"/>
      <point x="184.385" y="45.0769" type="curve" smooth="yes"/>
      <point x="188.855" y="34.3476"/>
      <point x="186.839" y="23.1401"/>
      <point x="180.655" y="14.8168" type="curve" smooth="yes"/>
      <point x="174.992" y="7.19406"/>
      <point x="165.849" y="2"/>
      <point x="155" y="2" type="curve" smooth="yes"/>
      <point x="145.341" y="2"/>
      <point x="136.978" y="6.1301"/>
      <point x="131.246" y="12.4941" type="curve" smooth="yes"/>
      <point x="123.677" y="20.8978"/>
      <point x="120.665" y="33.197"/>
      <point x="125.615" y="45.0769" type="curve"/>
      <point x="126.339" y="48.2954"/>
      <point x="125.786" y="45.7802"/>
      <point x="126" y="47" type="curve"/>
      <point x="126" y="453.132" type="line"/>
      <point x="132.038" y="467.623"/>
      <point x="128.258" y="484.162"/>
      <point x="118.4" y="495.557" type="curve" smooth="yes"/>
      <point x="110.863" y="504.27"/>
      <point x="99.7523" y="510"/>
      <point x="87" y="510" type="curve" smooth="yes"/>
      <point x="72.6615" y="510"/>
      <point x="60.5105" y="502.793"/>
      <point x="53.0808" y="492.349" type="curve" smooth="yes"/>
      <point x="45.1239" y="481.164"/>
      <point x="42.5249" y="466.14"/>
    </contour>
  </outline>
</glyph>
<glyph name="j" format="2">
  <advance width="246"/>
  <unicode hex="006A"/>
  <outline>
    <contour>
      <point x="54" y="685" type="curve" smooth="yes"/>
      <point x="81.8063" y="685"/>
      <point x="93" y="655.127"/>
      <point x="93" y="629" type="curve" smooth="yes"/>
      <point x="93" y="603.939"/>
      <point x="81.845" y="573"/>
      <point x="54" y="573" type="curve" smooth="yes"/>
      <point x="27.2203" y="573"/>
      <point x="15" y="603.829"/>
      <point x="15" y="629" type="curve" smooth="yes"/>
      <point x="15" y="655.237"/>
      <point x="27.26" y="685"/>
    </contour>
    <contour>
      <point x="54" y="675" type="curve" smooth="yes"/>
      <point x="36.74" y="675"/>
      <point x="25" y="654.763"/>
      <point x="25" y="629" type="curve" smooth="yes"/>
      <point x="25" y="604.171"/>
      <point x="36.7797" y="583"/>
      <point x="54" y="583" type="curve" smooth="yes"/>
      <point x="72.155" y="583"/>
      <point x="83" y="604.061"/>
      <point x="83" y="629" type="curve" smooth="yes"/>
      <point x="83" y="654.873"/>
      <point x="72.1937" y="675"/>
    </contour>
    <contour>
      <point x="-383.863" y="-264.837" type="curve" smooth="yes"/>
      <point x="-361.249" y="-170.271"/>
      <point x="-270.765" y="-110.651"/>
      <point x="-175.184" y="-126.067" type="curve" smooth="yes"/>
      <point x="-61.121" y="-145.417"/>
      <point x="12.5796" y="-271.829"/>
      <point x="127.52" y="-261.023" type="curve" smooth="yes"/>
      <point x="214.954" y="-252.376"/>
      <point x="266.7" y="-165.345"/>
      <point x="225.758" y="-99.6472" type="curve" smooth="yes"/>
      <point x="208.496" y="-72.0276"/>
      <point x="173.963" y="-56.6742"/>
      <point x="141.608" y="-36.3923" type="curve" smooth="yes"/>
      <point x="113.829" y="-18.9792"/>
      <point x="89" y="2.06768"/>
      <point x="89" y="39.0121" type="curve" smooth="yes"/>
      <point x="91" y="451" type="line" smooth="yes"/>
      <point x="91" y="464.99"/>
      <point x="86.029" y="477.584"/>
      <point x="78.3703" y="486.209" type="curve" smooth="yes"/>
      <point x="69.8814" y="495.769"/>
      <point x="58.3293" y="500.29"/>
      <point x="46.3156" y="497.176" type="curve" smooth="yes"/>
      <point x="38.126" y="494.943"/>
      <point x="32.0627" y="489.264"/>
      <point x="28.8516" y="482.234" type="curve" smooth="yes"/>
      <point x="24.7861" y="473.333"/>
      <point x="25.3866" y="462.504"/>
      <point x="31.9467" y="454.07" type="curve" smooth="yes"/>
      <point x="33.6473" y="451.883"/>
      <point x="33.2561" y="448.754"/>
      <point x="31.0696" y="447.053" type="curve" smooth="yes"/>
      <point x="28.8831" y="445.353"/>
      <point x="25.7538" y="445.744"/>
      <point x="24.0532" y="447.93" type="curve" smooth="yes"/>
      <point x="14.9971" y="459.574"/>
      <point x="14.2898" y="474.422"/>
      <point x="19.7555" y="486.388" type="curve" smooth="yes"/>
      <point x="24.1026" y="495.906"/>
      <point x="32.4136" y="503.75"/>
      <point x="43.7451" y="506.84" type="curve" smooth="yes"/>
      <point x="60.1238" y="511.086"/>
      <point x="75.3591" y="504.661"/>
      <point x="85.8477" y="492.849" type="curve" smooth="yes"/>
      <point x="95.2279" y="482.285"/>
      <point x="101" y="467.288"/>
      <point x="101" y="450.988" type="curve" smooth="yes"/>
      <point x="99" y="39" type="line" smooth="yes"/>
      <point x="99" y="7.69992"/>
      <point x="119.524" y="-10.7469"/>
      <point x="146.919" y="-27.9194" type="curve" smooth="yes"/>
      <point x="177.076" y="-46.8232"/>
      <point x="215.301" y="-64.0474"/>
      <point x="234.242" y="-94.3528" type="curve" smooth="yes"/>
      <point x="279.259" y="-166.59"/>
      <point x="223.127" y="-261.616"/>
      <point x="128.48" y="-270.977" type="curve" smooth="yes"/>
      <point x="9.39359" y="-282.173"/>
      <point x="-66.812" y="-154.594"/>
      <point x="-176.796" y="-135.936" type="curve" smooth="yes"/>
      <point x="-267.235" y="-121.349"/>
      <point x="-352.751" y="-177.729"/>
      <point x="-374.137" y="-267.163" type="curve" smooth="yes"/>
      <point x="-374.781" y="-269.857"/>
      <point x="-377.469" y="-271.507"/>
      <point x="-380.163" y="-270.863" type="curve" smooth="yes"/>
      <point x="-382.857" y="-270.219"/>
      <point x="-384.507" y="-267.531"/>
    </contour>
  </outline>
</glyph>
<glyph name="k" format="2">
  <advance width="507"/>
  <unicode hex="006B"/>
  <outline>
    <contour>
      <point x="98.0216" y="1.9184" type="line" smooth="yes"/>
      <point x="98.0216" y="-0.8516"/>
      <point x="95.7916" y="-3.0816"/>
      <point x="93.0216" y="-3.0816" type="curve" smooth="yes"/>
      <point x="90.2516" y="-3.0816"/>
      <point x="88.0216" y="-0.8516"/>
      <point x="88.0216" y="1.9184" type="curve" smooth="yes"/>
      <point x="88.0216" y="235.963" type="line" smooth="yes"/>
      <point x="88.0216" y="391.502"/>
      <point x="190.818" y="533.338"/>
      <point x="328.883" y="508.506" type="curve" smooth="yes"/>
      <point x="397.141" y="496.635"/>
      <point x="448.854" y="434.932"/>
      <point x="432.656" y="369.136" type="curve" smooth="yes"/>
      <point x="398.111" y="218.125"/>
      <point x="98.0216" y="309.439"/>
      <point x="98.0216" y="135.247" type="curve" smooth="yes"/>
      <point x="98.0216" y="132.477"/>
      <point x="95.7916" y="130.247"/>
      <point x="93.0216" y="130.247" type="curve" smooth="yes"/>
      <point x="90.2516" y="130.247"/>
      <point x="88.0216" y="132.477"/>
      <point x="88.0216" y="135.247" type="curve" smooth="yes"/>
      <point x="88.0216" y="319.672"/>
      <point x="390.395" y="228.978"/>
      <point x="422.917" y="371.406" type="curve" smooth="yes"/>
      <point x="437.5" y="430.537"/>
      <point x="390.93" y="487.565"/>
      <point x="327.155" y="498.656" type="curve" smooth="yes"/>
      <point x="195.947" y="522.255"/>
      <point x="98.0216" y="385.631"/>
      <point x="98.0216" y="235.963" type="curve" smooth="yes"/>
    </contour>
    <contour>
      <point x="18.3576" y="646.143" type="curve" smooth="yes"/>
      <point x="12.5578" y="660.643"/>
      <point x="15.0913" y="675.872"/>
      <point x="23.2047" y="687.217" type="curve" smooth="yes"/>
      <point x="30.7829" y="697.814"/>
      <point x="43.2077" y="705"/>
      <point x="58" y="705" type="curve" smooth="yes"/>
      <point x="71.8844" y="705"/>
      <point x="83.9803" y="698.646"/>
      <point x="91.8061" y="688.979" type="curve" smooth="yes"/>
      <point x="101.068" y="677.537"/>
      <point x="104.327" y="661.452"/>
      <point x="98" y="647.074" type="curve"/>
      <point x="98" y="2" type="line" smooth="yes"/>
      <point x="98" y="-0.77"/>
      <point x="95.77" y="-3"/>
      <point x="93" y="-3" type="curve" smooth="yes"/>
      <point x="90.23" y="-3"/>
      <point x="88" y="-0.77"/>
      <point x="88" y="2" type="curve" smooth="yes"/>
      <point x="88" y="649.089" type="line"/>
      <point x="89.6699" y="652.6"/>
      <point x="96.1852" y="667.675"/>
      <point x="84.0335" y="682.687" type="curve" smooth="yes"/>
      <point x="78.0437" y="690.086"/>
      <point x="68.7736" y="695"/>
      <point x="58" y="695" type="curve" smooth="yes"/>
      <point x="46.6246" y="695"/>
      <point x="37.145" y="689.519"/>
      <point x="31.3387" y="681.4" type="curve" smooth="yes"/>
      <point x="25.1435" y="672.737"/>
      <point x="23.1472" y="661.095"/>
      <point x="27.6424" y="649.857" type="curve" smooth="yes"/>
      <point x="28.6712" y="647.285"/>
      <point x="27.4289" y="644.386"/>
      <point x="24.857" y="643.358" type="curve" smooth="yes"/>
      <point x="22.2851" y="642.329"/>
      <point x="19.3864" y="643.571"/>
    </contour>
    <contour>
      <point x="262.909" y="273.503" type="curve" smooth="yes"/>
      <point x="347.451" y="288.079"/>
      <point x="432.782" y="247.491"/>
      <point x="432.782" y="168.819" type="curve" smooth="yes"/>
      <point x="432.782" y="111.936"/>
      <point x="444.159" y="55.9987"/>
      <point x="465.967" y="3.84739" type="curve" smooth="yes"/>
      <point x="467.036" y="1.29179"/>
      <point x="465.839" y="-1.62591"/>
      <point x="463.283" y="-2.69461" type="curve" smooth="yes"/>
      <point x="460.727" y="-3.76331"/>
      <point x="457.81" y="-2.56631"/>
      <point x="456.741" y="-0.0107098" type="curve" smooth="yes"/>
      <point x="434.427" y="53.3499"/>
      <point x="422.782" y="110.598"/>
      <point x="422.782" y="168.819" type="curve" smooth="yes"/>
      <point x="422.782" y="237.865"/>
      <point x="346.968" y="277.848"/>
      <point x="264.608" y="263.649" type="curve" smooth="yes"/>
      <point x="261.879" y="263.178"/>
      <point x="259.302" y="264.997"/>
      <point x="258.832" y="267.726" type="curve" smooth="yes"/>
      <point x="258.361" y="270.456"/>
      <point x="260.18" y="273.033"/>
    </contour>
  </outline>
</glyph>
<glyph name="l" format="2">
  <advance width="168"/>
  <unicode hex="006C"/>
  <outline>
    <contour>
      <point x="18.3576" y="646.143" type="curve" smooth="yes"/>
      <point x="12.0841" y="661.827"/>
      <point x="15.5638" y="678.356"/>
      <point x="25.2911" y="689.903" type="curve" smooth="yes"/>
      <point x="32.9635" y="699.011"/>
      <point x="44.5013" y="705"/>
      <point x="58" y="705" type="curve" smooth="yes"/>
      <point x="71.2146" y="705"/>
      <point x="82.8113" y="699.244"/>
      <point x="90.6467" y="690.351" type="curve" smooth="yes"/>
      <point x="100.785" y="678.845"/>
      <point x="104.602" y="662.083"/>
      <point x="98" y="647.08" type="curve"/>
      <point x="98" y="2" type="line" smooth="yes"/>
      <point x="98" y="-0.77"/>
      <point x="95.77" y="-3"/>
      <point x="93" y="-3" type="curve" smooth="yes"/>
      <point x="90.23" y="-3"/>
      <point x="88" y="-0.77"/>
      <point x="88" y="2" type="curve" smooth="yes"/>
      <point x="88" y="649.089" type="line"/>
      <point x="89.6399" y="652.537"/>
      <point x="96.5984" y="668.469"/>
      <point x="83.1435" y="683.74" type="curve" smooth="yes"/>
      <point x="77.1454" y="690.548"/>
      <point x="68.2559" y="695"/>
      <point x="58" y="695" type="curve" smooth="yes"/>
      <point x="47.6063" y="695"/>
      <point x="38.8083" y="690.427"/>
      <point x="32.939" y="683.46" type="curve" smooth="yes"/>
      <point x="25.5099" y="674.641"/>
      <point x="22.7827" y="662.006"/>
      <point x="27.6424" y="649.857" type="curve" smooth="yes"/>
      <point x="28.6712" y="647.285"/>
      <point x="27.4289" y="644.386"/>
      <point x="24.857" y="643.358" type="curve" smooth="yes"/>
      <point x="22.2851" y="642.329"/>
      <point x="19.3864" y="643.571"/>
    </contour>
  </outline>
</glyph>
